<?xml version="1.0" encoding="UTF-8" standalone="no"?>
<!-- Generator: Adobe Illustrator 16.0.0, SVG Export Plug-In . SVG Version: 6.00 Build 0)  -->

<svg
   xmlns:dc="http://purl.org/dc/elements/1.1/"
   xmlns:cc="http://creativecommons.org/ns#"
   xmlns:rdf="http://www.w3.org/1999/02/22-rdf-syntax-ns#"
   xmlns:svg="http://www.w3.org/2000/svg"
   xmlns="http://www.w3.org/2000/svg"
   xmlns:sodipodi="http://sodipodi.sourceforge.net/DTD/sodipodi-0.dtd"
   xmlns:inkscape="http://www.inkscape.org/namespaces/inkscape"
   version="1.1"
   id="Capa_1"
   x="0px"
   y="0px"
   width="80"
   height="80"
   viewBox="0 0 79.999998 79.999999"
   xml:space="preserve"
   inkscape:version="0.91 r13725"
   sodipodi:docname="learningjulia.svg"><metadata
     id="metadata4284"><rdf:RDF><cc:Work
         rdf:about=""><dc:format>image/svg+xml</dc:format><dc:type
           rdf:resource="http://purl.org/dc/dcmitype/StillImage" /><dc:title></dc:title></cc:Work></rdf:RDF></metadata><defs
     id="defs4282" /><sodipodi:namedview
     pagecolor="#ffffff"
     bordercolor="#666666"
     borderopacity="1"
     objecttolerance="10"
     gridtolerance="10"
     guidetolerance="10"
     inkscape:pageopacity="0"
     inkscape:pageshadow="2"
     inkscape:window-width="1366"
     inkscape:window-height="712"
     id="namedview4280"
     showgrid="false"
     showguides="true"
     inkscape:guide-bbox="true"
     inkscape:zoom="6.5054548"
     inkscape:cx="53.150703"
     inkscape:cy="40.246628"
     inkscape:window-x="0"
     inkscape:window-y="0"
     inkscape:window-maximized="1"
     inkscape:current-layer="Capa_1" /><g
     id="g3454"
     transform="translate(-5.8219079e-5,0.86906103)"><g
       transform="matrix(0.16487666,0,0,0.16487666,-9.0554401e-5,-0.86919498)"
       id="g4246"><path
         inkscape:connector-curvature="0"
         id="path4248"
         d="m 303.255,394.237 c 0,8.383 -6.776,15.159 -15.158,15.159 l -90.98,0 c -8.38,0 -15.161,-6.776 -15.161,-15.159 0,-8.382 6.781,-15.163 15.161,-15.163 l 90.98,0 c 8.382,0 15.158,6.781 15.158,15.163 z m -15.158,30.322 -90.98,0 c -8.38,0 -15.161,6.786 -15.161,15.168 0,8.378 6.781,15.159 15.161,15.159 0,16.764 13.567,30.326 30.327,30.326 l 30.327,0 c 16.76,0 30.327,-13.562 30.327,-30.326 8.382,0 15.158,-6.781 15.158,-15.159 -10e-4,-8.382 -6.777,-15.168 -15.159,-15.168 z M 242.606,30.327 c 66.902,0 121.302,54.434 121.302,121.302 0,43.241 -22.715,82.273 -60.742,104.394 l -15.069,8.77 0,17.436 0,51.357 -90.98,0 0,-51.357 0,-17.408 -15.072,-8.797 C 143.99,233.874 121.305,194.838 121.305,151.63 121.304,84.761 175.734,30.327 242.606,30.327 M 242.606,0 C 158.855,0 90.978,67.878 90.978,151.628 c 0,55.973 30.682,104.305 75.817,130.599 l 0,51.357 c 0,16.759 13.56,30.321 30.322,30.321 l 90.98,0 c 16.731,0 30.326,-13.562 30.326,-30.321 l 0,-51.357 C 363.554,255.961 394.235,207.601 394.235,151.628 394.235,67.878 326.357,0 242.606,0 l 0,0 z" /></g><g
       transform="matrix(0.16487666,0,0,0.16487666,-9.0554401e-5,-0.86919498)"
       id="g4250" /><g
       transform="matrix(0.16487666,0,0,0.16487666,-9.0554401e-5,-0.86919498)"
       id="g4252" /><g
       transform="matrix(0.16487666,0,0,0.16487666,-9.0554401e-5,-0.86919498)"
       id="g4254" /><g
       transform="matrix(0.16487666,0,0,0.16487666,-9.0554401e-5,-0.86919498)"
       id="g4256" /><g
       transform="matrix(0.16487666,0,0,0.16487666,-9.0554401e-5,-0.86919498)"
       id="g4258" /><g
       transform="matrix(0.16487666,0,0,0.16487666,-9.0554401e-5,-0.86919498)"
       id="g4260" /><g
       transform="matrix(0.16487666,0,0,0.16487666,-9.0554401e-5,-0.86919498)"
       id="g4262" /><g
       transform="matrix(0.16487666,0,0,0.16487666,-9.0554401e-5,-0.86919498)"
       id="g4264" /><g
       transform="matrix(0.16487666,0,0,0.16487666,-9.0554401e-5,-0.86919498)"
       id="g4266" /><g
       transform="matrix(0.16487666,0,0,0.16487666,-9.0554401e-5,-0.86919498)"
       id="g4268" /><g
       transform="matrix(0.16487666,0,0,0.16487666,-9.0554401e-5,-0.86919498)"
       id="g4270" /><g
       transform="matrix(0.16487666,0,0,0.16487666,-9.0554401e-5,-0.86919498)"
       id="g4272" /><g
       transform="matrix(0.16487666,0,0,0.16487666,-9.0554401e-5,-0.86919498)"
       id="g4274" /><g
       transform="matrix(0.16487666,0,0,0.16487666,-9.0554401e-5,-0.86919498)"
       id="g4276" /><g
       transform="matrix(0.16487666,0,0,0.16487666,-9.0554401e-5,-0.86919498)"
       id="g4278" /><circle
       id="circle4359"
       r="6.4951057"
       cy="-13.985695"
       cx="40.000065"
       style="fill:#60ad51;stroke:#389826;stroke-width:0.40594411"
       transform="scale(1,-1)" /><circle
       r="6.495141"
       id="circle4357"
       cy="-28.404137"
       cx="31.471333"
       style="fill:#d5635c;stroke:#cb3c33;stroke-width:0.40594631"
       transform="scale(1,-1)" /><circle
       r="6.495141"
       id="circle4361"
       cy="-28.404137"
       cx="48.528812"
       style="fill:#aa79c1;stroke:#9558b2;stroke-width:0.40594631"
       transform="scale(1,-1)" /></g></svg>