<?xml version="1.0" encoding="UTF-8"?>
<!DOCTYPE svg PUBLIC "-//W3C//DTD SVG 1.1//EN"
 "http://www.w3.org/Graphics/SVG/1.1/DTD/svg11.dtd">
<svg xmlns="http://www.w3.org/2000/svg" version="1.1"
     width="250.0mm" height="25.0mm"
     shape-rendering="crispEdges">
<rect x="0.0mm" y="0.0mm"
      width="3.90625mm" height="25.0mm"
      fill="#5C7C99" stroke="none" />
<rect x="3.90625mm" y="0.0mm"
      width="3.90625mm" height="25.0mm"
      fill="#5B80A0" stroke="none" />
<rect x="7.8125mm" y="0.0mm"
      width="3.90625mm" height="25.0mm"
      fill="#6082A3" stroke="none" />
<rect x="11.71875mm" y="0.0mm"
      width="3.90625mm" height="25.0mm"
      fill="#5F84A4" stroke="none" />
<rect x="15.625mm" y="0.0mm"
      width="3.90625mm" height="25.0mm"
      fill="#6685A5" stroke="none" />
<rect x="19.53125mm" y="0.0mm"
      width="3.90625mm" height="25.0mm"
      fill="#6389A6" stroke="none" />
<rect x="23.4375mm" y="0.0mm"
      width="3.90625mm" height="25.0mm"
      fill="#6287A7" stroke="none" />
<rect x="27.34375mm" y="0.0mm"
      width="3.90625mm" height="25.0mm"
      fill="#6088A5" stroke="none" />
<rect x="31.25mm" y="0.0mm"
      width="3.90625mm" height="25.0mm"
      fill="#698EAE" stroke="none" />
<rect x="35.15625mm" y="0.0mm"
      width="3.90625mm" height="25.0mm"
      fill="#6C8DA7" stroke="none" />
<rect x="39.0625mm" y="0.0mm"
      width="3.90625mm" height="25.0mm"
      fill="#6A88A1" stroke="none" />
<rect x="42.96875mm" y="0.0mm"
      width="3.90625mm" height="25.0mm"
      fill="#678DA8" stroke="none" />
<rect x="46.875mm" y="0.0mm"
      width="3.90625mm" height="25.0mm"
      fill="#698EA9" stroke="none" />
<rect x="50.78125mm" y="0.0mm"
      width="3.90625mm" height="25.0mm"
      fill="#6D91AA" stroke="none" />
<rect x="54.6875mm" y="0.0mm"
      width="3.90625mm" height="25.0mm"
      fill="#6C8FA9" stroke="none" />
<rect x="58.59375mm" y="0.0mm"
      width="3.90625mm" height="25.0mm"
      fill="#6F92A9" stroke="none" />
<rect x="62.5mm" y="0.0mm"
      width="3.90625mm" height="25.0mm"
      fill="#7195AC" stroke="none" />
<rect x="66.40625mm" y="0.0mm"
      width="3.90625mm" height="25.0mm"
      fill="#879EA5" stroke="none" />
<rect x="70.3125mm" y="0.0mm"
      width="3.90625mm" height="25.0mm"
      fill="#8599A1" stroke="none" />
<rect x="74.21875mm" y="0.0mm"
      width="3.90625mm" height="25.0mm"
      fill="#8C9DA4" stroke="none" />
<rect x="78.125mm" y="0.0mm"
      width="3.90625mm" height="25.0mm"
      fill="#889A9E" stroke="none" />
<rect x="82.03125mm" y="0.0mm"
      width="3.90625mm" height="25.0mm"
      fill="#8298A2" stroke="none" />
<rect x="85.9375mm" y="0.0mm"
      width="3.90625mm" height="25.0mm"
      fill="#7A9DA8" stroke="none" />
<rect x="89.84375mm" y="0.0mm"
      width="3.90625mm" height="25.0mm"
      fill="#799BA8" stroke="none" />
<rect x="93.75mm" y="0.0mm"
      width="3.90625mm" height="25.0mm"
      fill="#7C9AA6" stroke="none" />
<rect x="97.65625mm" y="0.0mm"
      width="3.90625mm" height="25.0mm"
      fill="#7C9AA2" stroke="none" />
<rect x="101.5625mm" y="0.0mm"
      width="3.90625mm" height="25.0mm"
      fill="#8DA4A8" stroke="none" />
<rect x="105.46875mm" y="0.0mm"
      width="3.90625mm" height="25.0mm"
      fill="#8D9CA1" stroke="none" />
<rect x="109.375mm" y="0.0mm"
      width="3.90625mm" height="25.0mm"
      fill="#85979D" stroke="none" />
<rect x="113.28125mm" y="0.0mm"
      width="3.90625mm" height="25.0mm"
      fill="#7F8E91" stroke="none" />
<rect x="117.1875mm" y="0.0mm"
      width="3.90625mm" height="25.0mm"
      fill="#8D9CA1" stroke="none" />
<rect x="121.09375mm" y="0.0mm"
      width="3.90625mm" height="25.0mm"
      fill="#899DA5" stroke="none" />
<rect x="125.0mm" y="0.0mm"
      width="3.90625mm" height="25.0mm"
      fill="#704E40" stroke="none" />
<rect x="128.90625mm" y="0.0mm"
      width="3.90625mm" height="25.0mm"
      fill="#C4A982" stroke="none" />
<rect x="132.8125mm" y="0.0mm"
      width="3.90625mm" height="25.0mm"
      fill="#D6BE94" stroke="none" />
<rect x="136.71875mm" y="0.0mm"
      width="3.90625mm" height="25.0mm"
      fill="#160B02" stroke="none" />
<rect x="140.625mm" y="0.0mm"
      width="3.90625mm" height="25.0mm"
      fill="#967B51" stroke="none" />
<rect x="144.53125mm" y="0.0mm"
      width="3.90625mm" height="25.0mm"
      fill="#48471F" stroke="none" />
<rect x="148.4375mm" y="0.0mm"
      width="3.90625mm" height="25.0mm"
      fill="#6C624F" stroke="none" />
<rect x="152.34375mm" y="0.0mm"
      width="3.90625mm" height="25.0mm"
      fill="#2E2617" stroke="none" />
<rect x="156.25mm" y="0.0mm"
      width="3.90625mm" height="25.0mm"
      fill="#323518" stroke="none" />
<rect x="160.15625mm" y="0.0mm"
      width="3.90625mm" height="25.0mm"
      fill="#797359" stroke="none" />
<rect x="164.0625mm" y="0.0mm"
      width="3.90625mm" height="25.0mm"
      fill="#5E5647" stroke="none" />
<rect x="167.96875mm" y="0.0mm"
      width="3.90625mm" height="25.0mm"
      fill="#333024" stroke="none" />
<rect x="171.875mm" y="0.0mm"
      width="3.90625mm" height="25.0mm"
      fill="#4E4626" stroke="none" />
<rect x="175.78125mm" y="0.0mm"
      width="3.90625mm" height="25.0mm"
      fill="#938C75" stroke="none" />
<rect x="179.6875mm" y="0.0mm"
      width="3.90625mm" height="25.0mm"
      fill="#776C5C" stroke="none" />
<rect x="183.59375mm" y="0.0mm"
      width="3.90625mm" height="25.0mm"
      fill="#5A5243" stroke="none" />
<rect x="187.5mm" y="0.0mm"
      width="3.90625mm" height="25.0mm"
      fill="#6E6753" stroke="none" />
<rect x="191.40625mm" y="0.0mm"
      width="3.90625mm" height="25.0mm"
      fill="#2F2A29" stroke="none" />
<rect x="195.3125mm" y="0.0mm"
      width="3.90625mm" height="25.0mm"
      fill="#1F1717" stroke="none" />
<rect x="199.21875mm" y="0.0mm"
      width="3.90625mm" height="25.0mm"
      fill="#817A68" stroke="none" />
<rect x="203.125mm" y="0.0mm"
      width="3.90625mm" height="25.0mm"
      fill="#665E4F" stroke="none" />
<rect x="207.03125mm" y="0.0mm"
      width="3.90625mm" height="25.0mm"
      fill="#8E8668" stroke="none" />
<rect x="210.9375mm" y="0.0mm"
      width="3.90625mm" height="25.0mm"
      fill="#A29981" stroke="none" />
<rect x="214.84375mm" y="0.0mm"
      width="3.90625mm" height="25.0mm"
      fill="#706454" stroke="none" />
<rect x="218.75mm" y="0.0mm"
      width="3.90625mm" height="25.0mm"
      fill="#4D4234" stroke="none" />
<rect x="222.65625mm" y="0.0mm"
      width="3.90625mm" height="25.0mm"
      fill="#4F4738" stroke="none" />
<rect x="226.5625mm" y="0.0mm"
      width="3.90625mm" height="25.0mm"
      fill="#827C71" stroke="none" />
<rect x="230.46875mm" y="0.0mm"
      width="3.90625mm" height="25.0mm"
      fill="#534F49" stroke="none" />
<rect x="234.375mm" y="0.0mm"
      width="3.90625mm" height="25.0mm"
      fill="#342A26" stroke="none" />
<rect x="238.28125mm" y="0.0mm"
      width="3.90625mm" height="25.0mm"
      fill="#403C3A" stroke="none" />
<rect x="242.1875mm" y="0.0mm"
      width="3.90625mm" height="25.0mm"
      fill="#261F1C" stroke="none" />
<rect x="246.09375mm" y="0.0mm"
      width="3.90625mm" height="25.0mm"
      fill="#302A24" stroke="none" />
</svg>