<?xml version="1.0" encoding="UTF-8"?>
<!DOCTYPE svg PUBLIC "-//W3C//DTD SVG 1.1//EN"
 "http://www.w3.org/Graphics/SVG/1.1/DTD/svg11.dtd">
<svg xmlns="http://www.w3.org/2000/svg" version="1.1"
     width="250.0mm" height="25.0mm"
     shape-rendering="crispEdges">
<rect x="0.0mm" y="0.0mm"
      width="0.3255208333333333mm" height="25.0mm"
      fill="#000000" stroke="none" />
<rect x="0.3255208333333333mm" y="0.0mm"
      width="0.3255208333333333mm" height="25.0mm"
      fill="#000000" stroke="none" />
<rect x="0.6510416666666666mm" y="0.0mm"
      width="0.3255208333333333mm" height="25.0mm"
      fill="#000000" stroke="none" />
<rect x="0.9765625mm" y="0.0mm"
      width="0.3255208333333333mm" height="25.0mm"
      fill="#000000" stroke="none" />
<rect x="1.3020833333333333mm" y="0.0mm"
      width="0.3255208333333333mm" height="25.0mm"
      fill="#000000" stroke="none" />
<rect x="1.6276041666666665mm" y="0.0mm"
      width="0.3255208333333333mm" height="25.0mm"
      fill="#000000" stroke="none" />
<rect x="1.953125mm" y="0.0mm"
      width="0.3255208333333333mm" height="25.0mm"
      fill="#000000" stroke="none" />
<rect x="2.278645833333333mm" y="0.0mm"
      width="0.3255208333333333mm" height="25.0mm"
      fill="#000000" stroke="none" />
<rect x="2.6041666666666665mm" y="0.0mm"
      width="0.3255208333333333mm" height="25.0mm"
      fill="#000000" stroke="none" />
<rect x="2.9296875mm" y="0.0mm"
      width="0.3255208333333333mm" height="25.0mm"
      fill="#000000" stroke="none" />
<rect x="3.255208333333333mm" y="0.0mm"
      width="0.3255208333333333mm" height="25.0mm"
      fill="#000000" stroke="none" />
<rect x="3.5807291666666665mm" y="0.0mm"
      width="0.3255208333333333mm" height="25.0mm"
      fill="#000000" stroke="none" />
<rect x="3.90625mm" y="0.0mm"
      width="0.3255208333333333mm" height="25.0mm"
      fill="#000000" stroke="none" />
<rect x="4.231770833333333mm" y="0.0mm"
      width="0.3255208333333333mm" height="25.0mm"
      fill="#000000" stroke="none" />
<rect x="4.557291666666666mm" y="0.0mm"
      width="0.3255208333333333mm" height="25.0mm"
      fill="#000000" stroke="none" />
<rect x="4.8828125mm" y="0.0mm"
      width="0.3255208333333333mm" height="25.0mm"
      fill="#000000" stroke="none" />
<rect x="5.208333333333333mm" y="0.0mm"
      width="0.3255208333333333mm" height="25.0mm"
      fill="#000000" stroke="none" />
<rect x="5.533854166666666mm" y="0.0mm"
      width="0.3255208333333333mm" height="25.0mm"
      fill="#000000" stroke="none" />
<rect x="5.859375mm" y="0.0mm"
      width="0.3255208333333333mm" height="25.0mm"
      fill="#000000" stroke="none" />
<rect x="6.184895833333333mm" y="0.0mm"
      width="0.3255208333333333mm" height="25.0mm"
      fill="#000000" stroke="none" />
<rect x="6.510416666666666mm" y="0.0mm"
      width="0.3255208333333333mm" height="25.0mm"
      fill="#000000" stroke="none" />
<rect x="6.8359375mm" y="0.0mm"
      width="0.3255208333333333mm" height="25.0mm"
      fill="#000000" stroke="none" />
<rect x="7.161458333333333mm" y="0.0mm"
      width="0.3255208333333333mm" height="25.0mm"
      fill="#000000" stroke="none" />
<rect x="7.486979166666666mm" y="0.0mm"
      width="0.3255208333333333mm" height="25.0mm"
      fill="#000000" stroke="none" />
<rect x="7.8125mm" y="0.0mm"
      width="0.3255208333333333mm" height="25.0mm"
      fill="#000000" stroke="none" />
<rect x="8.138020833333332mm" y="0.0mm"
      width="0.3255208333333333mm" height="25.0mm"
      fill="#000000" stroke="none" />
<rect x="8.463541666666666mm" y="0.0mm"
      width="0.3255208333333333mm" height="25.0mm"
      fill="#000000" stroke="none" />
<rect x="8.7890625mm" y="0.0mm"
      width="0.3255208333333333mm" height="25.0mm"
      fill="#000000" stroke="none" />
<rect x="9.114583333333332mm" y="0.0mm"
      width="0.3255208333333333mm" height="25.0mm"
      fill="#000000" stroke="none" />
<rect x="9.440104166666666mm" y="0.0mm"
      width="0.3255208333333333mm" height="25.0mm"
      fill="#000000" stroke="none" />
<rect x="9.765625mm" y="0.0mm"
      width="0.3255208333333333mm" height="25.0mm"
      fill="#000000" stroke="none" />
<rect x="10.091145833333332mm" y="0.0mm"
      width="0.3255208333333333mm" height="25.0mm"
      fill="#000000" stroke="none" />
<rect x="10.416666666666666mm" y="0.0mm"
      width="0.3255208333333333mm" height="25.0mm"
      fill="#000000" stroke="none" />
<rect x="10.7421875mm" y="0.0mm"
      width="0.3255208333333333mm" height="25.0mm"
      fill="#000000" stroke="none" />
<rect x="11.067708333333332mm" y="0.0mm"
      width="0.3255208333333333mm" height="25.0mm"
      fill="#000000" stroke="none" />
<rect x="11.393229166666666mm" y="0.0mm"
      width="0.3255208333333333mm" height="25.0mm"
      fill="#000000" stroke="none" />
<rect x="11.71875mm" y="0.0mm"
      width="0.3255208333333333mm" height="25.0mm"
      fill="#000000" stroke="none" />
<rect x="12.044270833333332mm" y="0.0mm"
      width="0.3255208333333333mm" height="25.0mm"
      fill="#000000" stroke="none" />
<rect x="12.369791666666666mm" y="0.0mm"
      width="0.3255208333333333mm" height="25.0mm"
      fill="#000000" stroke="none" />
<rect x="12.6953125mm" y="0.0mm"
      width="0.3255208333333333mm" height="25.0mm"
      fill="#000000" stroke="none" />
<rect x="13.020833333333332mm" y="0.0mm"
      width="0.3255208333333333mm" height="25.0mm"
      fill="#000000" stroke="none" />
<rect x="13.346354166666666mm" y="0.0mm"
      width="0.3255208333333333mm" height="25.0mm"
      fill="#000000" stroke="none" />
<rect x="13.671875mm" y="0.0mm"
      width="0.3255208333333333mm" height="25.0mm"
      fill="#000000" stroke="none" />
<rect x="13.997395833333332mm" y="0.0mm"
      width="0.3255208333333333mm" height="25.0mm"
      fill="#000000" stroke="none" />
<rect x="14.322916666666666mm" y="0.0mm"
      width="0.3255208333333333mm" height="25.0mm"
      fill="#000000" stroke="none" />
<rect x="14.6484375mm" y="0.0mm"
      width="0.3255208333333333mm" height="25.0mm"
      fill="#000000" stroke="none" />
<rect x="14.973958333333332mm" y="0.0mm"
      width="0.3255208333333333mm" height="25.0mm"
      fill="#000000" stroke="none" />
<rect x="15.299479166666666mm" y="0.0mm"
      width="0.3255208333333333mm" height="25.0mm"
      fill="#000000" stroke="none" />
<rect x="15.625mm" y="0.0mm"
      width="0.3255208333333333mm" height="25.0mm"
      fill="#000000" stroke="none" />
<rect x="15.950520833333332mm" y="0.0mm"
      width="0.3255208333333333mm" height="25.0mm"
      fill="#000000" stroke="none" />
<rect x="16.276041666666664mm" y="0.0mm"
      width="0.3255208333333333mm" height="25.0mm"
      fill="#000000" stroke="none" />
<rect x="16.6015625mm" y="0.0mm"
      width="0.3255208333333333mm" height="25.0mm"
      fill="#000000" stroke="none" />
<rect x="16.927083333333332mm" y="0.0mm"
      width="0.3255208333333333mm" height="25.0mm"
      fill="#000000" stroke="none" />
<rect x="17.252604166666664mm" y="0.0mm"
      width="0.3255208333333333mm" height="25.0mm"
      fill="#000000" stroke="none" />
<rect x="17.578125mm" y="0.0mm"
      width="0.3255208333333333mm" height="25.0mm"
      fill="#000000" stroke="none" />
<rect x="17.903645833333332mm" y="0.0mm"
      width="0.3255208333333333mm" height="25.0mm"
      fill="#000000" stroke="none" />
<rect x="18.229166666666664mm" y="0.0mm"
      width="0.3255208333333333mm" height="25.0mm"
      fill="#000000" stroke="none" />
<rect x="18.5546875mm" y="0.0mm"
      width="0.3255208333333333mm" height="25.0mm"
      fill="#000000" stroke="none" />
<rect x="18.880208333333332mm" y="0.0mm"
      width="0.3255208333333333mm" height="25.0mm"
      fill="#000000" stroke="none" />
<rect x="19.205729166666664mm" y="0.0mm"
      width="0.3255208333333333mm" height="25.0mm"
      fill="#000000" stroke="none" />
<rect x="19.53125mm" y="0.0mm"
      width="0.3255208333333333mm" height="25.0mm"
      fill="#000000" stroke="none" />
<rect x="19.856770833333332mm" y="0.0mm"
      width="0.3255208333333333mm" height="25.0mm"
      fill="#000000" stroke="none" />
<rect x="20.182291666666664mm" y="0.0mm"
      width="0.3255208333333333mm" height="25.0mm"
      fill="#000000" stroke="none" />
<rect x="20.5078125mm" y="0.0mm"
      width="0.3255208333333333mm" height="25.0mm"
      fill="#000000" stroke="none" />
<rect x="20.833333333333332mm" y="0.0mm"
      width="0.3255208333333333mm" height="25.0mm"
      fill="#000000" stroke="none" />
<rect x="21.158854166666664mm" y="0.0mm"
      width="0.3255208333333333mm" height="25.0mm"
      fill="#000000" stroke="none" />
<rect x="21.484375mm" y="0.0mm"
      width="0.3255208333333333mm" height="25.0mm"
      fill="#000000" stroke="none" />
<rect x="21.809895833333332mm" y="0.0mm"
      width="0.3255208333333333mm" height="25.0mm"
      fill="#000000" stroke="none" />
<rect x="22.135416666666664mm" y="0.0mm"
      width="0.3255208333333333mm" height="25.0mm"
      fill="#000000" stroke="none" />
<rect x="22.4609375mm" y="0.0mm"
      width="0.3255208333333333mm" height="25.0mm"
      fill="#000000" stroke="none" />
<rect x="22.786458333333332mm" y="0.0mm"
      width="0.3255208333333333mm" height="25.0mm"
      fill="#000000" stroke="none" />
<rect x="23.111979166666664mm" y="0.0mm"
      width="0.3255208333333333mm" height="25.0mm"
      fill="#000000" stroke="none" />
<rect x="23.4375mm" y="0.0mm"
      width="0.3255208333333333mm" height="25.0mm"
      fill="#000000" stroke="none" />
<rect x="23.763020833333332mm" y="0.0mm"
      width="0.3255208333333333mm" height="25.0mm"
      fill="#000000" stroke="none" />
<rect x="24.088541666666664mm" y="0.0mm"
      width="0.3255208333333333mm" height="25.0mm"
      fill="#000000" stroke="none" />
<rect x="24.4140625mm" y="0.0mm"
      width="0.3255208333333333mm" height="25.0mm"
      fill="#000000" stroke="none" />
<rect x="24.739583333333332mm" y="0.0mm"
      width="0.3255208333333333mm" height="25.0mm"
      fill="#000000" stroke="none" />
<rect x="25.065104166666664mm" y="0.0mm"
      width="0.3255208333333333mm" height="25.0mm"
      fill="#000000" stroke="none" />
<rect x="25.390625mm" y="0.0mm"
      width="0.3255208333333333mm" height="25.0mm"
      fill="#000000" stroke="none" />
<rect x="25.716145833333332mm" y="0.0mm"
      width="0.3255208333333333mm" height="25.0mm"
      fill="#000000" stroke="none" />
<rect x="26.041666666666664mm" y="0.0mm"
      width="0.3255208333333333mm" height="25.0mm"
      fill="#000000" stroke="none" />
<rect x="26.3671875mm" y="0.0mm"
      width="0.3255208333333333mm" height="25.0mm"
      fill="#000000" stroke="none" />
<rect x="26.692708333333332mm" y="0.0mm"
      width="0.3255208333333333mm" height="25.0mm"
      fill="#000000" stroke="none" />
<rect x="27.018229166666664mm" y="0.0mm"
      width="0.3255208333333333mm" height="25.0mm"
      fill="#000000" stroke="none" />
<rect x="27.34375mm" y="0.0mm"
      width="0.3255208333333333mm" height="25.0mm"
      fill="#000000" stroke="none" />
<rect x="27.669270833333332mm" y="0.0mm"
      width="0.3255208333333333mm" height="25.0mm"
      fill="#000000" stroke="none" />
<rect x="27.994791666666664mm" y="0.0mm"
      width="0.3255208333333333mm" height="25.0mm"
      fill="#000000" stroke="none" />
<rect x="28.3203125mm" y="0.0mm"
      width="0.3255208333333333mm" height="25.0mm"
      fill="#000000" stroke="none" />
<rect x="28.645833333333332mm" y="0.0mm"
      width="0.3255208333333333mm" height="25.0mm"
      fill="#000000" stroke="none" />
<rect x="28.971354166666664mm" y="0.0mm"
      width="0.3255208333333333mm" height="25.0mm"
      fill="#000000" stroke="none" />
<rect x="29.296875mm" y="0.0mm"
      width="0.3255208333333333mm" height="25.0mm"
      fill="#000000" stroke="none" />
<rect x="29.622395833333332mm" y="0.0mm"
      width="0.3255208333333333mm" height="25.0mm"
      fill="#000000" stroke="none" />
<rect x="29.947916666666664mm" y="0.0mm"
      width="0.3255208333333333mm" height="25.0mm"
      fill="#000000" stroke="none" />
<rect x="30.2734375mm" y="0.0mm"
      width="0.3255208333333333mm" height="25.0mm"
      fill="#000000" stroke="none" />
<rect x="30.598958333333332mm" y="0.0mm"
      width="0.3255208333333333mm" height="25.0mm"
      fill="#000000" stroke="none" />
<rect x="30.924479166666664mm" y="0.0mm"
      width="0.3255208333333333mm" height="25.0mm"
      fill="#000000" stroke="none" />
<rect x="31.25mm" y="0.0mm"
      width="0.3255208333333333mm" height="25.0mm"
      fill="#000000" stroke="none" />
<rect x="31.575520833333332mm" y="0.0mm"
      width="0.3255208333333333mm" height="25.0mm"
      fill="#000000" stroke="none" />
<rect x="31.901041666666664mm" y="0.0mm"
      width="0.3255208333333333mm" height="25.0mm"
      fill="#000000" stroke="none" />
<rect x="32.2265625mm" y="0.0mm"
      width="0.3255208333333333mm" height="25.0mm"
      fill="#000000" stroke="none" />
<rect x="32.55208333333333mm" y="0.0mm"
      width="0.3255208333333333mm" height="25.0mm"
      fill="#000000" stroke="none" />
<rect x="32.877604166666664mm" y="0.0mm"
      width="0.3255208333333333mm" height="25.0mm"
      fill="#000000" stroke="none" />
<rect x="33.203125mm" y="0.0mm"
      width="0.3255208333333333mm" height="25.0mm"
      fill="#000000" stroke="none" />
<rect x="33.52864583333333mm" y="0.0mm"
      width="0.3255208333333333mm" height="25.0mm"
      fill="#000000" stroke="none" />
<rect x="33.854166666666664mm" y="0.0mm"
      width="0.3255208333333333mm" height="25.0mm"
      fill="#000000" stroke="none" />
<rect x="34.1796875mm" y="0.0mm"
      width="0.3255208333333333mm" height="25.0mm"
      fill="#000000" stroke="none" />
<rect x="34.50520833333333mm" y="0.0mm"
      width="0.3255208333333333mm" height="25.0mm"
      fill="#000000" stroke="none" />
<rect x="34.830729166666664mm" y="0.0mm"
      width="0.3255208333333333mm" height="25.0mm"
      fill="#000000" stroke="none" />
<rect x="35.15625mm" y="0.0mm"
      width="0.3255208333333333mm" height="25.0mm"
      fill="#000000" stroke="none" />
<rect x="35.48177083333333mm" y="0.0mm"
      width="0.3255208333333333mm" height="25.0mm"
      fill="#000000" stroke="none" />
<rect x="35.807291666666664mm" y="0.0mm"
      width="0.3255208333333333mm" height="25.0mm"
      fill="#000000" stroke="none" />
<rect x="36.1328125mm" y="0.0mm"
      width="0.3255208333333333mm" height="25.0mm"
      fill="#000000" stroke="none" />
<rect x="36.45833333333333mm" y="0.0mm"
      width="0.3255208333333333mm" height="25.0mm"
      fill="#000000" stroke="none" />
<rect x="36.783854166666664mm" y="0.0mm"
      width="0.3255208333333333mm" height="25.0mm"
      fill="#000000" stroke="none" />
<rect x="37.109375mm" y="0.0mm"
      width="0.3255208333333333mm" height="25.0mm"
      fill="#000000" stroke="none" />
<rect x="37.43489583333333mm" y="0.0mm"
      width="0.3255208333333333mm" height="25.0mm"
      fill="#000000" stroke="none" />
<rect x="37.760416666666664mm" y="0.0mm"
      width="0.3255208333333333mm" height="25.0mm"
      fill="#000000" stroke="none" />
<rect x="38.0859375mm" y="0.0mm"
      width="0.3255208333333333mm" height="25.0mm"
      fill="#000000" stroke="none" />
<rect x="38.41145833333333mm" y="0.0mm"
      width="0.3255208333333333mm" height="25.0mm"
      fill="#000000" stroke="none" />
<rect x="38.736979166666664mm" y="0.0mm"
      width="0.3255208333333333mm" height="25.0mm"
      fill="#000000" stroke="none" />
<rect x="39.0625mm" y="0.0mm"
      width="0.3255208333333333mm" height="25.0mm"
      fill="#000000" stroke="none" />
<rect x="39.38802083333333mm" y="0.0mm"
      width="0.3255208333333333mm" height="25.0mm"
      fill="#000000" stroke="none" />
<rect x="39.713541666666664mm" y="0.0mm"
      width="0.3255208333333333mm" height="25.0mm"
      fill="#000000" stroke="none" />
<rect x="40.0390625mm" y="0.0mm"
      width="0.3255208333333333mm" height="25.0mm"
      fill="#000000" stroke="none" />
<rect x="40.36458333333333mm" y="0.0mm"
      width="0.3255208333333333mm" height="25.0mm"
      fill="#000000" stroke="none" />
<rect x="40.690104166666664mm" y="0.0mm"
      width="0.3255208333333333mm" height="25.0mm"
      fill="#000000" stroke="none" />
<rect x="41.015625mm" y="0.0mm"
      width="0.3255208333333333mm" height="25.0mm"
      fill="#000000" stroke="none" />
<rect x="41.34114583333333mm" y="0.0mm"
      width="0.3255208333333333mm" height="25.0mm"
      fill="#000000" stroke="none" />
<rect x="41.666666666666664mm" y="0.0mm"
      width="0.3255208333333333mm" height="25.0mm"
      fill="#000000" stroke="none" />
<rect x="41.9921875mm" y="0.0mm"
      width="0.3255208333333333mm" height="25.0mm"
      fill="#000000" stroke="none" />
<rect x="42.31770833333333mm" y="0.0mm"
      width="0.3255208333333333mm" height="25.0mm"
      fill="#000000" stroke="none" />
<rect x="42.643229166666664mm" y="0.0mm"
      width="0.3255208333333333mm" height="25.0mm"
      fill="#000000" stroke="none" />
<rect x="42.96875mm" y="0.0mm"
      width="0.3255208333333333mm" height="25.0mm"
      fill="#000000" stroke="none" />
<rect x="43.29427083333333mm" y="0.0mm"
      width="0.3255208333333333mm" height="25.0mm"
      fill="#000000" stroke="none" />
<rect x="43.619791666666664mm" y="0.0mm"
      width="0.3255208333333333mm" height="25.0mm"
      fill="#000000" stroke="none" />
<rect x="43.9453125mm" y="0.0mm"
      width="0.3255208333333333mm" height="25.0mm"
      fill="#000000" stroke="none" />
<rect x="44.27083333333333mm" y="0.0mm"
      width="0.3255208333333333mm" height="25.0mm"
      fill="#000000" stroke="none" />
<rect x="44.596354166666664mm" y="0.0mm"
      width="0.3255208333333333mm" height="25.0mm"
      fill="#000000" stroke="none" />
<rect x="44.921875mm" y="0.0mm"
      width="0.3255208333333333mm" height="25.0mm"
      fill="#000000" stroke="none" />
<rect x="45.24739583333333mm" y="0.0mm"
      width="0.3255208333333333mm" height="25.0mm"
      fill="#000000" stroke="none" />
<rect x="45.572916666666664mm" y="0.0mm"
      width="0.3255208333333333mm" height="25.0mm"
      fill="#000000" stroke="none" />
<rect x="45.8984375mm" y="0.0mm"
      width="0.3255208333333333mm" height="25.0mm"
      fill="#000000" stroke="none" />
<rect x="46.22395833333333mm" y="0.0mm"
      width="0.3255208333333333mm" height="25.0mm"
      fill="#000000" stroke="none" />
<rect x="46.549479166666664mm" y="0.0mm"
      width="0.3255208333333333mm" height="25.0mm"
      fill="#000000" stroke="none" />
<rect x="46.875mm" y="0.0mm"
      width="0.3255208333333333mm" height="25.0mm"
      fill="#000000" stroke="none" />
<rect x="47.20052083333333mm" y="0.0mm"
      width="0.3255208333333333mm" height="25.0mm"
      fill="#000000" stroke="none" />
<rect x="47.526041666666664mm" y="0.0mm"
      width="0.3255208333333333mm" height="25.0mm"
      fill="#000000" stroke="none" />
<rect x="47.8515625mm" y="0.0mm"
      width="0.3255208333333333mm" height="25.0mm"
      fill="#000000" stroke="none" />
<rect x="48.17708333333333mm" y="0.0mm"
      width="0.3255208333333333mm" height="25.0mm"
      fill="#000000" stroke="none" />
<rect x="48.502604166666664mm" y="0.0mm"
      width="0.3255208333333333mm" height="25.0mm"
      fill="#000000" stroke="none" />
<rect x="48.828125mm" y="0.0mm"
      width="0.3255208333333333mm" height="25.0mm"
      fill="#000000" stroke="none" />
<rect x="49.15364583333333mm" y="0.0mm"
      width="0.3255208333333333mm" height="25.0mm"
      fill="#000000" stroke="none" />
<rect x="49.479166666666664mm" y="0.0mm"
      width="0.3255208333333333mm" height="25.0mm"
      fill="#000000" stroke="none" />
<rect x="49.8046875mm" y="0.0mm"
      width="0.3255208333333333mm" height="25.0mm"
      fill="#000000" stroke="none" />
<rect x="50.13020833333333mm" y="0.0mm"
      width="0.3255208333333333mm" height="25.0mm"
      fill="#000000" stroke="none" />
<rect x="50.455729166666664mm" y="0.0mm"
      width="0.3255208333333333mm" height="25.0mm"
      fill="#000000" stroke="none" />
<rect x="50.78125mm" y="0.0mm"
      width="0.3255208333333333mm" height="25.0mm"
      fill="#000000" stroke="none" />
<rect x="51.10677083333333mm" y="0.0mm"
      width="0.3255208333333333mm" height="25.0mm"
      fill="#000000" stroke="none" />
<rect x="51.432291666666664mm" y="0.0mm"
      width="0.3255208333333333mm" height="25.0mm"
      fill="#000000" stroke="none" />
<rect x="51.7578125mm" y="0.0mm"
      width="0.3255208333333333mm" height="25.0mm"
      fill="#000000" stroke="none" />
<rect x="52.08333333333333mm" y="0.0mm"
      width="0.3255208333333333mm" height="25.0mm"
      fill="#000000" stroke="none" />
<rect x="52.408854166666664mm" y="0.0mm"
      width="0.3255208333333333mm" height="25.0mm"
      fill="#000000" stroke="none" />
<rect x="52.734375mm" y="0.0mm"
      width="0.3255208333333333mm" height="25.0mm"
      fill="#000000" stroke="none" />
<rect x="53.05989583333333mm" y="0.0mm"
      width="0.3255208333333333mm" height="25.0mm"
      fill="#000000" stroke="none" />
<rect x="53.385416666666664mm" y="0.0mm"
      width="0.3255208333333333mm" height="25.0mm"
      fill="#000000" stroke="none" />
<rect x="53.7109375mm" y="0.0mm"
      width="0.3255208333333333mm" height="25.0mm"
      fill="#000000" stroke="none" />
<rect x="54.03645833333333mm" y="0.0mm"
      width="0.3255208333333333mm" height="25.0mm"
      fill="#000000" stroke="none" />
<rect x="54.361979166666664mm" y="0.0mm"
      width="0.3255208333333333mm" height="25.0mm"
      fill="#000000" stroke="none" />
<rect x="54.6875mm" y="0.0mm"
      width="0.3255208333333333mm" height="25.0mm"
      fill="#000000" stroke="none" />
<rect x="55.01302083333333mm" y="0.0mm"
      width="0.3255208333333333mm" height="25.0mm"
      fill="#000000" stroke="none" />
<rect x="55.338541666666664mm" y="0.0mm"
      width="0.3255208333333333mm" height="25.0mm"
      fill="#000000" stroke="none" />
<rect x="55.6640625mm" y="0.0mm"
      width="0.3255208333333333mm" height="25.0mm"
      fill="#000000" stroke="none" />
<rect x="55.98958333333333mm" y="0.0mm"
      width="0.3255208333333333mm" height="25.0mm"
      fill="#000000" stroke="none" />
<rect x="56.315104166666664mm" y="0.0mm"
      width="0.3255208333333333mm" height="25.0mm"
      fill="#000000" stroke="none" />
<rect x="56.640625mm" y="0.0mm"
      width="0.3255208333333333mm" height="25.0mm"
      fill="#000000" stroke="none" />
<rect x="56.96614583333333mm" y="0.0mm"
      width="0.3255208333333333mm" height="25.0mm"
      fill="#000000" stroke="none" />
<rect x="57.291666666666664mm" y="0.0mm"
      width="0.3255208333333333mm" height="25.0mm"
      fill="#000000" stroke="none" />
<rect x="57.6171875mm" y="0.0mm"
      width="0.3255208333333333mm" height="25.0mm"
      fill="#000000" stroke="none" />
<rect x="57.94270833333333mm" y="0.0mm"
      width="0.3255208333333333mm" height="25.0mm"
      fill="#000000" stroke="none" />
<rect x="58.268229166666664mm" y="0.0mm"
      width="0.3255208333333333mm" height="25.0mm"
      fill="#000000" stroke="none" />
<rect x="58.59375mm" y="0.0mm"
      width="0.3255208333333333mm" height="25.0mm"
      fill="#000000" stroke="none" />
<rect x="58.91927083333333mm" y="0.0mm"
      width="0.3255208333333333mm" height="25.0mm"
      fill="#000000" stroke="none" />
<rect x="59.244791666666664mm" y="0.0mm"
      width="0.3255208333333333mm" height="25.0mm"
      fill="#000000" stroke="none" />
<rect x="59.5703125mm" y="0.0mm"
      width="0.3255208333333333mm" height="25.0mm"
      fill="#000000" stroke="none" />
<rect x="59.89583333333333mm" y="0.0mm"
      width="0.3255208333333333mm" height="25.0mm"
      fill="#000000" stroke="none" />
<rect x="60.221354166666664mm" y="0.0mm"
      width="0.3255208333333333mm" height="25.0mm"
      fill="#000000" stroke="none" />
<rect x="60.546875mm" y="0.0mm"
      width="0.3255208333333333mm" height="25.0mm"
      fill="#000000" stroke="none" />
<rect x="60.87239583333333mm" y="0.0mm"
      width="0.3255208333333333mm" height="25.0mm"
      fill="#000000" stroke="none" />
<rect x="61.197916666666664mm" y="0.0mm"
      width="0.3255208333333333mm" height="25.0mm"
      fill="#000000" stroke="none" />
<rect x="61.5234375mm" y="0.0mm"
      width="0.3255208333333333mm" height="25.0mm"
      fill="#000000" stroke="none" />
<rect x="61.84895833333333mm" y="0.0mm"
      width="0.3255208333333333mm" height="25.0mm"
      fill="#000000" stroke="none" />
<rect x="62.174479166666664mm" y="0.0mm"
      width="0.3255208333333333mm" height="25.0mm"
      fill="#000000" stroke="none" />
<rect x="62.5mm" y="0.0mm"
      width="0.3255208333333333mm" height="25.0mm"
      fill="#000000" stroke="none" />
<rect x="62.82552083333333mm" y="0.0mm"
      width="0.3255208333333333mm" height="25.0mm"
      fill="#000000" stroke="none" />
<rect x="63.151041666666664mm" y="0.0mm"
      width="0.3255208333333333mm" height="25.0mm"
      fill="#000000" stroke="none" />
<rect x="63.47656249999999mm" y="0.0mm"
      width="0.3255208333333333mm" height="25.0mm"
      fill="#000000" stroke="none" />
<rect x="63.80208333333333mm" y="0.0mm"
      width="0.3255208333333333mm" height="25.0mm"
      fill="#000000" stroke="none" />
<rect x="64.12760416666666mm" y="0.0mm"
      width="0.3255208333333333mm" height="25.0mm"
      fill="#000000" stroke="none" />
<rect x="64.453125mm" y="0.0mm"
      width="0.3255208333333333mm" height="25.0mm"
      fill="#000000" stroke="none" />
<rect x="64.77864583333333mm" y="0.0mm"
      width="0.3255208333333333mm" height="25.0mm"
      fill="#000000" stroke="none" />
<rect x="65.10416666666666mm" y="0.0mm"
      width="0.3255208333333333mm" height="25.0mm"
      fill="#000000" stroke="none" />
<rect x="65.4296875mm" y="0.0mm"
      width="0.3255208333333333mm" height="25.0mm"
      fill="#000000" stroke="none" />
<rect x="65.75520833333333mm" y="0.0mm"
      width="0.3255208333333333mm" height="25.0mm"
      fill="#000000" stroke="none" />
<rect x="66.08072916666666mm" y="0.0mm"
      width="0.3255208333333333mm" height="25.0mm"
      fill="#000000" stroke="none" />
<rect x="66.40625mm" y="0.0mm"
      width="0.3255208333333333mm" height="25.0mm"
      fill="#000000" stroke="none" />
<rect x="66.73177083333333mm" y="0.0mm"
      width="0.3255208333333333mm" height="25.0mm"
      fill="#000000" stroke="none" />
<rect x="67.05729166666666mm" y="0.0mm"
      width="0.3255208333333333mm" height="25.0mm"
      fill="#000000" stroke="none" />
<rect x="67.3828125mm" y="0.0mm"
      width="0.3255208333333333mm" height="25.0mm"
      fill="#000000" stroke="none" />
<rect x="67.70833333333333mm" y="0.0mm"
      width="0.3255208333333333mm" height="25.0mm"
      fill="#000000" stroke="none" />
<rect x="68.03385416666666mm" y="0.0mm"
      width="0.3255208333333333mm" height="25.0mm"
      fill="#000000" stroke="none" />
<rect x="68.359375mm" y="0.0mm"
      width="0.3255208333333333mm" height="25.0mm"
      fill="#000000" stroke="none" />
<rect x="68.68489583333333mm" y="0.0mm"
      width="0.3255208333333333mm" height="25.0mm"
      fill="#000000" stroke="none" />
<rect x="69.01041666666666mm" y="0.0mm"
      width="0.3255208333333333mm" height="25.0mm"
      fill="#000000" stroke="none" />
<rect x="69.3359375mm" y="0.0mm"
      width="0.3255208333333333mm" height="25.0mm"
      fill="#000000" stroke="none" />
<rect x="69.66145833333333mm" y="0.0mm"
      width="0.3255208333333333mm" height="25.0mm"
      fill="#000000" stroke="none" />
<rect x="69.98697916666666mm" y="0.0mm"
      width="0.3255208333333333mm" height="25.0mm"
      fill="#000000" stroke="none" />
<rect x="70.3125mm" y="0.0mm"
      width="0.3255208333333333mm" height="25.0mm"
      fill="#000000" stroke="none" />
<rect x="70.63802083333333mm" y="0.0mm"
      width="0.3255208333333333mm" height="25.0mm"
      fill="#000000" stroke="none" />
<rect x="70.96354166666666mm" y="0.0mm"
      width="0.3255208333333333mm" height="25.0mm"
      fill="#000000" stroke="none" />
<rect x="71.2890625mm" y="0.0mm"
      width="0.3255208333333333mm" height="25.0mm"
      fill="#000000" stroke="none" />
<rect x="71.61458333333333mm" y="0.0mm"
      width="0.3255208333333333mm" height="25.0mm"
      fill="#000000" stroke="none" />
<rect x="71.94010416666666mm" y="0.0mm"
      width="0.3255208333333333mm" height="25.0mm"
      fill="#000000" stroke="none" />
<rect x="72.265625mm" y="0.0mm"
      width="0.3255208333333333mm" height="25.0mm"
      fill="#000000" stroke="none" />
<rect x="72.59114583333333mm" y="0.0mm"
      width="0.3255208333333333mm" height="25.0mm"
      fill="#000000" stroke="none" />
<rect x="72.91666666666666mm" y="0.0mm"
      width="0.3255208333333333mm" height="25.0mm"
      fill="#000000" stroke="none" />
<rect x="73.2421875mm" y="0.0mm"
      width="0.3255208333333333mm" height="25.0mm"
      fill="#000000" stroke="none" />
<rect x="73.56770833333333mm" y="0.0mm"
      width="0.3255208333333333mm" height="25.0mm"
      fill="#000000" stroke="none" />
<rect x="73.89322916666666mm" y="0.0mm"
      width="0.3255208333333333mm" height="25.0mm"
      fill="#000000" stroke="none" />
<rect x="74.21875mm" y="0.0mm"
      width="0.3255208333333333mm" height="25.0mm"
      fill="#000000" stroke="none" />
<rect x="74.54427083333333mm" y="0.0mm"
      width="0.3255208333333333mm" height="25.0mm"
      fill="#000000" stroke="none" />
<rect x="74.86979166666666mm" y="0.0mm"
      width="0.3255208333333333mm" height="25.0mm"
      fill="#000000" stroke="none" />
<rect x="75.1953125mm" y="0.0mm"
      width="0.3255208333333333mm" height="25.0mm"
      fill="#000000" stroke="none" />
<rect x="75.52083333333333mm" y="0.0mm"
      width="0.3255208333333333mm" height="25.0mm"
      fill="#000000" stroke="none" />
<rect x="75.84635416666666mm" y="0.0mm"
      width="0.3255208333333333mm" height="25.0mm"
      fill="#000000" stroke="none" />
<rect x="76.171875mm" y="0.0mm"
      width="0.3255208333333333mm" height="25.0mm"
      fill="#000000" stroke="none" />
<rect x="76.49739583333333mm" y="0.0mm"
      width="0.3255208333333333mm" height="25.0mm"
      fill="#000000" stroke="none" />
<rect x="76.82291666666666mm" y="0.0mm"
      width="0.3255208333333333mm" height="25.0mm"
      fill="#000000" stroke="none" />
<rect x="77.1484375mm" y="0.0mm"
      width="0.3255208333333333mm" height="25.0mm"
      fill="#000000" stroke="none" />
<rect x="77.47395833333333mm" y="0.0mm"
      width="0.3255208333333333mm" height="25.0mm"
      fill="#000000" stroke="none" />
<rect x="77.79947916666666mm" y="0.0mm"
      width="0.3255208333333333mm" height="25.0mm"
      fill="#000000" stroke="none" />
<rect x="78.125mm" y="0.0mm"
      width="0.3255208333333333mm" height="25.0mm"
      fill="#000000" stroke="none" />
<rect x="78.45052083333333mm" y="0.0mm"
      width="0.3255208333333333mm" height="25.0mm"
      fill="#000000" stroke="none" />
<rect x="78.77604166666666mm" y="0.0mm"
      width="0.3255208333333333mm" height="25.0mm"
      fill="#000000" stroke="none" />
<rect x="79.1015625mm" y="0.0mm"
      width="0.3255208333333333mm" height="25.0mm"
      fill="#000000" stroke="none" />
<rect x="79.42708333333333mm" y="0.0mm"
      width="0.3255208333333333mm" height="25.0mm"
      fill="#000000" stroke="none" />
<rect x="79.75260416666666mm" y="0.0mm"
      width="0.3255208333333333mm" height="25.0mm"
      fill="#000000" stroke="none" />
<rect x="80.078125mm" y="0.0mm"
      width="0.3255208333333333mm" height="25.0mm"
      fill="#000000" stroke="none" />
<rect x="80.40364583333333mm" y="0.0mm"
      width="0.3255208333333333mm" height="25.0mm"
      fill="#000000" stroke="none" />
<rect x="80.72916666666666mm" y="0.0mm"
      width="0.3255208333333333mm" height="25.0mm"
      fill="#000000" stroke="none" />
<rect x="81.0546875mm" y="0.0mm"
      width="0.3255208333333333mm" height="25.0mm"
      fill="#000000" stroke="none" />
<rect x="81.38020833333333mm" y="0.0mm"
      width="0.3255208333333333mm" height="25.0mm"
      fill="#000000" stroke="none" />
<rect x="81.70572916666666mm" y="0.0mm"
      width="0.3255208333333333mm" height="25.0mm"
      fill="#000000" stroke="none" />
<rect x="82.03125mm" y="0.0mm"
      width="0.3255208333333333mm" height="25.0mm"
      fill="#000000" stroke="none" />
<rect x="82.35677083333333mm" y="0.0mm"
      width="0.3255208333333333mm" height="25.0mm"
      fill="#000000" stroke="none" />
<rect x="82.68229166666666mm" y="0.0mm"
      width="0.3255208333333333mm" height="25.0mm"
      fill="#000000" stroke="none" />
<rect x="83.0078125mm" y="0.0mm"
      width="0.3255208333333333mm" height="25.0mm"
      fill="#000000" stroke="none" />
<rect x="83.33333333333333mm" y="0.0mm"
      width="0.3255208333333333mm" height="25.0mm"
      fill="#000000" stroke="none" />
<rect x="83.65885416666666mm" y="0.0mm"
      width="0.3255208333333333mm" height="25.0mm"
      fill="#000000" stroke="none" />
<rect x="83.984375mm" y="0.0mm"
      width="0.3255208333333333mm" height="25.0mm"
      fill="#000000" stroke="none" />
<rect x="84.30989583333333mm" y="0.0mm"
      width="0.3255208333333333mm" height="25.0mm"
      fill="#000000" stroke="none" />
<rect x="84.63541666666666mm" y="0.0mm"
      width="0.3255208333333333mm" height="25.0mm"
      fill="#000000" stroke="none" />
<rect x="84.9609375mm" y="0.0mm"
      width="0.3255208333333333mm" height="25.0mm"
      fill="#000000" stroke="none" />
<rect x="85.28645833333333mm" y="0.0mm"
      width="0.3255208333333333mm" height="25.0mm"
      fill="#000000" stroke="none" />
<rect x="85.61197916666666mm" y="0.0mm"
      width="0.3255208333333333mm" height="25.0mm"
      fill="#000000" stroke="none" />
<rect x="85.9375mm" y="0.0mm"
      width="0.3255208333333333mm" height="25.0mm"
      fill="#000000" stroke="none" />
<rect x="86.26302083333333mm" y="0.0mm"
      width="0.3255208333333333mm" height="25.0mm"
      fill="#000000" stroke="none" />
<rect x="86.58854166666666mm" y="0.0mm"
      width="0.3255208333333333mm" height="25.0mm"
      fill="#000000" stroke="none" />
<rect x="86.9140625mm" y="0.0mm"
      width="0.3255208333333333mm" height="25.0mm"
      fill="#000000" stroke="none" />
<rect x="87.23958333333333mm" y="0.0mm"
      width="0.3255208333333333mm" height="25.0mm"
      fill="#000000" stroke="none" />
<rect x="87.56510416666666mm" y="0.0mm"
      width="0.3255208333333333mm" height="25.0mm"
      fill="#000000" stroke="none" />
<rect x="87.890625mm" y="0.0mm"
      width="0.3255208333333333mm" height="25.0mm"
      fill="#000000" stroke="none" />
<rect x="88.21614583333333mm" y="0.0mm"
      width="0.3255208333333333mm" height="25.0mm"
      fill="#000000" stroke="none" />
<rect x="88.54166666666666mm" y="0.0mm"
      width="0.3255208333333333mm" height="25.0mm"
      fill="#000000" stroke="none" />
<rect x="88.8671875mm" y="0.0mm"
      width="0.3255208333333333mm" height="25.0mm"
      fill="#000000" stroke="none" />
<rect x="89.19270833333333mm" y="0.0mm"
      width="0.3255208333333333mm" height="25.0mm"
      fill="#000000" stroke="none" />
<rect x="89.51822916666666mm" y="0.0mm"
      width="0.3255208333333333mm" height="25.0mm"
      fill="#000000" stroke="none" />
<rect x="89.84375mm" y="0.0mm"
      width="0.3255208333333333mm" height="25.0mm"
      fill="#000000" stroke="none" />
<rect x="90.16927083333333mm" y="0.0mm"
      width="0.3255208333333333mm" height="25.0mm"
      fill="#000000" stroke="none" />
<rect x="90.49479166666666mm" y="0.0mm"
      width="0.3255208333333333mm" height="25.0mm"
      fill="#000000" stroke="none" />
<rect x="90.8203125mm" y="0.0mm"
      width="0.3255208333333333mm" height="25.0mm"
      fill="#000000" stroke="none" />
<rect x="91.14583333333333mm" y="0.0mm"
      width="0.3255208333333333mm" height="25.0mm"
      fill="#000000" stroke="none" />
<rect x="91.47135416666666mm" y="0.0mm"
      width="0.3255208333333333mm" height="25.0mm"
      fill="#000000" stroke="none" />
<rect x="91.796875mm" y="0.0mm"
      width="0.3255208333333333mm" height="25.0mm"
      fill="#000000" stroke="none" />
<rect x="92.12239583333333mm" y="0.0mm"
      width="0.3255208333333333mm" height="25.0mm"
      fill="#000000" stroke="none" />
<rect x="92.44791666666666mm" y="0.0mm"
      width="0.3255208333333333mm" height="25.0mm"
      fill="#000000" stroke="none" />
<rect x="92.7734375mm" y="0.0mm"
      width="0.3255208333333333mm" height="25.0mm"
      fill="#000000" stroke="none" />
<rect x="93.09895833333333mm" y="0.0mm"
      width="0.3255208333333333mm" height="25.0mm"
      fill="#000000" stroke="none" />
<rect x="93.42447916666666mm" y="0.0mm"
      width="0.3255208333333333mm" height="25.0mm"
      fill="#000000" stroke="none" />
<rect x="93.75mm" y="0.0mm"
      width="0.3255208333333333mm" height="25.0mm"
      fill="#000000" stroke="none" />
<rect x="94.07552083333333mm" y="0.0mm"
      width="0.3255208333333333mm" height="25.0mm"
      fill="#000000" stroke="none" />
<rect x="94.40104166666666mm" y="0.0mm"
      width="0.3255208333333333mm" height="25.0mm"
      fill="#000000" stroke="none" />
<rect x="94.7265625mm" y="0.0mm"
      width="0.3255208333333333mm" height="25.0mm"
      fill="#000000" stroke="none" />
<rect x="95.05208333333333mm" y="0.0mm"
      width="0.3255208333333333mm" height="25.0mm"
      fill="#000000" stroke="none" />
<rect x="95.37760416666666mm" y="0.0mm"
      width="0.3255208333333333mm" height="25.0mm"
      fill="#000000" stroke="none" />
<rect x="95.703125mm" y="0.0mm"
      width="0.3255208333333333mm" height="25.0mm"
      fill="#000000" stroke="none" />
<rect x="96.02864583333333mm" y="0.0mm"
      width="0.3255208333333333mm" height="25.0mm"
      fill="#000000" stroke="none" />
<rect x="96.35416666666666mm" y="0.0mm"
      width="0.3255208333333333mm" height="25.0mm"
      fill="#000000" stroke="none" />
<rect x="96.6796875mm" y="0.0mm"
      width="0.3255208333333333mm" height="25.0mm"
      fill="#000000" stroke="none" />
<rect x="97.00520833333333mm" y="0.0mm"
      width="0.3255208333333333mm" height="25.0mm"
      fill="#000000" stroke="none" />
<rect x="97.33072916666666mm" y="0.0mm"
      width="0.3255208333333333mm" height="25.0mm"
      fill="#000000" stroke="none" />
<rect x="97.65625mm" y="0.0mm"
      width="0.3255208333333333mm" height="25.0mm"
      fill="#000000" stroke="none" />
<rect x="97.98177083333333mm" y="0.0mm"
      width="0.3255208333333333mm" height="25.0mm"
      fill="#000000" stroke="none" />
<rect x="98.30729166666666mm" y="0.0mm"
      width="0.3255208333333333mm" height="25.0mm"
      fill="#000000" stroke="none" />
<rect x="98.6328125mm" y="0.0mm"
      width="0.3255208333333333mm" height="25.0mm"
      fill="#000000" stroke="none" />
<rect x="98.95833333333333mm" y="0.0mm"
      width="0.3255208333333333mm" height="25.0mm"
      fill="#000000" stroke="none" />
<rect x="99.28385416666666mm" y="0.0mm"
      width="0.3255208333333333mm" height="25.0mm"
      fill="#000000" stroke="none" />
<rect x="99.609375mm" y="0.0mm"
      width="0.3255208333333333mm" height="25.0mm"
      fill="#000000" stroke="none" />
<rect x="99.93489583333333mm" y="0.0mm"
      width="0.3255208333333333mm" height="25.0mm"
      fill="#000000" stroke="none" />
<rect x="100.26041666666666mm" y="0.0mm"
      width="0.3255208333333333mm" height="25.0mm"
      fill="#000000" stroke="none" />
<rect x="100.5859375mm" y="0.0mm"
      width="0.3255208333333333mm" height="25.0mm"
      fill="#000000" stroke="none" />
<rect x="100.91145833333333mm" y="0.0mm"
      width="0.3255208333333333mm" height="25.0mm"
      fill="#000000" stroke="none" />
<rect x="101.23697916666666mm" y="0.0mm"
      width="0.3255208333333333mm" height="25.0mm"
      fill="#000000" stroke="none" />
<rect x="101.5625mm" y="0.0mm"
      width="0.3255208333333333mm" height="25.0mm"
      fill="#000000" stroke="none" />
<rect x="101.88802083333333mm" y="0.0mm"
      width="0.3255208333333333mm" height="25.0mm"
      fill="#000000" stroke="none" />
<rect x="102.21354166666666mm" y="0.0mm"
      width="0.3255208333333333mm" height="25.0mm"
      fill="#000000" stroke="none" />
<rect x="102.5390625mm" y="0.0mm"
      width="0.3255208333333333mm" height="25.0mm"
      fill="#000000" stroke="none" />
<rect x="102.86458333333333mm" y="0.0mm"
      width="0.3255208333333333mm" height="25.0mm"
      fill="#000000" stroke="none" />
<rect x="103.19010416666666mm" y="0.0mm"
      width="0.3255208333333333mm" height="25.0mm"
      fill="#000000" stroke="none" />
<rect x="103.515625mm" y="0.0mm"
      width="0.3255208333333333mm" height="25.0mm"
      fill="#000000" stroke="none" />
<rect x="103.84114583333333mm" y="0.0mm"
      width="0.3255208333333333mm" height="25.0mm"
      fill="#000000" stroke="none" />
<rect x="104.16666666666666mm" y="0.0mm"
      width="0.3255208333333333mm" height="25.0mm"
      fill="#000000" stroke="none" />
<rect x="104.4921875mm" y="0.0mm"
      width="0.3255208333333333mm" height="25.0mm"
      fill="#000000" stroke="none" />
<rect x="104.81770833333333mm" y="0.0mm"
      width="0.3255208333333333mm" height="25.0mm"
      fill="#000000" stroke="none" />
<rect x="105.14322916666666mm" y="0.0mm"
      width="0.3255208333333333mm" height="25.0mm"
      fill="#000000" stroke="none" />
<rect x="105.46875mm" y="0.0mm"
      width="0.3255208333333333mm" height="25.0mm"
      fill="#000000" stroke="none" />
<rect x="105.79427083333333mm" y="0.0mm"
      width="0.3255208333333333mm" height="25.0mm"
      fill="#000000" stroke="none" />
<rect x="106.11979166666666mm" y="0.0mm"
      width="0.3255208333333333mm" height="25.0mm"
      fill="#000000" stroke="none" />
<rect x="106.4453125mm" y="0.0mm"
      width="0.3255208333333333mm" height="25.0mm"
      fill="#000000" stroke="none" />
<rect x="106.77083333333333mm" y="0.0mm"
      width="0.3255208333333333mm" height="25.0mm"
      fill="#000000" stroke="none" />
<rect x="107.09635416666666mm" y="0.0mm"
      width="0.3255208333333333mm" height="25.0mm"
      fill="#000000" stroke="none" />
<rect x="107.421875mm" y="0.0mm"
      width="0.3255208333333333mm" height="25.0mm"
      fill="#000000" stroke="none" />
<rect x="107.74739583333333mm" y="0.0mm"
      width="0.3255208333333333mm" height="25.0mm"
      fill="#000000" stroke="none" />
<rect x="108.07291666666666mm" y="0.0mm"
      width="0.3255208333333333mm" height="25.0mm"
      fill="#000000" stroke="none" />
<rect x="108.3984375mm" y="0.0mm"
      width="0.3255208333333333mm" height="25.0mm"
      fill="#000000" stroke="none" />
<rect x="108.72395833333333mm" y="0.0mm"
      width="0.3255208333333333mm" height="25.0mm"
      fill="#000000" stroke="none" />
<rect x="109.04947916666666mm" y="0.0mm"
      width="0.3255208333333333mm" height="25.0mm"
      fill="#000000" stroke="none" />
<rect x="109.375mm" y="0.0mm"
      width="0.3255208333333333mm" height="25.0mm"
      fill="#000000" stroke="none" />
<rect x="109.70052083333333mm" y="0.0mm"
      width="0.3255208333333333mm" height="25.0mm"
      fill="#000000" stroke="none" />
<rect x="110.02604166666666mm" y="0.0mm"
      width="0.3255208333333333mm" height="25.0mm"
      fill="#000000" stroke="none" />
<rect x="110.3515625mm" y="0.0mm"
      width="0.3255208333333333mm" height="25.0mm"
      fill="#000000" stroke="none" />
<rect x="110.67708333333333mm" y="0.0mm"
      width="0.3255208333333333mm" height="25.0mm"
      fill="#000000" stroke="none" />
<rect x="111.00260416666666mm" y="0.0mm"
      width="0.3255208333333333mm" height="25.0mm"
      fill="#000000" stroke="none" />
<rect x="111.328125mm" y="0.0mm"
      width="0.3255208333333333mm" height="25.0mm"
      fill="#000000" stroke="none" />
<rect x="111.65364583333333mm" y="0.0mm"
      width="0.3255208333333333mm" height="25.0mm"
      fill="#000000" stroke="none" />
<rect x="111.97916666666666mm" y="0.0mm"
      width="0.3255208333333333mm" height="25.0mm"
      fill="#000000" stroke="none" />
<rect x="112.3046875mm" y="0.0mm"
      width="0.3255208333333333mm" height="25.0mm"
      fill="#000000" stroke="none" />
<rect x="112.63020833333333mm" y="0.0mm"
      width="0.3255208333333333mm" height="25.0mm"
      fill="#000000" stroke="none" />
<rect x="112.95572916666666mm" y="0.0mm"
      width="0.3255208333333333mm" height="25.0mm"
      fill="#000000" stroke="none" />
<rect x="113.28125mm" y="0.0mm"
      width="0.3255208333333333mm" height="25.0mm"
      fill="#000000" stroke="none" />
<rect x="113.60677083333333mm" y="0.0mm"
      width="0.3255208333333333mm" height="25.0mm"
      fill="#000000" stroke="none" />
<rect x="113.93229166666666mm" y="0.0mm"
      width="0.3255208333333333mm" height="25.0mm"
      fill="#000000" stroke="none" />
<rect x="114.2578125mm" y="0.0mm"
      width="0.3255208333333333mm" height="25.0mm"
      fill="#000000" stroke="none" />
<rect x="114.58333333333333mm" y="0.0mm"
      width="0.3255208333333333mm" height="25.0mm"
      fill="#000000" stroke="none" />
<rect x="114.90885416666666mm" y="0.0mm"
      width="0.3255208333333333mm" height="25.0mm"
      fill="#000000" stroke="none" />
<rect x="115.234375mm" y="0.0mm"
      width="0.3255208333333333mm" height="25.0mm"
      fill="#000000" stroke="none" />
<rect x="115.55989583333333mm" y="0.0mm"
      width="0.3255208333333333mm" height="25.0mm"
      fill="#000000" stroke="none" />
<rect x="115.88541666666666mm" y="0.0mm"
      width="0.3255208333333333mm" height="25.0mm"
      fill="#000000" stroke="none" />
<rect x="116.2109375mm" y="0.0mm"
      width="0.3255208333333333mm" height="25.0mm"
      fill="#000000" stroke="none" />
<rect x="116.53645833333333mm" y="0.0mm"
      width="0.3255208333333333mm" height="25.0mm"
      fill="#000000" stroke="none" />
<rect x="116.86197916666666mm" y="0.0mm"
      width="0.3255208333333333mm" height="25.0mm"
      fill="#000000" stroke="none" />
<rect x="117.1875mm" y="0.0mm"
      width="0.3255208333333333mm" height="25.0mm"
      fill="#000000" stroke="none" />
<rect x="117.51302083333333mm" y="0.0mm"
      width="0.3255208333333333mm" height="25.0mm"
      fill="#000000" stroke="none" />
<rect x="117.83854166666666mm" y="0.0mm"
      width="0.3255208333333333mm" height="25.0mm"
      fill="#000000" stroke="none" />
<rect x="118.1640625mm" y="0.0mm"
      width="0.3255208333333333mm" height="25.0mm"
      fill="#000000" stroke="none" />
<rect x="118.48958333333333mm" y="0.0mm"
      width="0.3255208333333333mm" height="25.0mm"
      fill="#000000" stroke="none" />
<rect x="118.81510416666666mm" y="0.0mm"
      width="0.3255208333333333mm" height="25.0mm"
      fill="#000000" stroke="none" />
<rect x="119.140625mm" y="0.0mm"
      width="0.3255208333333333mm" height="25.0mm"
      fill="#000000" stroke="none" />
<rect x="119.46614583333333mm" y="0.0mm"
      width="0.3255208333333333mm" height="25.0mm"
      fill="#000000" stroke="none" />
<rect x="119.79166666666666mm" y="0.0mm"
      width="0.3255208333333333mm" height="25.0mm"
      fill="#000000" stroke="none" />
<rect x="120.1171875mm" y="0.0mm"
      width="0.3255208333333333mm" height="25.0mm"
      fill="#000000" stroke="none" />
<rect x="120.44270833333333mm" y="0.0mm"
      width="0.3255208333333333mm" height="25.0mm"
      fill="#000000" stroke="none" />
<rect x="120.76822916666666mm" y="0.0mm"
      width="0.3255208333333333mm" height="25.0mm"
      fill="#000000" stroke="none" />
<rect x="121.09375mm" y="0.0mm"
      width="0.3255208333333333mm" height="25.0mm"
      fill="#000000" stroke="none" />
<rect x="121.41927083333333mm" y="0.0mm"
      width="0.3255208333333333mm" height="25.0mm"
      fill="#000000" stroke="none" />
<rect x="121.74479166666666mm" y="0.0mm"
      width="0.3255208333333333mm" height="25.0mm"
      fill="#000000" stroke="none" />
<rect x="122.0703125mm" y="0.0mm"
      width="0.3255208333333333mm" height="25.0mm"
      fill="#000000" stroke="none" />
<rect x="122.39583333333333mm" y="0.0mm"
      width="0.3255208333333333mm" height="25.0mm"
      fill="#000000" stroke="none" />
<rect x="122.72135416666666mm" y="0.0mm"
      width="0.3255208333333333mm" height="25.0mm"
      fill="#000000" stroke="none" />
<rect x="123.046875mm" y="0.0mm"
      width="0.3255208333333333mm" height="25.0mm"
      fill="#000000" stroke="none" />
<rect x="123.37239583333333mm" y="0.0mm"
      width="0.3255208333333333mm" height="25.0mm"
      fill="#000000" stroke="none" />
<rect x="123.69791666666666mm" y="0.0mm"
      width="0.3255208333333333mm" height="25.0mm"
      fill="#000000" stroke="none" />
<rect x="124.0234375mm" y="0.0mm"
      width="0.3255208333333333mm" height="25.0mm"
      fill="#000000" stroke="none" />
<rect x="124.34895833333333mm" y="0.0mm"
      width="0.3255208333333333mm" height="25.0mm"
      fill="#000000" stroke="none" />
<rect x="124.67447916666666mm" y="0.0mm"
      width="0.3255208333333333mm" height="25.0mm"
      fill="#000000" stroke="none" />
<rect x="125.0mm" y="0.0mm"
      width="0.3255208333333333mm" height="25.0mm"
      fill="#000000" stroke="none" />
<rect x="125.32552083333333mm" y="0.0mm"
      width="0.3255208333333333mm" height="25.0mm"
      fill="#000000" stroke="none" />
<rect x="125.65104166666666mm" y="0.0mm"
      width="0.3255208333333333mm" height="25.0mm"
      fill="#000000" stroke="none" />
<rect x="125.97656249999999mm" y="0.0mm"
      width="0.3255208333333333mm" height="25.0mm"
      fill="#000000" stroke="none" />
<rect x="126.30208333333333mm" y="0.0mm"
      width="0.3255208333333333mm" height="25.0mm"
      fill="#000000" stroke="none" />
<rect x="126.62760416666666mm" y="0.0mm"
      width="0.3255208333333333mm" height="25.0mm"
      fill="#000000" stroke="none" />
<rect x="126.95312499999999mm" y="0.0mm"
      width="0.3255208333333333mm" height="25.0mm"
      fill="#000000" stroke="none" />
<rect x="127.27864583333333mm" y="0.0mm"
      width="0.3255208333333333mm" height="25.0mm"
      fill="#000000" stroke="none" />
<rect x="127.60416666666666mm" y="0.0mm"
      width="0.3255208333333333mm" height="25.0mm"
      fill="#000000" stroke="none" />
<rect x="127.92968749999999mm" y="0.0mm"
      width="0.3255208333333333mm" height="25.0mm"
      fill="#000000" stroke="none" />
<rect x="128.25520833333331mm" y="0.0mm"
      width="0.3255208333333333mm" height="25.0mm"
      fill="#000000" stroke="none" />
<rect x="128.58072916666666mm" y="0.0mm"
      width="0.3255208333333333mm" height="25.0mm"
      fill="#000000" stroke="none" />
<rect x="128.90625mm" y="0.0mm"
      width="0.3255208333333333mm" height="25.0mm"
      fill="#000000" stroke="none" />
<rect x="129.23177083333331mm" y="0.0mm"
      width="0.3255208333333333mm" height="25.0mm"
      fill="#000000" stroke="none" />
<rect x="129.55729166666666mm" y="0.0mm"
      width="0.3255208333333333mm" height="25.0mm"
      fill="#000000" stroke="none" />
<rect x="129.8828125mm" y="0.0mm"
      width="0.3255208333333333mm" height="25.0mm"
      fill="#000000" stroke="none" />
<rect x="130.20833333333331mm" y="0.0mm"
      width="0.3255208333333333mm" height="25.0mm"
      fill="#000000" stroke="none" />
<rect x="130.53385416666666mm" y="0.0mm"
      width="0.3255208333333333mm" height="25.0mm"
      fill="#000000" stroke="none" />
<rect x="130.859375mm" y="0.0mm"
      width="0.3255208333333333mm" height="25.0mm"
      fill="#000000" stroke="none" />
<rect x="131.18489583333331mm" y="0.0mm"
      width="0.3255208333333333mm" height="25.0mm"
      fill="#000000" stroke="none" />
<rect x="131.51041666666666mm" y="0.0mm"
      width="0.3255208333333333mm" height="25.0mm"
      fill="#000000" stroke="none" />
<rect x="131.8359375mm" y="0.0mm"
      width="0.3255208333333333mm" height="25.0mm"
      fill="#000000" stroke="none" />
<rect x="132.16145833333331mm" y="0.0mm"
      width="0.3255208333333333mm" height="25.0mm"
      fill="#000000" stroke="none" />
<rect x="132.48697916666666mm" y="0.0mm"
      width="0.3255208333333333mm" height="25.0mm"
      fill="#000000" stroke="none" />
<rect x="132.8125mm" y="0.0mm"
      width="0.3255208333333333mm" height="25.0mm"
      fill="#000000" stroke="none" />
<rect x="133.13802083333331mm" y="0.0mm"
      width="0.3255208333333333mm" height="25.0mm"
      fill="#000000" stroke="none" />
<rect x="133.46354166666666mm" y="0.0mm"
      width="0.3255208333333333mm" height="25.0mm"
      fill="#000000" stroke="none" />
<rect x="133.7890625mm" y="0.0mm"
      width="0.3255208333333333mm" height="25.0mm"
      fill="#000000" stroke="none" />
<rect x="134.11458333333331mm" y="0.0mm"
      width="0.3255208333333333mm" height="25.0mm"
      fill="#000000" stroke="none" />
<rect x="134.44010416666666mm" y="0.0mm"
      width="0.3255208333333333mm" height="25.0mm"
      fill="#000000" stroke="none" />
<rect x="134.765625mm" y="0.0mm"
      width="0.3255208333333333mm" height="25.0mm"
      fill="#000000" stroke="none" />
<rect x="135.09114583333331mm" y="0.0mm"
      width="0.3255208333333333mm" height="25.0mm"
      fill="#000000" stroke="none" />
<rect x="135.41666666666666mm" y="0.0mm"
      width="0.3255208333333333mm" height="25.0mm"
      fill="#000000" stroke="none" />
<rect x="135.7421875mm" y="0.0mm"
      width="0.3255208333333333mm" height="25.0mm"
      fill="#000000" stroke="none" />
<rect x="136.06770833333331mm" y="0.0mm"
      width="0.3255208333333333mm" height="25.0mm"
      fill="#000000" stroke="none" />
<rect x="136.39322916666666mm" y="0.0mm"
      width="0.3255208333333333mm" height="25.0mm"
      fill="#000000" stroke="none" />
<rect x="136.71875mm" y="0.0mm"
      width="0.3255208333333333mm" height="25.0mm"
      fill="#000000" stroke="none" />
<rect x="137.04427083333331mm" y="0.0mm"
      width="0.3255208333333333mm" height="25.0mm"
      fill="#000000" stroke="none" />
<rect x="137.36979166666666mm" y="0.0mm"
      width="0.3255208333333333mm" height="25.0mm"
      fill="#000000" stroke="none" />
<rect x="137.6953125mm" y="0.0mm"
      width="0.3255208333333333mm" height="25.0mm"
      fill="#000000" stroke="none" />
<rect x="138.02083333333331mm" y="0.0mm"
      width="0.3255208333333333mm" height="25.0mm"
      fill="#000000" stroke="none" />
<rect x="138.34635416666666mm" y="0.0mm"
      width="0.3255208333333333mm" height="25.0mm"
      fill="#000000" stroke="none" />
<rect x="138.671875mm" y="0.0mm"
      width="0.3255208333333333mm" height="25.0mm"
      fill="#000000" stroke="none" />
<rect x="138.99739583333331mm" y="0.0mm"
      width="0.3255208333333333mm" height="25.0mm"
      fill="#000000" stroke="none" />
<rect x="139.32291666666666mm" y="0.0mm"
      width="0.3255208333333333mm" height="25.0mm"
      fill="#000000" stroke="none" />
<rect x="139.6484375mm" y="0.0mm"
      width="0.3255208333333333mm" height="25.0mm"
      fill="#000000" stroke="none" />
<rect x="139.97395833333331mm" y="0.0mm"
      width="0.3255208333333333mm" height="25.0mm"
      fill="#000000" stroke="none" />
<rect x="140.29947916666666mm" y="0.0mm"
      width="0.3255208333333333mm" height="25.0mm"
      fill="#000000" stroke="none" />
<rect x="140.625mm" y="0.0mm"
      width="0.3255208333333333mm" height="25.0mm"
      fill="#000000" stroke="none" />
<rect x="140.95052083333331mm" y="0.0mm"
      width="0.3255208333333333mm" height="25.0mm"
      fill="#000000" stroke="none" />
<rect x="141.27604166666666mm" y="0.0mm"
      width="0.3255208333333333mm" height="25.0mm"
      fill="#000000" stroke="none" />
<rect x="141.6015625mm" y="0.0mm"
      width="0.3255208333333333mm" height="25.0mm"
      fill="#000000" stroke="none" />
<rect x="141.92708333333331mm" y="0.0mm"
      width="0.3255208333333333mm" height="25.0mm"
      fill="#000000" stroke="none" />
<rect x="142.25260416666666mm" y="0.0mm"
      width="0.3255208333333333mm" height="25.0mm"
      fill="#000000" stroke="none" />
<rect x="142.578125mm" y="0.0mm"
      width="0.3255208333333333mm" height="25.0mm"
      fill="#000000" stroke="none" />
<rect x="142.90364583333331mm" y="0.0mm"
      width="0.3255208333333333mm" height="25.0mm"
      fill="#000000" stroke="none" />
<rect x="143.22916666666666mm" y="0.0mm"
      width="0.3255208333333333mm" height="25.0mm"
      fill="#000000" stroke="none" />
<rect x="143.5546875mm" y="0.0mm"
      width="0.3255208333333333mm" height="25.0mm"
      fill="#000000" stroke="none" />
<rect x="143.88020833333331mm" y="0.0mm"
      width="0.3255208333333333mm" height="25.0mm"
      fill="#000000" stroke="none" />
<rect x="144.20572916666666mm" y="0.0mm"
      width="0.3255208333333333mm" height="25.0mm"
      fill="#000000" stroke="none" />
<rect x="144.53125mm" y="0.0mm"
      width="0.3255208333333333mm" height="25.0mm"
      fill="#000000" stroke="none" />
<rect x="144.85677083333331mm" y="0.0mm"
      width="0.3255208333333333mm" height="25.0mm"
      fill="#000000" stroke="none" />
<rect x="145.18229166666666mm" y="0.0mm"
      width="0.3255208333333333mm" height="25.0mm"
      fill="#000000" stroke="none" />
<rect x="145.5078125mm" y="0.0mm"
      width="0.3255208333333333mm" height="25.0mm"
      fill="#000000" stroke="none" />
<rect x="145.83333333333331mm" y="0.0mm"
      width="0.3255208333333333mm" height="25.0mm"
      fill="#000000" stroke="none" />
<rect x="146.15885416666666mm" y="0.0mm"
      width="0.3255208333333333mm" height="25.0mm"
      fill="#000000" stroke="none" />
<rect x="146.484375mm" y="0.0mm"
      width="0.3255208333333333mm" height="25.0mm"
      fill="#000000" stroke="none" />
<rect x="146.80989583333331mm" y="0.0mm"
      width="0.3255208333333333mm" height="25.0mm"
      fill="#000000" stroke="none" />
<rect x="147.13541666666666mm" y="0.0mm"
      width="0.3255208333333333mm" height="25.0mm"
      fill="#000000" stroke="none" />
<rect x="147.4609375mm" y="0.0mm"
      width="0.3255208333333333mm" height="25.0mm"
      fill="#000000" stroke="none" />
<rect x="147.78645833333331mm" y="0.0mm"
      width="0.3255208333333333mm" height="25.0mm"
      fill="#000000" stroke="none" />
<rect x="148.11197916666666mm" y="0.0mm"
      width="0.3255208333333333mm" height="25.0mm"
      fill="#000000" stroke="none" />
<rect x="148.4375mm" y="0.0mm"
      width="0.3255208333333333mm" height="25.0mm"
      fill="#000000" stroke="none" />
<rect x="148.76302083333331mm" y="0.0mm"
      width="0.3255208333333333mm" height="25.0mm"
      fill="#000000" stroke="none" />
<rect x="149.08854166666666mm" y="0.0mm"
      width="0.3255208333333333mm" height="25.0mm"
      fill="#000000" stroke="none" />
<rect x="149.4140625mm" y="0.0mm"
      width="0.3255208333333333mm" height="25.0mm"
      fill="#000000" stroke="none" />
<rect x="149.73958333333331mm" y="0.0mm"
      width="0.3255208333333333mm" height="25.0mm"
      fill="#000000" stroke="none" />
<rect x="150.06510416666666mm" y="0.0mm"
      width="0.3255208333333333mm" height="25.0mm"
      fill="#000000" stroke="none" />
<rect x="150.390625mm" y="0.0mm"
      width="0.3255208333333333mm" height="25.0mm"
      fill="#000000" stroke="none" />
<rect x="150.71614583333331mm" y="0.0mm"
      width="0.3255208333333333mm" height="25.0mm"
      fill="#000000" stroke="none" />
<rect x="151.04166666666666mm" y="0.0mm"
      width="0.3255208333333333mm" height="25.0mm"
      fill="#000000" stroke="none" />
<rect x="151.3671875mm" y="0.0mm"
      width="0.3255208333333333mm" height="25.0mm"
      fill="#000000" stroke="none" />
<rect x="151.69270833333331mm" y="0.0mm"
      width="0.3255208333333333mm" height="25.0mm"
      fill="#000000" stroke="none" />
<rect x="152.01822916666666mm" y="0.0mm"
      width="0.3255208333333333mm" height="25.0mm"
      fill="#000000" stroke="none" />
<rect x="152.34375mm" y="0.0mm"
      width="0.3255208333333333mm" height="25.0mm"
      fill="#000000" stroke="none" />
<rect x="152.66927083333331mm" y="0.0mm"
      width="0.3255208333333333mm" height="25.0mm"
      fill="#000000" stroke="none" />
<rect x="152.99479166666666mm" y="0.0mm"
      width="0.3255208333333333mm" height="25.0mm"
      fill="#000000" stroke="none" />
<rect x="153.3203125mm" y="0.0mm"
      width="0.3255208333333333mm" height="25.0mm"
      fill="#000000" stroke="none" />
<rect x="153.64583333333331mm" y="0.0mm"
      width="0.3255208333333333mm" height="25.0mm"
      fill="#000000" stroke="none" />
<rect x="153.97135416666666mm" y="0.0mm"
      width="0.3255208333333333mm" height="25.0mm"
      fill="#000000" stroke="none" />
<rect x="154.296875mm" y="0.0mm"
      width="0.3255208333333333mm" height="25.0mm"
      fill="#000000" stroke="none" />
<rect x="154.62239583333331mm" y="0.0mm"
      width="0.3255208333333333mm" height="25.0mm"
      fill="#000000" stroke="none" />
<rect x="154.94791666666666mm" y="0.0mm"
      width="0.3255208333333333mm" height="25.0mm"
      fill="#000000" stroke="none" />
<rect x="155.2734375mm" y="0.0mm"
      width="0.3255208333333333mm" height="25.0mm"
      fill="#000000" stroke="none" />
<rect x="155.59895833333331mm" y="0.0mm"
      width="0.3255208333333333mm" height="25.0mm"
      fill="#000000" stroke="none" />
<rect x="155.92447916666666mm" y="0.0mm"
      width="0.3255208333333333mm" height="25.0mm"
      fill="#000000" stroke="none" />
<rect x="156.25mm" y="0.0mm"
      width="0.3255208333333333mm" height="25.0mm"
      fill="#000000" stroke="none" />
<rect x="156.57552083333331mm" y="0.0mm"
      width="0.3255208333333333mm" height="25.0mm"
      fill="#000000" stroke="none" />
<rect x="156.90104166666666mm" y="0.0mm"
      width="0.3255208333333333mm" height="25.0mm"
      fill="#000000" stroke="none" />
<rect x="157.2265625mm" y="0.0mm"
      width="0.3255208333333333mm" height="25.0mm"
      fill="#000000" stroke="none" />
<rect x="157.55208333333331mm" y="0.0mm"
      width="0.3255208333333333mm" height="25.0mm"
      fill="#000000" stroke="none" />
<rect x="157.87760416666666mm" y="0.0mm"
      width="0.3255208333333333mm" height="25.0mm"
      fill="#000000" stroke="none" />
<rect x="158.203125mm" y="0.0mm"
      width="0.3255208333333333mm" height="25.0mm"
      fill="#000000" stroke="none" />
<rect x="158.52864583333331mm" y="0.0mm"
      width="0.3255208333333333mm" height="25.0mm"
      fill="#000000" stroke="none" />
<rect x="158.85416666666666mm" y="0.0mm"
      width="0.3255208333333333mm" height="25.0mm"
      fill="#000000" stroke="none" />
<rect x="159.1796875mm" y="0.0mm"
      width="0.3255208333333333mm" height="25.0mm"
      fill="#000000" stroke="none" />
<rect x="159.50520833333331mm" y="0.0mm"
      width="0.3255208333333333mm" height="25.0mm"
      fill="#000000" stroke="none" />
<rect x="159.83072916666666mm" y="0.0mm"
      width="0.3255208333333333mm" height="25.0mm"
      fill="#000000" stroke="none" />
<rect x="160.15625mm" y="0.0mm"
      width="0.3255208333333333mm" height="25.0mm"
      fill="#000000" stroke="none" />
<rect x="160.48177083333331mm" y="0.0mm"
      width="0.3255208333333333mm" height="25.0mm"
      fill="#000000" stroke="none" />
<rect x="160.80729166666666mm" y="0.0mm"
      width="0.3255208333333333mm" height="25.0mm"
      fill="#000000" stroke="none" />
<rect x="161.1328125mm" y="0.0mm"
      width="0.3255208333333333mm" height="25.0mm"
      fill="#000000" stroke="none" />
<rect x="161.45833333333331mm" y="0.0mm"
      width="0.3255208333333333mm" height="25.0mm"
      fill="#000000" stroke="none" />
<rect x="161.78385416666666mm" y="0.0mm"
      width="0.3255208333333333mm" height="25.0mm"
      fill="#000000" stroke="none" />
<rect x="162.109375mm" y="0.0mm"
      width="0.3255208333333333mm" height="25.0mm"
      fill="#000000" stroke="none" />
<rect x="162.43489583333331mm" y="0.0mm"
      width="0.3255208333333333mm" height="25.0mm"
      fill="#000000" stroke="none" />
<rect x="162.76041666666666mm" y="0.0mm"
      width="0.3255208333333333mm" height="25.0mm"
      fill="#000000" stroke="none" />
<rect x="163.0859375mm" y="0.0mm"
      width="0.3255208333333333mm" height="25.0mm"
      fill="#000000" stroke="none" />
<rect x="163.41145833333331mm" y="0.0mm"
      width="0.3255208333333333mm" height="25.0mm"
      fill="#000000" stroke="none" />
<rect x="163.73697916666666mm" y="0.0mm"
      width="0.3255208333333333mm" height="25.0mm"
      fill="#000000" stroke="none" />
<rect x="164.0625mm" y="0.0mm"
      width="0.3255208333333333mm" height="25.0mm"
      fill="#000000" stroke="none" />
<rect x="164.38802083333331mm" y="0.0mm"
      width="0.3255208333333333mm" height="25.0mm"
      fill="#000000" stroke="none" />
<rect x="164.71354166666666mm" y="0.0mm"
      width="0.3255208333333333mm" height="25.0mm"
      fill="#000000" stroke="none" />
<rect x="165.0390625mm" y="0.0mm"
      width="0.3255208333333333mm" height="25.0mm"
      fill="#000000" stroke="none" />
<rect x="165.36458333333331mm" y="0.0mm"
      width="0.3255208333333333mm" height="25.0mm"
      fill="#000000" stroke="none" />
<rect x="165.69010416666666mm" y="0.0mm"
      width="0.3255208333333333mm" height="25.0mm"
      fill="#000000" stroke="none" />
<rect x="166.015625mm" y="0.0mm"
      width="0.3255208333333333mm" height="25.0mm"
      fill="#000000" stroke="none" />
<rect x="166.34114583333331mm" y="0.0mm"
      width="0.3255208333333333mm" height="25.0mm"
      fill="#000000" stroke="none" />
<rect x="166.66666666666666mm" y="0.0mm"
      width="0.3255208333333333mm" height="25.0mm"
      fill="#000000" stroke="none" />
<rect x="166.9921875mm" y="0.0mm"
      width="0.3255208333333333mm" height="25.0mm"
      fill="#000000" stroke="none" />
<rect x="167.31770833333331mm" y="0.0mm"
      width="0.3255208333333333mm" height="25.0mm"
      fill="#000000" stroke="none" />
<rect x="167.64322916666666mm" y="0.0mm"
      width="0.3255208333333333mm" height="25.0mm"
      fill="#000000" stroke="none" />
<rect x="167.96875mm" y="0.0mm"
      width="0.3255208333333333mm" height="25.0mm"
      fill="#000000" stroke="none" />
<rect x="168.29427083333331mm" y="0.0mm"
      width="0.3255208333333333mm" height="25.0mm"
      fill="#000000" stroke="none" />
<rect x="168.61979166666666mm" y="0.0mm"
      width="0.3255208333333333mm" height="25.0mm"
      fill="#000000" stroke="none" />
<rect x="168.9453125mm" y="0.0mm"
      width="0.3255208333333333mm" height="25.0mm"
      fill="#000000" stroke="none" />
<rect x="169.27083333333331mm" y="0.0mm"
      width="0.3255208333333333mm" height="25.0mm"
      fill="#000000" stroke="none" />
<rect x="169.59635416666666mm" y="0.0mm"
      width="0.3255208333333333mm" height="25.0mm"
      fill="#000000" stroke="none" />
<rect x="169.921875mm" y="0.0mm"
      width="0.3255208333333333mm" height="25.0mm"
      fill="#000000" stroke="none" />
<rect x="170.24739583333331mm" y="0.0mm"
      width="0.3255208333333333mm" height="25.0mm"
      fill="#000000" stroke="none" />
<rect x="170.57291666666666mm" y="0.0mm"
      width="0.3255208333333333mm" height="25.0mm"
      fill="#000000" stroke="none" />
<rect x="170.8984375mm" y="0.0mm"
      width="0.3255208333333333mm" height="25.0mm"
      fill="#000000" stroke="none" />
<rect x="171.22395833333331mm" y="0.0mm"
      width="0.3255208333333333mm" height="25.0mm"
      fill="#000000" stroke="none" />
<rect x="171.54947916666666mm" y="0.0mm"
      width="0.3255208333333333mm" height="25.0mm"
      fill="#000000" stroke="none" />
<rect x="171.875mm" y="0.0mm"
      width="0.3255208333333333mm" height="25.0mm"
      fill="#000000" stroke="none" />
<rect x="172.20052083333331mm" y="0.0mm"
      width="0.3255208333333333mm" height="25.0mm"
      fill="#000000" stroke="none" />
<rect x="172.52604166666666mm" y="0.0mm"
      width="0.3255208333333333mm" height="25.0mm"
      fill="#000000" stroke="none" />
<rect x="172.8515625mm" y="0.0mm"
      width="0.3255208333333333mm" height="25.0mm"
      fill="#000000" stroke="none" />
<rect x="173.17708333333331mm" y="0.0mm"
      width="0.3255208333333333mm" height="25.0mm"
      fill="#000000" stroke="none" />
<rect x="173.50260416666666mm" y="0.0mm"
      width="0.3255208333333333mm" height="25.0mm"
      fill="#000000" stroke="none" />
<rect x="173.828125mm" y="0.0mm"
      width="0.3255208333333333mm" height="25.0mm"
      fill="#000000" stroke="none" />
<rect x="174.15364583333331mm" y="0.0mm"
      width="0.3255208333333333mm" height="25.0mm"
      fill="#000000" stroke="none" />
<rect x="174.47916666666666mm" y="0.0mm"
      width="0.3255208333333333mm" height="25.0mm"
      fill="#000000" stroke="none" />
<rect x="174.8046875mm" y="0.0mm"
      width="0.3255208333333333mm" height="25.0mm"
      fill="#000000" stroke="none" />
<rect x="175.13020833333331mm" y="0.0mm"
      width="0.3255208333333333mm" height="25.0mm"
      fill="#000000" stroke="none" />
<rect x="175.45572916666666mm" y="0.0mm"
      width="0.3255208333333333mm" height="25.0mm"
      fill="#000000" stroke="none" />
<rect x="175.78125mm" y="0.0mm"
      width="0.3255208333333333mm" height="25.0mm"
      fill="#000000" stroke="none" />
<rect x="176.10677083333331mm" y="0.0mm"
      width="0.3255208333333333mm" height="25.0mm"
      fill="#000000" stroke="none" />
<rect x="176.43229166666666mm" y="0.0mm"
      width="0.3255208333333333mm" height="25.0mm"
      fill="#000000" stroke="none" />
<rect x="176.7578125mm" y="0.0mm"
      width="0.3255208333333333mm" height="25.0mm"
      fill="#000000" stroke="none" />
<rect x="177.08333333333331mm" y="0.0mm"
      width="0.3255208333333333mm" height="25.0mm"
      fill="#000000" stroke="none" />
<rect x="177.40885416666666mm" y="0.0mm"
      width="0.3255208333333333mm" height="25.0mm"
      fill="#000000" stroke="none" />
<rect x="177.734375mm" y="0.0mm"
      width="0.3255208333333333mm" height="25.0mm"
      fill="#000000" stroke="none" />
<rect x="178.05989583333331mm" y="0.0mm"
      width="0.3255208333333333mm" height="25.0mm"
      fill="#000000" stroke="none" />
<rect x="178.38541666666666mm" y="0.0mm"
      width="0.3255208333333333mm" height="25.0mm"
      fill="#000000" stroke="none" />
<rect x="178.7109375mm" y="0.0mm"
      width="0.3255208333333333mm" height="25.0mm"
      fill="#000000" stroke="none" />
<rect x="179.03645833333331mm" y="0.0mm"
      width="0.3255208333333333mm" height="25.0mm"
      fill="#000000" stroke="none" />
<rect x="179.36197916666666mm" y="0.0mm"
      width="0.3255208333333333mm" height="25.0mm"
      fill="#000000" stroke="none" />
<rect x="179.6875mm" y="0.0mm"
      width="0.3255208333333333mm" height="25.0mm"
      fill="#000000" stroke="none" />
<rect x="180.01302083333331mm" y="0.0mm"
      width="0.3255208333333333mm" height="25.0mm"
      fill="#000000" stroke="none" />
<rect x="180.33854166666666mm" y="0.0mm"
      width="0.3255208333333333mm" height="25.0mm"
      fill="#000000" stroke="none" />
<rect x="180.6640625mm" y="0.0mm"
      width="0.3255208333333333mm" height="25.0mm"
      fill="#000000" stroke="none" />
<rect x="180.98958333333331mm" y="0.0mm"
      width="0.3255208333333333mm" height="25.0mm"
      fill="#000000" stroke="none" />
<rect x="181.31510416666666mm" y="0.0mm"
      width="0.3255208333333333mm" height="25.0mm"
      fill="#000000" stroke="none" />
<rect x="181.640625mm" y="0.0mm"
      width="0.3255208333333333mm" height="25.0mm"
      fill="#000000" stroke="none" />
<rect x="181.96614583333331mm" y="0.0mm"
      width="0.3255208333333333mm" height="25.0mm"
      fill="#000000" stroke="none" />
<rect x="182.29166666666666mm" y="0.0mm"
      width="0.3255208333333333mm" height="25.0mm"
      fill="#000000" stroke="none" />
<rect x="182.6171875mm" y="0.0mm"
      width="0.3255208333333333mm" height="25.0mm"
      fill="#000000" stroke="none" />
<rect x="182.94270833333331mm" y="0.0mm"
      width="0.3255208333333333mm" height="25.0mm"
      fill="#000000" stroke="none" />
<rect x="183.26822916666666mm" y="0.0mm"
      width="0.3255208333333333mm" height="25.0mm"
      fill="#000000" stroke="none" />
<rect x="183.59375mm" y="0.0mm"
      width="0.3255208333333333mm" height="25.0mm"
      fill="#000000" stroke="none" />
<rect x="183.91927083333331mm" y="0.0mm"
      width="0.3255208333333333mm" height="25.0mm"
      fill="#000000" stroke="none" />
<rect x="184.24479166666666mm" y="0.0mm"
      width="0.3255208333333333mm" height="25.0mm"
      fill="#000000" stroke="none" />
<rect x="184.5703125mm" y="0.0mm"
      width="0.3255208333333333mm" height="25.0mm"
      fill="#000000" stroke="none" />
<rect x="184.89583333333331mm" y="0.0mm"
      width="0.3255208333333333mm" height="25.0mm"
      fill="#000000" stroke="none" />
<rect x="185.22135416666666mm" y="0.0mm"
      width="0.3255208333333333mm" height="25.0mm"
      fill="#000000" stroke="none" />
<rect x="185.546875mm" y="0.0mm"
      width="0.3255208333333333mm" height="25.0mm"
      fill="#000000" stroke="none" />
<rect x="185.87239583333331mm" y="0.0mm"
      width="0.3255208333333333mm" height="25.0mm"
      fill="#000000" stroke="none" />
<rect x="186.19791666666666mm" y="0.0mm"
      width="0.3255208333333333mm" height="25.0mm"
      fill="#000000" stroke="none" />
<rect x="186.5234375mm" y="0.0mm"
      width="0.3255208333333333mm" height="25.0mm"
      fill="#000000" stroke="none" />
<rect x="186.84895833333331mm" y="0.0mm"
      width="0.3255208333333333mm" height="25.0mm"
      fill="#000000" stroke="none" />
<rect x="187.17447916666666mm" y="0.0mm"
      width="0.3255208333333333mm" height="25.0mm"
      fill="#000000" stroke="none" />
<rect x="187.5mm" y="0.0mm"
      width="0.3255208333333333mm" height="25.0mm"
      fill="#000000" stroke="none" />
<rect x="187.82552083333331mm" y="0.0mm"
      width="0.3255208333333333mm" height="25.0mm"
      fill="#000000" stroke="none" />
<rect x="188.15104166666666mm" y="0.0mm"
      width="0.3255208333333333mm" height="25.0mm"
      fill="#000000" stroke="none" />
<rect x="188.4765625mm" y="0.0mm"
      width="0.3255208333333333mm" height="25.0mm"
      fill="#000000" stroke="none" />
<rect x="188.80208333333331mm" y="0.0mm"
      width="0.3255208333333333mm" height="25.0mm"
      fill="#000000" stroke="none" />
<rect x="189.12760416666666mm" y="0.0mm"
      width="0.3255208333333333mm" height="25.0mm"
      fill="#000000" stroke="none" />
<rect x="189.453125mm" y="0.0mm"
      width="0.3255208333333333mm" height="25.0mm"
      fill="#000000" stroke="none" />
<rect x="189.77864583333331mm" y="0.0mm"
      width="0.3255208333333333mm" height="25.0mm"
      fill="#000000" stroke="none" />
<rect x="190.10416666666666mm" y="0.0mm"
      width="0.3255208333333333mm" height="25.0mm"
      fill="#000000" stroke="none" />
<rect x="190.4296875mm" y="0.0mm"
      width="0.3255208333333333mm" height="25.0mm"
      fill="#000000" stroke="none" />
<rect x="190.75520833333331mm" y="0.0mm"
      width="0.3255208333333333mm" height="25.0mm"
      fill="#000000" stroke="none" />
<rect x="191.08072916666666mm" y="0.0mm"
      width="0.3255208333333333mm" height="25.0mm"
      fill="#000000" stroke="none" />
<rect x="191.40625mm" y="0.0mm"
      width="0.3255208333333333mm" height="25.0mm"
      fill="#000000" stroke="none" />
<rect x="191.73177083333331mm" y="0.0mm"
      width="0.3255208333333333mm" height="25.0mm"
      fill="#000000" stroke="none" />
<rect x="192.05729166666666mm" y="0.0mm"
      width="0.3255208333333333mm" height="25.0mm"
      fill="#000000" stroke="none" />
<rect x="192.3828125mm" y="0.0mm"
      width="0.3255208333333333mm" height="25.0mm"
      fill="#000000" stroke="none" />
<rect x="192.70833333333331mm" y="0.0mm"
      width="0.3255208333333333mm" height="25.0mm"
      fill="#000000" stroke="none" />
<rect x="193.03385416666666mm" y="0.0mm"
      width="0.3255208333333333mm" height="25.0mm"
      fill="#000000" stroke="none" />
<rect x="193.359375mm" y="0.0mm"
      width="0.3255208333333333mm" height="25.0mm"
      fill="#000000" stroke="none" />
<rect x="193.68489583333331mm" y="0.0mm"
      width="0.3255208333333333mm" height="25.0mm"
      fill="#000000" stroke="none" />
<rect x="194.01041666666666mm" y="0.0mm"
      width="0.3255208333333333mm" height="25.0mm"
      fill="#000000" stroke="none" />
<rect x="194.3359375mm" y="0.0mm"
      width="0.3255208333333333mm" height="25.0mm"
      fill="#000000" stroke="none" />
<rect x="194.66145833333331mm" y="0.0mm"
      width="0.3255208333333333mm" height="25.0mm"
      fill="#000000" stroke="none" />
<rect x="194.98697916666666mm" y="0.0mm"
      width="0.3255208333333333mm" height="25.0mm"
      fill="#000000" stroke="none" />
<rect x="195.3125mm" y="0.0mm"
      width="0.3255208333333333mm" height="25.0mm"
      fill="#000000" stroke="none" />
<rect x="195.63802083333331mm" y="0.0mm"
      width="0.3255208333333333mm" height="25.0mm"
      fill="#000000" stroke="none" />
<rect x="195.96354166666666mm" y="0.0mm"
      width="0.3255208333333333mm" height="25.0mm"
      fill="#000000" stroke="none" />
<rect x="196.2890625mm" y="0.0mm"
      width="0.3255208333333333mm" height="25.0mm"
      fill="#000000" stroke="none" />
<rect x="196.61458333333331mm" y="0.0mm"
      width="0.3255208333333333mm" height="25.0mm"
      fill="#000000" stroke="none" />
<rect x="196.94010416666666mm" y="0.0mm"
      width="0.3255208333333333mm" height="25.0mm"
      fill="#000000" stroke="none" />
<rect x="197.265625mm" y="0.0mm"
      width="0.3255208333333333mm" height="25.0mm"
      fill="#000000" stroke="none" />
<rect x="197.59114583333331mm" y="0.0mm"
      width="0.3255208333333333mm" height="25.0mm"
      fill="#000000" stroke="none" />
<rect x="197.91666666666666mm" y="0.0mm"
      width="0.3255208333333333mm" height="25.0mm"
      fill="#000000" stroke="none" />
<rect x="198.2421875mm" y="0.0mm"
      width="0.3255208333333333mm" height="25.0mm"
      fill="#000000" stroke="none" />
<rect x="198.56770833333331mm" y="0.0mm"
      width="0.3255208333333333mm" height="25.0mm"
      fill="#000000" stroke="none" />
<rect x="198.89322916666666mm" y="0.0mm"
      width="0.3255208333333333mm" height="25.0mm"
      fill="#000000" stroke="none" />
<rect x="199.21875mm" y="0.0mm"
      width="0.3255208333333333mm" height="25.0mm"
      fill="#000000" stroke="none" />
<rect x="199.54427083333331mm" y="0.0mm"
      width="0.3255208333333333mm" height="25.0mm"
      fill="#000000" stroke="none" />
<rect x="199.86979166666666mm" y="0.0mm"
      width="0.3255208333333333mm" height="25.0mm"
      fill="#000000" stroke="none" />
<rect x="200.1953125mm" y="0.0mm"
      width="0.3255208333333333mm" height="25.0mm"
      fill="#000000" stroke="none" />
<rect x="200.52083333333331mm" y="0.0mm"
      width="0.3255208333333333mm" height="25.0mm"
      fill="#000000" stroke="none" />
<rect x="200.84635416666666mm" y="0.0mm"
      width="0.3255208333333333mm" height="25.0mm"
      fill="#000000" stroke="none" />
<rect x="201.171875mm" y="0.0mm"
      width="0.3255208333333333mm" height="25.0mm"
      fill="#000000" stroke="none" />
<rect x="201.49739583333331mm" y="0.0mm"
      width="0.3255208333333333mm" height="25.0mm"
      fill="#000000" stroke="none" />
<rect x="201.82291666666666mm" y="0.0mm"
      width="0.3255208333333333mm" height="25.0mm"
      fill="#000000" stroke="none" />
<rect x="202.1484375mm" y="0.0mm"
      width="0.3255208333333333mm" height="25.0mm"
      fill="#000000" stroke="none" />
<rect x="202.47395833333331mm" y="0.0mm"
      width="0.3255208333333333mm" height="25.0mm"
      fill="#000000" stroke="none" />
<rect x="202.79947916666666mm" y="0.0mm"
      width="0.3255208333333333mm" height="25.0mm"
      fill="#000000" stroke="none" />
<rect x="203.125mm" y="0.0mm"
      width="0.3255208333333333mm" height="25.0mm"
      fill="#000000" stroke="none" />
<rect x="203.45052083333331mm" y="0.0mm"
      width="0.3255208333333333mm" height="25.0mm"
      fill="#000000" stroke="none" />
<rect x="203.77604166666666mm" y="0.0mm"
      width="0.3255208333333333mm" height="25.0mm"
      fill="#000000" stroke="none" />
<rect x="204.1015625mm" y="0.0mm"
      width="0.3255208333333333mm" height="25.0mm"
      fill="#000000" stroke="none" />
<rect x="204.42708333333331mm" y="0.0mm"
      width="0.3255208333333333mm" height="25.0mm"
      fill="#000000" stroke="none" />
<rect x="204.75260416666666mm" y="0.0mm"
      width="0.3255208333333333mm" height="25.0mm"
      fill="#000000" stroke="none" />
<rect x="205.078125mm" y="0.0mm"
      width="0.3255208333333333mm" height="25.0mm"
      fill="#000000" stroke="none" />
<rect x="205.40364583333331mm" y="0.0mm"
      width="0.3255208333333333mm" height="25.0mm"
      fill="#000000" stroke="none" />
<rect x="205.72916666666666mm" y="0.0mm"
      width="0.3255208333333333mm" height="25.0mm"
      fill="#000000" stroke="none" />
<rect x="206.0546875mm" y="0.0mm"
      width="0.3255208333333333mm" height="25.0mm"
      fill="#000000" stroke="none" />
<rect x="206.38020833333331mm" y="0.0mm"
      width="0.3255208333333333mm" height="25.0mm"
      fill="#000000" stroke="none" />
<rect x="206.70572916666666mm" y="0.0mm"
      width="0.3255208333333333mm" height="25.0mm"
      fill="#000000" stroke="none" />
<rect x="207.03125mm" y="0.0mm"
      width="0.3255208333333333mm" height="25.0mm"
      fill="#000000" stroke="none" />
<rect x="207.35677083333331mm" y="0.0mm"
      width="0.3255208333333333mm" height="25.0mm"
      fill="#000000" stroke="none" />
<rect x="207.68229166666666mm" y="0.0mm"
      width="0.3255208333333333mm" height="25.0mm"
      fill="#000000" stroke="none" />
<rect x="208.0078125mm" y="0.0mm"
      width="0.3255208333333333mm" height="25.0mm"
      fill="#000000" stroke="none" />
<rect x="208.33333333333331mm" y="0.0mm"
      width="0.3255208333333333mm" height="25.0mm"
      fill="#000000" stroke="none" />
<rect x="208.65885416666666mm" y="0.0mm"
      width="0.3255208333333333mm" height="25.0mm"
      fill="#000000" stroke="none" />
<rect x="208.984375mm" y="0.0mm"
      width="0.3255208333333333mm" height="25.0mm"
      fill="#000000" stroke="none" />
<rect x="209.30989583333331mm" y="0.0mm"
      width="0.3255208333333333mm" height="25.0mm"
      fill="#000000" stroke="none" />
<rect x="209.63541666666666mm" y="0.0mm"
      width="0.3255208333333333mm" height="25.0mm"
      fill="#000000" stroke="none" />
<rect x="209.9609375mm" y="0.0mm"
      width="0.3255208333333333mm" height="25.0mm"
      fill="#000000" stroke="none" />
<rect x="210.28645833333331mm" y="0.0mm"
      width="0.3255208333333333mm" height="25.0mm"
      fill="#000000" stroke="none" />
<rect x="210.61197916666666mm" y="0.0mm"
      width="0.3255208333333333mm" height="25.0mm"
      fill="#000000" stroke="none" />
<rect x="210.9375mm" y="0.0mm"
      width="0.3255208333333333mm" height="25.0mm"
      fill="#000000" stroke="none" />
<rect x="211.26302083333331mm" y="0.0mm"
      width="0.3255208333333333mm" height="25.0mm"
      fill="#000000" stroke="none" />
<rect x="211.58854166666666mm" y="0.0mm"
      width="0.3255208333333333mm" height="25.0mm"
      fill="#000000" stroke="none" />
<rect x="211.9140625mm" y="0.0mm"
      width="0.3255208333333333mm" height="25.0mm"
      fill="#000000" stroke="none" />
<rect x="212.23958333333331mm" y="0.0mm"
      width="0.3255208333333333mm" height="25.0mm"
      fill="#000000" stroke="none" />
<rect x="212.56510416666666mm" y="0.0mm"
      width="0.3255208333333333mm" height="25.0mm"
      fill="#000000" stroke="none" />
<rect x="212.890625mm" y="0.0mm"
      width="0.3255208333333333mm" height="25.0mm"
      fill="#000000" stroke="none" />
<rect x="213.21614583333331mm" y="0.0mm"
      width="0.3255208333333333mm" height="25.0mm"
      fill="#000000" stroke="none" />
<rect x="213.54166666666666mm" y="0.0mm"
      width="0.3255208333333333mm" height="25.0mm"
      fill="#000000" stroke="none" />
<rect x="213.8671875mm" y="0.0mm"
      width="0.3255208333333333mm" height="25.0mm"
      fill="#000000" stroke="none" />
<rect x="214.19270833333331mm" y="0.0mm"
      width="0.3255208333333333mm" height="25.0mm"
      fill="#000000" stroke="none" />
<rect x="214.51822916666666mm" y="0.0mm"
      width="0.3255208333333333mm" height="25.0mm"
      fill="#000000" stroke="none" />
<rect x="214.84375mm" y="0.0mm"
      width="0.3255208333333333mm" height="25.0mm"
      fill="#000000" stroke="none" />
<rect x="215.16927083333331mm" y="0.0mm"
      width="0.3255208333333333mm" height="25.0mm"
      fill="#000000" stroke="none" />
<rect x="215.49479166666666mm" y="0.0mm"
      width="0.3255208333333333mm" height="25.0mm"
      fill="#000000" stroke="none" />
<rect x="215.8203125mm" y="0.0mm"
      width="0.3255208333333333mm" height="25.0mm"
      fill="#000000" stroke="none" />
<rect x="216.14583333333331mm" y="0.0mm"
      width="0.3255208333333333mm" height="25.0mm"
      fill="#000000" stroke="none" />
<rect x="216.47135416666666mm" y="0.0mm"
      width="0.3255208333333333mm" height="25.0mm"
      fill="#000000" stroke="none" />
<rect x="216.796875mm" y="0.0mm"
      width="0.3255208333333333mm" height="25.0mm"
      fill="#000000" stroke="none" />
<rect x="217.12239583333331mm" y="0.0mm"
      width="0.3255208333333333mm" height="25.0mm"
      fill="#000000" stroke="none" />
<rect x="217.44791666666666mm" y="0.0mm"
      width="0.3255208333333333mm" height="25.0mm"
      fill="#000000" stroke="none" />
<rect x="217.7734375mm" y="0.0mm"
      width="0.3255208333333333mm" height="25.0mm"
      fill="#000000" stroke="none" />
<rect x="218.09895833333331mm" y="0.0mm"
      width="0.3255208333333333mm" height="25.0mm"
      fill="#000000" stroke="none" />
<rect x="218.42447916666666mm" y="0.0mm"
      width="0.3255208333333333mm" height="25.0mm"
      fill="#000000" stroke="none" />
<rect x="218.75mm" y="0.0mm"
      width="0.3255208333333333mm" height="25.0mm"
      fill="#000000" stroke="none" />
<rect x="219.07552083333331mm" y="0.0mm"
      width="0.3255208333333333mm" height="25.0mm"
      fill="#000000" stroke="none" />
<rect x="219.40104166666666mm" y="0.0mm"
      width="0.3255208333333333mm" height="25.0mm"
      fill="#000000" stroke="none" />
<rect x="219.7265625mm" y="0.0mm"
      width="0.3255208333333333mm" height="25.0mm"
      fill="#000000" stroke="none" />
<rect x="220.05208333333331mm" y="0.0mm"
      width="0.3255208333333333mm" height="25.0mm"
      fill="#000000" stroke="none" />
<rect x="220.37760416666666mm" y="0.0mm"
      width="0.3255208333333333mm" height="25.0mm"
      fill="#000000" stroke="none" />
<rect x="220.703125mm" y="0.0mm"
      width="0.3255208333333333mm" height="25.0mm"
      fill="#000000" stroke="none" />
<rect x="221.02864583333331mm" y="0.0mm"
      width="0.3255208333333333mm" height="25.0mm"
      fill="#000000" stroke="none" />
<rect x="221.35416666666666mm" y="0.0mm"
      width="0.3255208333333333mm" height="25.0mm"
      fill="#000000" stroke="none" />
<rect x="221.6796875mm" y="0.0mm"
      width="0.3255208333333333mm" height="25.0mm"
      fill="#000000" stroke="none" />
<rect x="222.00520833333331mm" y="0.0mm"
      width="0.3255208333333333mm" height="25.0mm"
      fill="#000000" stroke="none" />
<rect x="222.33072916666666mm" y="0.0mm"
      width="0.3255208333333333mm" height="25.0mm"
      fill="#000000" stroke="none" />
<rect x="222.65625mm" y="0.0mm"
      width="0.3255208333333333mm" height="25.0mm"
      fill="#000000" stroke="none" />
<rect x="222.98177083333331mm" y="0.0mm"
      width="0.3255208333333333mm" height="25.0mm"
      fill="#000000" stroke="none" />
<rect x="223.30729166666666mm" y="0.0mm"
      width="0.3255208333333333mm" height="25.0mm"
      fill="#000000" stroke="none" />
<rect x="223.6328125mm" y="0.0mm"
      width="0.3255208333333333mm" height="25.0mm"
      fill="#000000" stroke="none" />
<rect x="223.95833333333331mm" y="0.0mm"
      width="0.3255208333333333mm" height="25.0mm"
      fill="#000000" stroke="none" />
<rect x="224.28385416666666mm" y="0.0mm"
      width="0.3255208333333333mm" height="25.0mm"
      fill="#000000" stroke="none" />
<rect x="224.609375mm" y="0.0mm"
      width="0.3255208333333333mm" height="25.0mm"
      fill="#000000" stroke="none" />
<rect x="224.93489583333331mm" y="0.0mm"
      width="0.3255208333333333mm" height="25.0mm"
      fill="#000000" stroke="none" />
<rect x="225.26041666666666mm" y="0.0mm"
      width="0.3255208333333333mm" height="25.0mm"
      fill="#000000" stroke="none" />
<rect x="225.5859375mm" y="0.0mm"
      width="0.3255208333333333mm" height="25.0mm"
      fill="#000000" stroke="none" />
<rect x="225.91145833333331mm" y="0.0mm"
      width="0.3255208333333333mm" height="25.0mm"
      fill="#000000" stroke="none" />
<rect x="226.23697916666666mm" y="0.0mm"
      width="0.3255208333333333mm" height="25.0mm"
      fill="#000000" stroke="none" />
<rect x="226.5625mm" y="0.0mm"
      width="0.3255208333333333mm" height="25.0mm"
      fill="#000000" stroke="none" />
<rect x="226.88802083333331mm" y="0.0mm"
      width="0.3255208333333333mm" height="25.0mm"
      fill="#000000" stroke="none" />
<rect x="227.21354166666666mm" y="0.0mm"
      width="0.3255208333333333mm" height="25.0mm"
      fill="#000000" stroke="none" />
<rect x="227.5390625mm" y="0.0mm"
      width="0.3255208333333333mm" height="25.0mm"
      fill="#000000" stroke="none" />
<rect x="227.86458333333331mm" y="0.0mm"
      width="0.3255208333333333mm" height="25.0mm"
      fill="#000000" stroke="none" />
<rect x="228.19010416666666mm" y="0.0mm"
      width="0.3255208333333333mm" height="25.0mm"
      fill="#000000" stroke="none" />
<rect x="228.515625mm" y="0.0mm"
      width="0.3255208333333333mm" height="25.0mm"
      fill="#000000" stroke="none" />
<rect x="228.84114583333331mm" y="0.0mm"
      width="0.3255208333333333mm" height="25.0mm"
      fill="#000000" stroke="none" />
<rect x="229.16666666666666mm" y="0.0mm"
      width="0.3255208333333333mm" height="25.0mm"
      fill="#000000" stroke="none" />
<rect x="229.4921875mm" y="0.0mm"
      width="0.3255208333333333mm" height="25.0mm"
      fill="#000000" stroke="none" />
<rect x="229.81770833333331mm" y="0.0mm"
      width="0.3255208333333333mm" height="25.0mm"
      fill="#000000" stroke="none" />
<rect x="230.14322916666666mm" y="0.0mm"
      width="0.3255208333333333mm" height="25.0mm"
      fill="#000000" stroke="none" />
<rect x="230.46875mm" y="0.0mm"
      width="0.3255208333333333mm" height="25.0mm"
      fill="#000000" stroke="none" />
<rect x="230.79427083333331mm" y="0.0mm"
      width="0.3255208333333333mm" height="25.0mm"
      fill="#000000" stroke="none" />
<rect x="231.11979166666666mm" y="0.0mm"
      width="0.3255208333333333mm" height="25.0mm"
      fill="#000000" stroke="none" />
<rect x="231.4453125mm" y="0.0mm"
      width="0.3255208333333333mm" height="25.0mm"
      fill="#000000" stroke="none" />
<rect x="231.77083333333331mm" y="0.0mm"
      width="0.3255208333333333mm" height="25.0mm"
      fill="#000000" stroke="none" />
<rect x="232.09635416666666mm" y="0.0mm"
      width="0.3255208333333333mm" height="25.0mm"
      fill="#000000" stroke="none" />
<rect x="232.421875mm" y="0.0mm"
      width="0.3255208333333333mm" height="25.0mm"
      fill="#000000" stroke="none" />
<rect x="232.74739583333331mm" y="0.0mm"
      width="0.3255208333333333mm" height="25.0mm"
      fill="#000000" stroke="none" />
<rect x="233.07291666666666mm" y="0.0mm"
      width="0.3255208333333333mm" height="25.0mm"
      fill="#000000" stroke="none" />
<rect x="233.3984375mm" y="0.0mm"
      width="0.3255208333333333mm" height="25.0mm"
      fill="#000000" stroke="none" />
<rect x="233.72395833333331mm" y="0.0mm"
      width="0.3255208333333333mm" height="25.0mm"
      fill="#000000" stroke="none" />
<rect x="234.04947916666666mm" y="0.0mm"
      width="0.3255208333333333mm" height="25.0mm"
      fill="#000000" stroke="none" />
<rect x="234.375mm" y="0.0mm"
      width="0.3255208333333333mm" height="25.0mm"
      fill="#000000" stroke="none" />
<rect x="234.70052083333331mm" y="0.0mm"
      width="0.3255208333333333mm" height="25.0mm"
      fill="#000000" stroke="none" />
<rect x="235.02604166666666mm" y="0.0mm"
      width="0.3255208333333333mm" height="25.0mm"
      fill="#000000" stroke="none" />
<rect x="235.3515625mm" y="0.0mm"
      width="0.3255208333333333mm" height="25.0mm"
      fill="#000000" stroke="none" />
<rect x="235.67708333333331mm" y="0.0mm"
      width="0.3255208333333333mm" height="25.0mm"
      fill="#000000" stroke="none" />
<rect x="236.00260416666666mm" y="0.0mm"
      width="0.3255208333333333mm" height="25.0mm"
      fill="#000000" stroke="none" />
<rect x="236.328125mm" y="0.0mm"
      width="0.3255208333333333mm" height="25.0mm"
      fill="#000000" stroke="none" />
<rect x="236.65364583333331mm" y="0.0mm"
      width="0.3255208333333333mm" height="25.0mm"
      fill="#000000" stroke="none" />
<rect x="236.97916666666666mm" y="0.0mm"
      width="0.3255208333333333mm" height="25.0mm"
      fill="#000000" stroke="none" />
<rect x="237.3046875mm" y="0.0mm"
      width="0.3255208333333333mm" height="25.0mm"
      fill="#000000" stroke="none" />
<rect x="237.63020833333331mm" y="0.0mm"
      width="0.3255208333333333mm" height="25.0mm"
      fill="#000000" stroke="none" />
<rect x="237.95572916666666mm" y="0.0mm"
      width="0.3255208333333333mm" height="25.0mm"
      fill="#000000" stroke="none" />
<rect x="238.28125mm" y="0.0mm"
      width="0.3255208333333333mm" height="25.0mm"
      fill="#000000" stroke="none" />
<rect x="238.60677083333331mm" y="0.0mm"
      width="0.3255208333333333mm" height="25.0mm"
      fill="#000000" stroke="none" />
<rect x="238.93229166666666mm" y="0.0mm"
      width="0.3255208333333333mm" height="25.0mm"
      fill="#000000" stroke="none" />
<rect x="239.2578125mm" y="0.0mm"
      width="0.3255208333333333mm" height="25.0mm"
      fill="#000000" stroke="none" />
<rect x="239.58333333333331mm" y="0.0mm"
      width="0.3255208333333333mm" height="25.0mm"
      fill="#000000" stroke="none" />
<rect x="239.90885416666666mm" y="0.0mm"
      width="0.3255208333333333mm" height="25.0mm"
      fill="#000000" stroke="none" />
<rect x="240.234375mm" y="0.0mm"
      width="0.3255208333333333mm" height="25.0mm"
      fill="#000000" stroke="none" />
<rect x="240.55989583333331mm" y="0.0mm"
      width="0.3255208333333333mm" height="25.0mm"
      fill="#000000" stroke="none" />
<rect x="240.88541666666666mm" y="0.0mm"
      width="0.3255208333333333mm" height="25.0mm"
      fill="#000000" stroke="none" />
<rect x="241.2109375mm" y="0.0mm"
      width="0.3255208333333333mm" height="25.0mm"
      fill="#000000" stroke="none" />
<rect x="241.53645833333331mm" y="0.0mm"
      width="0.3255208333333333mm" height="25.0mm"
      fill="#000000" stroke="none" />
<rect x="241.86197916666666mm" y="0.0mm"
      width="0.3255208333333333mm" height="25.0mm"
      fill="#000000" stroke="none" />
<rect x="242.1875mm" y="0.0mm"
      width="0.3255208333333333mm" height="25.0mm"
      fill="#000000" stroke="none" />
<rect x="242.51302083333331mm" y="0.0mm"
      width="0.3255208333333333mm" height="25.0mm"
      fill="#000000" stroke="none" />
<rect x="242.83854166666666mm" y="0.0mm"
      width="0.3255208333333333mm" height="25.0mm"
      fill="#000000" stroke="none" />
<rect x="243.1640625mm" y="0.0mm"
      width="0.3255208333333333mm" height="25.0mm"
      fill="#000000" stroke="none" />
<rect x="243.48958333333331mm" y="0.0mm"
      width="0.3255208333333333mm" height="25.0mm"
      fill="#000000" stroke="none" />
<rect x="243.81510416666666mm" y="0.0mm"
      width="0.3255208333333333mm" height="25.0mm"
      fill="#000000" stroke="none" />
<rect x="244.140625mm" y="0.0mm"
      width="0.3255208333333333mm" height="25.0mm"
      fill="#000000" stroke="none" />
<rect x="244.46614583333331mm" y="0.0mm"
      width="0.3255208333333333mm" height="25.0mm"
      fill="#000000" stroke="none" />
<rect x="244.79166666666666mm" y="0.0mm"
      width="0.3255208333333333mm" height="25.0mm"
      fill="#000000" stroke="none" />
<rect x="245.1171875mm" y="0.0mm"
      width="0.3255208333333333mm" height="25.0mm"
      fill="#000000" stroke="none" />
<rect x="245.44270833333331mm" y="0.0mm"
      width="0.3255208333333333mm" height="25.0mm"
      fill="#000000" stroke="none" />
<rect x="245.76822916666666mm" y="0.0mm"
      width="0.3255208333333333mm" height="25.0mm"
      fill="#000000" stroke="none" />
<rect x="246.09375mm" y="0.0mm"
      width="0.3255208333333333mm" height="25.0mm"
      fill="#000000" stroke="none" />
<rect x="246.41927083333331mm" y="0.0mm"
      width="0.3255208333333333mm" height="25.0mm"
      fill="#000000" stroke="none" />
<rect x="246.74479166666666mm" y="0.0mm"
      width="0.3255208333333333mm" height="25.0mm"
      fill="#000000" stroke="none" />
<rect x="247.0703125mm" y="0.0mm"
      width="0.3255208333333333mm" height="25.0mm"
      fill="#000000" stroke="none" />
<rect x="247.39583333333331mm" y="0.0mm"
      width="0.3255208333333333mm" height="25.0mm"
      fill="#000000" stroke="none" />
<rect x="247.72135416666666mm" y="0.0mm"
      width="0.3255208333333333mm" height="25.0mm"
      fill="#000000" stroke="none" />
<rect x="248.046875mm" y="0.0mm"
      width="0.3255208333333333mm" height="25.0mm"
      fill="#000000" stroke="none" />
<rect x="248.37239583333331mm" y="0.0mm"
      width="0.3255208333333333mm" height="25.0mm"
      fill="#000000" stroke="none" />
<rect x="248.69791666666666mm" y="0.0mm"
      width="0.3255208333333333mm" height="25.0mm"
      fill="#000000" stroke="none" />
<rect x="249.0234375mm" y="0.0mm"
      width="0.3255208333333333mm" height="25.0mm"
      fill="#000000" stroke="none" />
<rect x="249.34895833333331mm" y="0.0mm"
      width="0.3255208333333333mm" height="25.0mm"
      fill="#000000" stroke="none" />
<rect x="249.67447916666666mm" y="0.0mm"
      width="0.3255208333333333mm" height="25.0mm"
      fill="#000000" stroke="none" />
</svg>