<?xml version="1.0" encoding="UTF-8"?>
<!DOCTYPE svg PUBLIC "-//W3C//DTD SVG 1.1//EN"
 "http://www.w3.org/Graphics/SVG/1.1/DTD/svg11.dtd">
<svg xmlns="http://www.w3.org/2000/svg" version="1.1"
     width="250.0mm" height="25.0mm"
     shape-rendering="crispEdges">
<rect x="0.0mm" y="0.0mm"
      width="0.3255208333333333mm" height="25.0mm"
      fill="#717770" stroke="none" />
<rect x="0.3255208333333333mm" y="0.0mm"
      width="0.3255208333333333mm" height="25.0mm"
      fill="#717770" stroke="none" />
<rect x="0.6510416666666666mm" y="0.0mm"
      width="0.3255208333333333mm" height="25.0mm"
      fill="#7C867D" stroke="none" />
<rect x="0.9765625mm" y="0.0mm"
      width="0.3255208333333333mm" height="25.0mm"
      fill="#87908B" stroke="none" />
<rect x="1.3020833333333333mm" y="0.0mm"
      width="0.3255208333333333mm" height="25.0mm"
      fill="#929E97" stroke="none" />
<rect x="1.6276041666666665mm" y="0.0mm"
      width="0.3255208333333333mm" height="25.0mm"
      fill="#868F89" stroke="none" />
<rect x="1.953125mm" y="0.0mm"
      width="0.3255208333333333mm" height="25.0mm"
      fill="#7D847C" stroke="none" />
<rect x="2.278645833333333mm" y="0.0mm"
      width="0.3255208333333333mm" height="25.0mm"
      fill="#919890" stroke="none" />
<rect x="2.6041666666666665mm" y="0.0mm"
      width="0.3255208333333333mm" height="25.0mm"
      fill="#9EA49D" stroke="none" />
<rect x="2.9296875mm" y="0.0mm"
      width="0.3255208333333333mm" height="25.0mm"
      fill="#767771" stroke="none" />
<rect x="3.255208333333333mm" y="0.0mm"
      width="0.3255208333333333mm" height="25.0mm"
      fill="#797870" stroke="none" />
<rect x="3.5807291666666665mm" y="0.0mm"
      width="0.3255208333333333mm" height="25.0mm"
      fill="#8E8F87" stroke="none" />
<rect x="3.90625mm" y="0.0mm"
      width="0.3255208333333333mm" height="25.0mm"
      fill="#81867D" stroke="none" />
<rect x="4.231770833333333mm" y="0.0mm"
      width="0.3255208333333333mm" height="25.0mm"
      fill="#7D817D" stroke="none" />
<rect x="4.557291666666666mm" y="0.0mm"
      width="0.3255208333333333mm" height="25.0mm"
      fill="#818483" stroke="none" />
<rect x="4.8828125mm" y="0.0mm"
      width="0.3255208333333333mm" height="25.0mm"
      fill="#7F827E" stroke="none" />
<rect x="5.208333333333333mm" y="0.0mm"
      width="0.3255208333333333mm" height="25.0mm"
      fill="#979B92" stroke="none" />
<rect x="5.533854166666666mm" y="0.0mm"
      width="0.3255208333333333mm" height="25.0mm"
      fill="#BCBEB6" stroke="none" />
<rect x="5.859375mm" y="0.0mm"
      width="0.3255208333333333mm" height="25.0mm"
      fill="#B1B3A9" stroke="none" />
<rect x="6.184895833333333mm" y="0.0mm"
      width="0.3255208333333333mm" height="25.0mm"
      fill="#A8A997" stroke="none" />
<rect x="6.510416666666666mm" y="0.0mm"
      width="0.3255208333333333mm" height="25.0mm"
      fill="#D1D3B9" stroke="none" />
<rect x="6.8359375mm" y="0.0mm"
      width="0.3255208333333333mm" height="25.0mm"
      fill="#FAFCE0" stroke="none" />
<rect x="7.161458333333333mm" y="0.0mm"
      width="0.3255208333333333mm" height="25.0mm"
      fill="#FFFFEE" stroke="none" />
<rect x="7.486979166666666mm" y="0.0mm"
      width="0.3255208333333333mm" height="25.0mm"
      fill="#FFFFEB" stroke="none" />
<rect x="7.8125mm" y="0.0mm"
      width="0.3255208333333333mm" height="25.0mm"
      fill="#E9EED1" stroke="none" />
<rect x="8.138020833333332mm" y="0.0mm"
      width="0.3255208333333333mm" height="25.0mm"
      fill="#EAECD2" stroke="none" />
<rect x="8.463541666666666mm" y="0.0mm"
      width="0.3255208333333333mm" height="25.0mm"
      fill="#E0E2C8" stroke="none" />
<rect x="8.7890625mm" y="0.0mm"
      width="0.3255208333333333mm" height="25.0mm"
      fill="#E1E0C5" stroke="none" />
<rect x="9.114583333333332mm" y="0.0mm"
      width="0.3255208333333333mm" height="25.0mm"
      fill="#E7E7C9" stroke="none" />
<rect x="9.440104166666666mm" y="0.0mm"
      width="0.3255208333333333mm" height="25.0mm"
      fill="#FCFCDB" stroke="none" />
<rect x="9.765625mm" y="0.0mm"
      width="0.3255208333333333mm" height="25.0mm"
      fill="#E6E9C5" stroke="none" />
<rect x="10.091145833333332mm" y="0.0mm"
      width="0.3255208333333333mm" height="25.0mm"
      fill="#FFFFE9" stroke="none" />
<rect x="10.416666666666666mm" y="0.0mm"
      width="0.3255208333333333mm" height="25.0mm"
      fill="#FFFFFB" stroke="none" />
<rect x="10.7421875mm" y="0.0mm"
      width="0.3255208333333333mm" height="25.0mm"
      fill="#FFFFE4" stroke="none" />
<rect x="11.067708333333332mm" y="0.0mm"
      width="0.3255208333333333mm" height="25.0mm"
      fill="#BABEA3" stroke="none" />
<rect x="11.393229166666666mm" y="0.0mm"
      width="0.3255208333333333mm" height="25.0mm"
      fill="#B6BEA2" stroke="none" />
<rect x="11.71875mm" y="0.0mm"
      width="0.3255208333333333mm" height="25.0mm"
      fill="#D4DEC1" stroke="none" />
<rect x="12.044270833333332mm" y="0.0mm"
      width="0.3255208333333333mm" height="25.0mm"
      fill="#D1DAC3" stroke="none" />
<rect x="12.369791666666666mm" y="0.0mm"
      width="0.3255208333333333mm" height="25.0mm"
      fill="#C2CBB6" stroke="none" />
<rect x="12.6953125mm" y="0.0mm"
      width="0.3255208333333333mm" height="25.0mm"
      fill="#C5CBB8" stroke="none" />
<rect x="13.020833333333332mm" y="0.0mm"
      width="0.3255208333333333mm" height="25.0mm"
      fill="#BEC1AE" stroke="none" />
<rect x="13.346354166666666mm" y="0.0mm"
      width="0.3255208333333333mm" height="25.0mm"
      fill="#A3A693" stroke="none" />
<rect x="13.671875mm" y="0.0mm"
      width="0.3255208333333333mm" height="25.0mm"
      fill="#989B86" stroke="none" />
<rect x="13.997395833333332mm" y="0.0mm"
      width="0.3255208333333333mm" height="25.0mm"
      fill="#949A87" stroke="none" />
<rect x="14.322916666666666mm" y="0.0mm"
      width="0.3255208333333333mm" height="25.0mm"
      fill="#89947F" stroke="none" />
<rect x="14.6484375mm" y="0.0mm"
      width="0.3255208333333333mm" height="25.0mm"
      fill="#959E89" stroke="none" />
<rect x="14.973958333333332mm" y="0.0mm"
      width="0.3255208333333333mm" height="25.0mm"
      fill="#8F9783" stroke="none" />
<rect x="15.299479166666666mm" y="0.0mm"
      width="0.3255208333333333mm" height="25.0mm"
      fill="#838877" stroke="none" />
<rect x="15.625mm" y="0.0mm"
      width="0.3255208333333333mm" height="25.0mm"
      fill="#83887A" stroke="none" />
<rect x="15.950520833333332mm" y="0.0mm"
      width="0.3255208333333333mm" height="25.0mm"
      fill="#8A8E83" stroke="none" />
<rect x="16.276041666666664mm" y="0.0mm"
      width="0.3255208333333333mm" height="25.0mm"
      fill="#868A7E" stroke="none" />
<rect x="16.6015625mm" y="0.0mm"
      width="0.3255208333333333mm" height="25.0mm"
      fill="#7F8176" stroke="none" />
<rect x="16.927083333333332mm" y="0.0mm"
      width="0.3255208333333333mm" height="25.0mm"
      fill="#76776D" stroke="none" />
<rect x="17.252604166666664mm" y="0.0mm"
      width="0.3255208333333333mm" height="25.0mm"
      fill="#727467" stroke="none" />
<rect x="17.578125mm" y="0.0mm"
      width="0.3255208333333333mm" height="25.0mm"
      fill="#777C6B" stroke="none" />
<rect x="17.903645833333332mm" y="0.0mm"
      width="0.3255208333333333mm" height="25.0mm"
      fill="#7C8474" stroke="none" />
<rect x="18.229166666666664mm" y="0.0mm"
      width="0.3255208333333333mm" height="25.0mm"
      fill="#8B9686" stroke="none" />
<rect x="18.5546875mm" y="0.0mm"
      width="0.3255208333333333mm" height="25.0mm"
      fill="#9CA592" stroke="none" />
<rect x="18.880208333333332mm" y="0.0mm"
      width="0.3255208333333333mm" height="25.0mm"
      fill="#969C88" stroke="none" />
<rect x="19.205729166666664mm" y="0.0mm"
      width="0.3255208333333333mm" height="25.0mm"
      fill="#767669" stroke="none" />
<rect x="19.53125mm" y="0.0mm"
      width="0.3255208333333333mm" height="25.0mm"
      fill="#66635A" stroke="none" />
<rect x="19.856770833333332mm" y="0.0mm"
      width="0.3255208333333333mm" height="25.0mm"
      fill="#808073" stroke="none" />
<rect x="20.182291666666664mm" y="0.0mm"
      width="0.3255208333333333mm" height="25.0mm"
      fill="#8B917F" stroke="none" />
<rect x="20.5078125mm" y="0.0mm"
      width="0.3255208333333333mm" height="25.0mm"
      fill="#929585" stroke="none" />
<rect x="20.833333333333332mm" y="0.0mm"
      width="0.3255208333333333mm" height="25.0mm"
      fill="#8B8E7E" stroke="none" />
<rect x="21.158854166666664mm" y="0.0mm"
      width="0.3255208333333333mm" height="25.0mm"
      fill="#818778" stroke="none" />
<rect x="21.484375mm" y="0.0mm"
      width="0.3255208333333333mm" height="25.0mm"
      fill="#7D8575" stroke="none" />
<rect x="21.809895833333332mm" y="0.0mm"
      width="0.3255208333333333mm" height="25.0mm"
      fill="#73756A" stroke="none" />
<rect x="22.135416666666664mm" y="0.0mm"
      width="0.3255208333333333mm" height="25.0mm"
      fill="#63625B" stroke="none" />
<rect x="22.4609375mm" y="0.0mm"
      width="0.3255208333333333mm" height="25.0mm"
      fill="#5B5A53" stroke="none" />
<rect x="22.786458333333332mm" y="0.0mm"
      width="0.3255208333333333mm" height="25.0mm"
      fill="#61635B" stroke="none" />
<rect x="23.111979166666664mm" y="0.0mm"
      width="0.3255208333333333mm" height="25.0mm"
      fill="#727369" stroke="none" />
<rect x="23.4375mm" y="0.0mm"
      width="0.3255208333333333mm" height="25.0mm"
      fill="#878C7E" stroke="none" />
<rect x="23.763020833333332mm" y="0.0mm"
      width="0.3255208333333333mm" height="25.0mm"
      fill="#8E9181" stroke="none" />
<rect x="24.088541666666664mm" y="0.0mm"
      width="0.3255208333333333mm" height="25.0mm"
      fill="#8A8E78" stroke="none" />
<rect x="24.4140625mm" y="0.0mm"
      width="0.3255208333333333mm" height="25.0mm"
      fill="#929583" stroke="none" />
<rect x="24.739583333333332mm" y="0.0mm"
      width="0.3255208333333333mm" height="25.0mm"
      fill="#868976" stroke="none" />
<rect x="25.065104166666664mm" y="0.0mm"
      width="0.3255208333333333mm" height="25.0mm"
      fill="#6C6E61" stroke="none" />
<rect x="25.390625mm" y="0.0mm"
      width="0.3255208333333333mm" height="25.0mm"
      fill="#707267" stroke="none" />
<rect x="25.716145833333332mm" y="0.0mm"
      width="0.3255208333333333mm" height="25.0mm"
      fill="#6F7068" stroke="none" />
<rect x="26.041666666666664mm" y="0.0mm"
      width="0.3255208333333333mm" height="25.0mm"
      fill="#7B7C77" stroke="none" />
<rect x="26.3671875mm" y="0.0mm"
      width="0.3255208333333333mm" height="25.0mm"
      fill="#787974" stroke="none" />
<rect x="26.692708333333332mm" y="0.0mm"
      width="0.3255208333333333mm" height="25.0mm"
      fill="#83877E" stroke="none" />
<rect x="27.018229166666664mm" y="0.0mm"
      width="0.3255208333333333mm" height="25.0mm"
      fill="#A3A89C" stroke="none" />
<rect x="27.34375mm" y="0.0mm"
      width="0.3255208333333333mm" height="25.0mm"
      fill="#98A08E" stroke="none" />
<rect x="27.669270833333332mm" y="0.0mm"
      width="0.3255208333333333mm" height="25.0mm"
      fill="#93988A" stroke="none" />
<rect x="27.994791666666664mm" y="0.0mm"
      width="0.3255208333333333mm" height="25.0mm"
      fill="#8F9488" stroke="none" />
<rect x="28.3203125mm" y="0.0mm"
      width="0.3255208333333333mm" height="25.0mm"
      fill="#85867E" stroke="none" />
<rect x="28.645833333333332mm" y="0.0mm"
      width="0.3255208333333333mm" height="25.0mm"
      fill="#6A6961" stroke="none" />
<rect x="28.971354166666664mm" y="0.0mm"
      width="0.3255208333333333mm" height="25.0mm"
      fill="#66655D" stroke="none" />
<rect x="29.296875mm" y="0.0mm"
      width="0.3255208333333333mm" height="25.0mm"
      fill="#696B61" stroke="none" />
<rect x="29.622395833333332mm" y="0.0mm"
      width="0.3255208333333333mm" height="25.0mm"
      fill="#63645C" stroke="none" />
<rect x="29.947916666666664mm" y="0.0mm"
      width="0.3255208333333333mm" height="25.0mm"
      fill="#606159" stroke="none" />
<rect x="30.2734375mm" y="0.0mm"
      width="0.3255208333333333mm" height="25.0mm"
      fill="#585953" stroke="none" />
<rect x="30.598958333333332mm" y="0.0mm"
      width="0.3255208333333333mm" height="25.0mm"
      fill="#585953" stroke="none" />
<rect x="30.924479166666664mm" y="0.0mm"
      width="0.3255208333333333mm" height="25.0mm"
      fill="#5B5B56" stroke="none" />
<rect x="31.25mm" y="0.0mm"
      width="0.3255208333333333mm" height="25.0mm"
      fill="#60615C" stroke="none" />
<rect x="31.575520833333332mm" y="0.0mm"
      width="0.3255208333333333mm" height="25.0mm"
      fill="#6E6F69" stroke="none" />
<rect x="31.901041666666664mm" y="0.0mm"
      width="0.3255208333333333mm" height="25.0mm"
      fill="#757973" stroke="none" />
<rect x="32.2265625mm" y="0.0mm"
      width="0.3255208333333333mm" height="25.0mm"
      fill="#5F605A" stroke="none" />
<rect x="32.55208333333333mm" y="0.0mm"
      width="0.3255208333333333mm" height="25.0mm"
      fill="#606159" stroke="none" />
<rect x="32.877604166666664mm" y="0.0mm"
      width="0.3255208333333333mm" height="25.0mm"
      fill="#63625B" stroke="none" />
<rect x="33.203125mm" y="0.0mm"
      width="0.3255208333333333mm" height="25.0mm"
      fill="#64645C" stroke="none" />
<rect x="33.52864583333333mm" y="0.0mm"
      width="0.3255208333333333mm" height="25.0mm"
      fill="#6A6961" stroke="none" />
<rect x="33.854166666666664mm" y="0.0mm"
      width="0.3255208333333333mm" height="25.0mm"
      fill="#64645C" stroke="none" />
<rect x="34.1796875mm" y="0.0mm"
      width="0.3255208333333333mm" height="25.0mm"
      fill="#5E5A54" stroke="none" />
<rect x="34.50520833333333mm" y="0.0mm"
      width="0.3255208333333333mm" height="25.0mm"
      fill="#5A5650" stroke="none" />
<rect x="34.830729166666664mm" y="0.0mm"
      width="0.3255208333333333mm" height="25.0mm"
      fill="#55504D" stroke="none" />
<rect x="35.15625mm" y="0.0mm"
      width="0.3255208333333333mm" height="25.0mm"
      fill="#5C5B56" stroke="none" />
<rect x="35.48177083333333mm" y="0.0mm"
      width="0.3255208333333333mm" height="25.0mm"
      fill="#6F6E69" stroke="none" />
<rect x="35.807291666666664mm" y="0.0mm"
      width="0.3255208333333333mm" height="25.0mm"
      fill="#676860" stroke="none" />
<rect x="36.1328125mm" y="0.0mm"
      width="0.3255208333333333mm" height="25.0mm"
      fill="#5F5E57" stroke="none" />
<rect x="36.45833333333333mm" y="0.0mm"
      width="0.3255208333333333mm" height="25.0mm"
      fill="#585750" stroke="none" />
<rect x="36.783854166666664mm" y="0.0mm"
      width="0.3255208333333333mm" height="25.0mm"
      fill="#53524A" stroke="none" />
<rect x="37.109375mm" y="0.0mm"
      width="0.3255208333333333mm" height="25.0mm"
      fill="#504F48" stroke="none" />
<rect x="37.43489583333333mm" y="0.0mm"
      width="0.3255208333333333mm" height="25.0mm"
      fill="#53524A" stroke="none" />
<rect x="37.760416666666664mm" y="0.0mm"
      width="0.3255208333333333mm" height="25.0mm"
      fill="#56554B" stroke="none" />
<rect x="38.0859375mm" y="0.0mm"
      width="0.3255208333333333mm" height="25.0mm"
      fill="#57564E" stroke="none" />
<rect x="38.41145833333333mm" y="0.0mm"
      width="0.3255208333333333mm" height="25.0mm"
      fill="#505149" stroke="none" />
<rect x="38.736979166666664mm" y="0.0mm"
      width="0.3255208333333333mm" height="25.0mm"
      fill="#53524A" stroke="none" />
<rect x="39.0625mm" y="0.0mm"
      width="0.3255208333333333mm" height="25.0mm"
      fill="#56524C" stroke="none" />
<rect x="39.38802083333333mm" y="0.0mm"
      width="0.3255208333333333mm" height="25.0mm"
      fill="#5A5951" stroke="none" />
<rect x="39.713541666666664mm" y="0.0mm"
      width="0.3255208333333333mm" height="25.0mm"
      fill="#5C5E53" stroke="none" />
<rect x="40.0390625mm" y="0.0mm"
      width="0.3255208333333333mm" height="25.0mm"
      fill="#696860" stroke="none" />
<rect x="40.36458333333333mm" y="0.0mm"
      width="0.3255208333333333mm" height="25.0mm"
      fill="#626159" stroke="none" />
<rect x="40.690104166666664mm" y="0.0mm"
      width="0.3255208333333333mm" height="25.0mm"
      fill="#57544D" stroke="none" />
<rect x="41.015625mm" y="0.0mm"
      width="0.3255208333333333mm" height="25.0mm"
      fill="#514D46" stroke="none" />
<rect x="41.34114583333333mm" y="0.0mm"
      width="0.3255208333333333mm" height="25.0mm"
      fill="#534F49" stroke="none" />
<rect x="41.666666666666664mm" y="0.0mm"
      width="0.3255208333333333mm" height="25.0mm"
      fill="#59554C" stroke="none" />
<rect x="41.9921875mm" y="0.0mm"
      width="0.3255208333333333mm" height="25.0mm"
      fill="#514D44" stroke="none" />
<rect x="42.31770833333333mm" y="0.0mm"
      width="0.3255208333333333mm" height="25.0mm"
      fill="#514D44" stroke="none" />
<rect x="42.643229166666664mm" y="0.0mm"
      width="0.3255208333333333mm" height="25.0mm"
      fill="#59534B" stroke="none" />
<rect x="42.96875mm" y="0.0mm"
      width="0.3255208333333333mm" height="25.0mm"
      fill="#4C453D" stroke="none" />
<rect x="43.29427083333333mm" y="0.0mm"
      width="0.3255208333333333mm" height="25.0mm"
      fill="#453F36" stroke="none" />
<rect x="43.619791666666664mm" y="0.0mm"
      width="0.3255208333333333mm" height="25.0mm"
      fill="#3F3B32" stroke="none" />
<rect x="43.9453125mm" y="0.0mm"
      width="0.3255208333333333mm" height="25.0mm"
      fill="#423E35" stroke="none" />
<rect x="44.27083333333333mm" y="0.0mm"
      width="0.3255208333333333mm" height="25.0mm"
      fill="#434238" stroke="none" />
<rect x="44.596354166666664mm" y="0.0mm"
      width="0.3255208333333333mm" height="25.0mm"
      fill="#43423A" stroke="none" />
<rect x="44.921875mm" y="0.0mm"
      width="0.3255208333333333mm" height="25.0mm"
      fill="#403E3A" stroke="none" />
<rect x="45.24739583333333mm" y="0.0mm"
      width="0.3255208333333333mm" height="25.0mm"
      fill="#44433E" stroke="none" />
<rect x="45.572916666666664mm" y="0.0mm"
      width="0.3255208333333333mm" height="25.0mm"
      fill="#50514B" stroke="none" />
<rect x="45.8984375mm" y="0.0mm"
      width="0.3255208333333333mm" height="25.0mm"
      fill="#474843" stroke="none" />
<rect x="46.22395833333333mm" y="0.0mm"
      width="0.3255208333333333mm" height="25.0mm"
      fill="#464742" stroke="none" />
<rect x="46.549479166666664mm" y="0.0mm"
      width="0.3255208333333333mm" height="25.0mm"
      fill="#565754" stroke="none" />
<rect x="46.875mm" y="0.0mm"
      width="0.3255208333333333mm" height="25.0mm"
      fill="#525552" stroke="none" />
<rect x="47.20052083333333mm" y="0.0mm"
      width="0.3255208333333333mm" height="25.0mm"
      fill="#4C4C49" stroke="none" />
<rect x="47.526041666666664mm" y="0.0mm"
      width="0.3255208333333333mm" height="25.0mm"
      fill="#4A4B46" stroke="none" />
<rect x="47.8515625mm" y="0.0mm"
      width="0.3255208333333333mm" height="25.0mm"
      fill="#5F605A" stroke="none" />
<rect x="48.17708333333333mm" y="0.0mm"
      width="0.3255208333333333mm" height="25.0mm"
      fill="#5D5F57" stroke="none" />
<rect x="48.502604166666664mm" y="0.0mm"
      width="0.3255208333333333mm" height="25.0mm"
      fill="#4B4A42" stroke="none" />
<rect x="48.828125mm" y="0.0mm"
      width="0.3255208333333333mm" height="25.0mm"
      fill="#55514A" stroke="none" />
<rect x="49.15364583333333mm" y="0.0mm"
      width="0.3255208333333333mm" height="25.0mm"
      fill="#4C4844" stroke="none" />
<rect x="49.479166666666664mm" y="0.0mm"
      width="0.3255208333333333mm" height="25.0mm"
      fill="#41403B" stroke="none" />
<rect x="49.8046875mm" y="0.0mm"
      width="0.3255208333333333mm" height="25.0mm"
      fill="#474543" stroke="none" />
<rect x="50.13020833333333mm" y="0.0mm"
      width="0.3255208333333333mm" height="25.0mm"
      fill="#3F403D" stroke="none" />
<rect x="50.455729166666664mm" y="0.0mm"
      width="0.3255208333333333mm" height="25.0mm"
      fill="#3E3F3C" stroke="none" />
<rect x="50.78125mm" y="0.0mm"
      width="0.3255208333333333mm" height="25.0mm"
      fill="#464945" stroke="none" />
<rect x="51.10677083333333mm" y="0.0mm"
      width="0.3255208333333333mm" height="25.0mm"
      fill="#41413E" stroke="none" />
<rect x="51.432291666666664mm" y="0.0mm"
      width="0.3255208333333333mm" height="25.0mm"
      fill="#403E3A" stroke="none" />
<rect x="51.7578125mm" y="0.0mm"
      width="0.3255208333333333mm" height="25.0mm"
      fill="#433F39" stroke="none" />
<rect x="52.08333333333333mm" y="0.0mm"
      width="0.3255208333333333mm" height="25.0mm"
      fill="#4C4940" stroke="none" />
<rect x="52.408854166666664mm" y="0.0mm"
      width="0.3255208333333333mm" height="25.0mm"
      fill="#4B4741" stroke="none" />
<rect x="52.734375mm" y="0.0mm"
      width="0.3255208333333333mm" height="25.0mm"
      fill="#494841" stroke="none" />
<rect x="53.05989583333333mm" y="0.0mm"
      width="0.3255208333333333mm" height="25.0mm"
      fill="#494843" stroke="none" />
<rect x="53.385416666666664mm" y="0.0mm"
      width="0.3255208333333333mm" height="25.0mm"
      fill="#4E4F4A" stroke="none" />
<rect x="53.7109375mm" y="0.0mm"
      width="0.3255208333333333mm" height="25.0mm"
      fill="#4A4B48" stroke="none" />
<rect x="54.03645833333333mm" y="0.0mm"
      width="0.3255208333333333mm" height="25.0mm"
      fill="#464744" stroke="none" />
<rect x="54.361979166666664mm" y="0.0mm"
      width="0.3255208333333333mm" height="25.0mm"
      fill="#454543" stroke="none" />
<rect x="54.6875mm" y="0.0mm"
      width="0.3255208333333333mm" height="25.0mm"
      fill="#454640" stroke="none" />
<rect x="55.01302083333333mm" y="0.0mm"
      width="0.3255208333333333mm" height="25.0mm"
      fill="#4C4B46" stroke="none" />
<rect x="55.338541666666664mm" y="0.0mm"
      width="0.3255208333333333mm" height="25.0mm"
      fill="#47463E" stroke="none" />
<rect x="55.6640625mm" y="0.0mm"
      width="0.3255208333333333mm" height="25.0mm"
      fill="#48473F" stroke="none" />
<rect x="55.98958333333333mm" y="0.0mm"
      width="0.3255208333333333mm" height="25.0mm"
      fill="#49493F" stroke="none" />
<rect x="56.315104166666664mm" y="0.0mm"
      width="0.3255208333333333mm" height="25.0mm"
      fill="#47443B" stroke="none" />
<rect x="56.640625mm" y="0.0mm"
      width="0.3255208333333333mm" height="25.0mm"
      fill="#464337" stroke="none" />
<rect x="56.96614583333333mm" y="0.0mm"
      width="0.3255208333333333mm" height="25.0mm"
      fill="#444138" stroke="none" />
<rect x="57.291666666666664mm" y="0.0mm"
      width="0.3255208333333333mm" height="25.0mm"
      fill="#433F39" stroke="none" />
<rect x="57.6171875mm" y="0.0mm"
      width="0.3255208333333333mm" height="25.0mm"
      fill="#47443B" stroke="none" />
<rect x="57.94270833333333mm" y="0.0mm"
      width="0.3255208333333333mm" height="25.0mm"
      fill="#4A473B" stroke="none" />
<rect x="58.268229166666664mm" y="0.0mm"
      width="0.3255208333333333mm" height="25.0mm"
      fill="#4C4A3E" stroke="none" />
<rect x="58.59375mm" y="0.0mm"
      width="0.3255208333333333mm" height="25.0mm"
      fill="#4A473B" stroke="none" />
<rect x="58.91927083333333mm" y="0.0mm"
      width="0.3255208333333333mm" height="25.0mm"
      fill="#464337" stroke="none" />
<rect x="59.244791666666664mm" y="0.0mm"
      width="0.3255208333333333mm" height="25.0mm"
      fill="#3E3E32" stroke="none" />
<rect x="59.5703125mm" y="0.0mm"
      width="0.3255208333333333mm" height="25.0mm"
      fill="#454538" stroke="none" />
<rect x="59.89583333333333mm" y="0.0mm"
      width="0.3255208333333333mm" height="25.0mm"
      fill="#494A3A" stroke="none" />
<rect x="60.221354166666664mm" y="0.0mm"
      width="0.3255208333333333mm" height="25.0mm"
      fill="#4C4C3F" stroke="none" />
<rect x="60.546875mm" y="0.0mm"
      width="0.3255208333333333mm" height="25.0mm"
      fill="#4B4B3E" stroke="none" />
<rect x="60.87239583333333mm" y="0.0mm"
      width="0.3255208333333333mm" height="25.0mm"
      fill="#48483B" stroke="none" />
<rect x="61.197916666666664mm" y="0.0mm"
      width="0.3255208333333333mm" height="25.0mm"
      fill="#444437" stroke="none" />
<rect x="61.5234375mm" y="0.0mm"
      width="0.3255208333333333mm" height="25.0mm"
      fill="#454538" stroke="none" />
<rect x="61.84895833333333mm" y="0.0mm"
      width="0.3255208333333333mm" height="25.0mm"
      fill="#45473A" stroke="none" />
<rect x="62.174479166666664mm" y="0.0mm"
      width="0.3255208333333333mm" height="25.0mm"
      fill="#46483D" stroke="none" />
<rect x="62.5mm" y="0.0mm"
      width="0.3255208333333333mm" height="25.0mm"
      fill="#42463B" stroke="none" />
<rect x="62.82552083333333mm" y="0.0mm"
      width="0.3255208333333333mm" height="25.0mm"
      fill="#424439" stroke="none" />
<rect x="63.151041666666664mm" y="0.0mm"
      width="0.3255208333333333mm" height="25.0mm"
      fill="#45473A" stroke="none" />
<rect x="63.47656249999999mm" y="0.0mm"
      width="0.3255208333333333mm" height="25.0mm"
      fill="#47473A" stroke="none" />
<rect x="63.80208333333333mm" y="0.0mm"
      width="0.3255208333333333mm" height="25.0mm"
      fill="#48483B" stroke="none" />
<rect x="64.12760416666666mm" y="0.0mm"
      width="0.3255208333333333mm" height="25.0mm"
      fill="#45453B" stroke="none" />
<rect x="64.453125mm" y="0.0mm"
      width="0.3255208333333333mm" height="25.0mm"
      fill="#41423A" stroke="none" />
<rect x="64.77864583333333mm" y="0.0mm"
      width="0.3255208333333333mm" height="25.0mm"
      fill="#3F403B" stroke="none" />
<rect x="65.10416666666666mm" y="0.0mm"
      width="0.3255208333333333mm" height="25.0mm"
      fill="#393D37" stroke="none" />
<rect x="65.4296875mm" y="0.0mm"
      width="0.3255208333333333mm" height="25.0mm"
      fill="#3E3F3A" stroke="none" />
<rect x="65.75520833333333mm" y="0.0mm"
      width="0.3255208333333333mm" height="25.0mm"
      fill="#43453D" stroke="none" />
<rect x="66.08072916666666mm" y="0.0mm"
      width="0.3255208333333333mm" height="25.0mm"
      fill="#46473F" stroke="none" />
<rect x="66.40625mm" y="0.0mm"
      width="0.3255208333333333mm" height="25.0mm"
      fill="#47493F" stroke="none" />
<rect x="66.73177083333333mm" y="0.0mm"
      width="0.3255208333333333mm" height="25.0mm"
      fill="#40443E" stroke="none" />
<rect x="67.05729166666666mm" y="0.0mm"
      width="0.3255208333333333mm" height="25.0mm"
      fill="#3B443E" stroke="none" />
<rect x="67.3828125mm" y="0.0mm"
      width="0.3255208333333333mm" height="25.0mm"
      fill="#3C423D" stroke="none" />
<rect x="67.70833333333333mm" y="0.0mm"
      width="0.3255208333333333mm" height="25.0mm"
      fill="#3D433E" stroke="none" />
<rect x="68.03385416666666mm" y="0.0mm"
      width="0.3255208333333333mm" height="25.0mm"
      fill="#404440" stroke="none" />
<rect x="68.359375mm" y="0.0mm"
      width="0.3255208333333333mm" height="25.0mm"
      fill="#434643" stroke="none" />
<rect x="68.68489583333333mm" y="0.0mm"
      width="0.3255208333333333mm" height="25.0mm"
      fill="#404440" stroke="none" />
<rect x="69.01041666666666mm" y="0.0mm"
      width="0.3255208333333333mm" height="25.0mm"
      fill="#3E453E" stroke="none" />
<rect x="69.3359375mm" y="0.0mm"
      width="0.3255208333333333mm" height="25.0mm"
      fill="#3A413A" stroke="none" />
<rect x="69.66145833333333mm" y="0.0mm"
      width="0.3255208333333333mm" height="25.0mm"
      fill="#3D443C" stroke="none" />
<rect x="69.98697916666666mm" y="0.0mm"
      width="0.3255208333333333mm" height="25.0mm"
      fill="#42453F" stroke="none" />
<rect x="70.3125mm" y="0.0mm"
      width="0.3255208333333333mm" height="25.0mm"
      fill="#454640" stroke="none" />
<rect x="70.63802083333333mm" y="0.0mm"
      width="0.3255208333333333mm" height="25.0mm"
      fill="#454640" stroke="none" />
<rect x="70.96354166666666mm" y="0.0mm"
      width="0.3255208333333333mm" height="25.0mm"
      fill="#474B44" stroke="none" />
<rect x="71.2890625mm" y="0.0mm"
      width="0.3255208333333333mm" height="25.0mm"
      fill="#5F6560" stroke="none" />
<rect x="71.61458333333333mm" y="0.0mm"
      width="0.3255208333333333mm" height="25.0mm"
      fill="#56605A" stroke="none" />
<rect x="71.94010416666666mm" y="0.0mm"
      width="0.3255208333333333mm" height="25.0mm"
      fill="#4D5552" stroke="none" />
<rect x="72.265625mm" y="0.0mm"
      width="0.3255208333333333mm" height="25.0mm"
      fill="#49514E" stroke="none" />
<rect x="72.59114583333333mm" y="0.0mm"
      width="0.3255208333333333mm" height="25.0mm"
      fill="#3D4544" stroke="none" />
<rect x="72.91666666666666mm" y="0.0mm"
      width="0.3255208333333333mm" height="25.0mm"
      fill="#41484B" stroke="none" />
<rect x="73.2421875mm" y="0.0mm"
      width="0.3255208333333333mm" height="25.0mm"
      fill="#41484D" stroke="none" />
<rect x="73.56770833333333mm" y="0.0mm"
      width="0.3255208333333333mm" height="25.0mm"
      fill="#394447" stroke="none" />
<rect x="73.89322916666666mm" y="0.0mm"
      width="0.3255208333333333mm" height="25.0mm"
      fill="#3A4244" stroke="none" />
<rect x="74.21875mm" y="0.0mm"
      width="0.3255208333333333mm" height="25.0mm"
      fill="#394140" stroke="none" />
<rect x="74.54427083333333mm" y="0.0mm"
      width="0.3255208333333333mm" height="25.0mm"
      fill="#394042" stroke="none" />
<rect x="74.86979166666666mm" y="0.0mm"
      width="0.3255208333333333mm" height="25.0mm"
      fill="#3B4345" stroke="none" />
<rect x="75.1953125mm" y="0.0mm"
      width="0.3255208333333333mm" height="25.0mm"
      fill="#3B4549" stroke="none" />
<rect x="75.52083333333333mm" y="0.0mm"
      width="0.3255208333333333mm" height="25.0mm"
      fill="#38444A" stroke="none" />
<rect x="75.84635416666666mm" y="0.0mm"
      width="0.3255208333333333mm" height="25.0mm"
      fill="#3C484E" stroke="none" />
<rect x="76.171875mm" y="0.0mm"
      width="0.3255208333333333mm" height="25.0mm"
      fill="#3D4A4F" stroke="none" />
<rect x="76.49739583333333mm" y="0.0mm"
      width="0.3255208333333333mm" height="25.0mm"
      fill="#39454D" stroke="none" />
<rect x="76.82291666666666mm" y="0.0mm"
      width="0.3255208333333333mm" height="25.0mm"
      fill="#37464D" stroke="none" />
<rect x="77.1484375mm" y="0.0mm"
      width="0.3255208333333333mm" height="25.0mm"
      fill="#3D4A4F" stroke="none" />
<rect x="77.47395833333333mm" y="0.0mm"
      width="0.3255208333333333mm" height="25.0mm"
      fill="#394447" stroke="none" />
<rect x="77.79947916666666mm" y="0.0mm"
      width="0.3255208333333333mm" height="25.0mm"
      fill="#384248" stroke="none" />
<rect x="78.125mm" y="0.0mm"
      width="0.3255208333333333mm" height="25.0mm"
      fill="#39434A" stroke="none" />
<rect x="78.45052083333333mm" y="0.0mm"
      width="0.3255208333333333mm" height="25.0mm"
      fill="#42494E" stroke="none" />
<rect x="78.77604166666666mm" y="0.0mm"
      width="0.3255208333333333mm" height="25.0mm"
      fill="#4D5555" stroke="none" />
<rect x="79.1015625mm" y="0.0mm"
      width="0.3255208333333333mm" height="25.0mm"
      fill="#464947" stroke="none" />
<rect x="79.42708333333333mm" y="0.0mm"
      width="0.3255208333333333mm" height="25.0mm"
      fill="#3F403D" stroke="none" />
<rect x="79.75260416666666mm" y="0.0mm"
      width="0.3255208333333333mm" height="25.0mm"
      fill="#3E4042" stroke="none" />
<rect x="80.078125mm" y="0.0mm"
      width="0.3255208333333333mm" height="25.0mm"
      fill="#404548" stroke="none" />
<rect x="80.40364583333333mm" y="0.0mm"
      width="0.3255208333333333mm" height="25.0mm"
      fill="#404548" stroke="none" />
<rect x="80.72916666666666mm" y="0.0mm"
      width="0.3255208333333333mm" height="25.0mm"
      fill="#3E4444" stroke="none" />
<rect x="81.0546875mm" y="0.0mm"
      width="0.3255208333333333mm" height="25.0mm"
      fill="#3A4040" stroke="none" />
<rect x="81.38020833333333mm" y="0.0mm"
      width="0.3255208333333333mm" height="25.0mm"
      fill="#3C413F" stroke="none" />
<rect x="81.70572916666666mm" y="0.0mm"
      width="0.3255208333333333mm" height="25.0mm"
      fill="#3D4243" stroke="none" />
<rect x="82.03125mm" y="0.0mm"
      width="0.3255208333333333mm" height="25.0mm"
      fill="#3E4346" stroke="none" />
<rect x="82.35677083333333mm" y="0.0mm"
      width="0.3255208333333333mm" height="25.0mm"
      fill="#42494E" stroke="none" />
<rect x="82.68229166666666mm" y="0.0mm"
      width="0.3255208333333333mm" height="25.0mm"
      fill="#404C52" stroke="none" />
<rect x="83.0078125mm" y="0.0mm"
      width="0.3255208333333333mm" height="25.0mm"
      fill="#424B52" stroke="none" />
<rect x="83.33333333333333mm" y="0.0mm"
      width="0.3255208333333333mm" height="25.0mm"
      fill="#3B4549" stroke="none" />
<rect x="83.65885416666666mm" y="0.0mm"
      width="0.3255208333333333mm" height="25.0mm"
      fill="#3D4245" stroke="none" />
<rect x="83.984375mm" y="0.0mm"
      width="0.3255208333333333mm" height="25.0mm"
      fill="#454545" stroke="none" />
<rect x="84.30989583333333mm" y="0.0mm"
      width="0.3255208333333333mm" height="25.0mm"
      fill="#4D4C47" stroke="none" />
<rect x="84.63541666666666mm" y="0.0mm"
      width="0.3255208333333333mm" height="25.0mm"
      fill="#4D4D40" stroke="none" />
<rect x="84.9609375mm" y="0.0mm"
      width="0.3255208333333333mm" height="25.0mm"
      fill="#464337" stroke="none" />
<rect x="85.28645833333333mm" y="0.0mm"
      width="0.3255208333333333mm" height="25.0mm"
      fill="#434034" stroke="none" />
<rect x="85.61197916666666mm" y="0.0mm"
      width="0.3255208333333333mm" height="25.0mm"
      fill="#464337" stroke="none" />
<rect x="85.9375mm" y="0.0mm"
      width="0.3255208333333333mm" height="25.0mm"
      fill="#4A473B" stroke="none" />
<rect x="86.26302083333333mm" y="0.0mm"
      width="0.3255208333333333mm" height="25.0mm"
      fill="#48453C" stroke="none" />
<rect x="86.58854166666666mm" y="0.0mm"
      width="0.3255208333333333mm" height="25.0mm"
      fill="#414039" stroke="none" />
<rect x="86.9140625mm" y="0.0mm"
      width="0.3255208333333333mm" height="25.0mm"
      fill="#414039" stroke="none" />
<rect x="87.23958333333333mm" y="0.0mm"
      width="0.3255208333333333mm" height="25.0mm"
      fill="#47463E" stroke="none" />
<rect x="87.56510416666666mm" y="0.0mm"
      width="0.3255208333333333mm" height="25.0mm"
      fill="#4B4A42" stroke="none" />
<rect x="87.890625mm" y="0.0mm"
      width="0.3255208333333333mm" height="25.0mm"
      fill="#46473F" stroke="none" />
<rect x="88.21614583333333mm" y="0.0mm"
      width="0.3255208333333333mm" height="25.0mm"
      fill="#494A44" stroke="none" />
<rect x="88.54166666666666mm" y="0.0mm"
      width="0.3255208333333333mm" height="25.0mm"
      fill="#43443F" stroke="none" />
<rect x="88.8671875mm" y="0.0mm"
      width="0.3255208333333333mm" height="25.0mm"
      fill="#43453D" stroke="none" />
<rect x="89.19270833333333mm" y="0.0mm"
      width="0.3255208333333333mm" height="25.0mm"
      fill="#43453B" stroke="none" />
<rect x="89.51822916666666mm" y="0.0mm"
      width="0.3255208333333333mm" height="25.0mm"
      fill="#45443D" stroke="none" />
<rect x="89.84375mm" y="0.0mm"
      width="0.3255208333333333mm" height="25.0mm"
      fill="#44433B" stroke="none" />
<rect x="90.16927083333333mm" y="0.0mm"
      width="0.3255208333333333mm" height="25.0mm"
      fill="#44433E" stroke="none" />
<rect x="90.49479166666666mm" y="0.0mm"
      width="0.3255208333333333mm" height="25.0mm"
      fill="#454640" stroke="none" />
<rect x="90.8203125mm" y="0.0mm"
      width="0.3255208333333333mm" height="25.0mm"
      fill="#464744" stroke="none" />
<rect x="91.14583333333333mm" y="0.0mm"
      width="0.3255208333333333mm" height="25.0mm"
      fill="#444844" stroke="none" />
<rect x="91.47135416666666mm" y="0.0mm"
      width="0.3255208333333333mm" height="25.0mm"
      fill="#444746" stroke="none" />
<rect x="91.796875mm" y="0.0mm"
      width="0.3255208333333333mm" height="25.0mm"
      fill="#4B504E" stroke="none" />
<rect x="92.12239583333333mm" y="0.0mm"
      width="0.3255208333333333mm" height="25.0mm"
      fill="#444746" stroke="none" />
<rect x="92.44791666666666mm" y="0.0mm"
      width="0.3255208333333333mm" height="25.0mm"
      fill="#444844" stroke="none" />
<rect x="92.7734375mm" y="0.0mm"
      width="0.3255208333333333mm" height="25.0mm"
      fill="#474A49" stroke="none" />
<rect x="93.09895833333333mm" y="0.0mm"
      width="0.3255208333333333mm" height="25.0mm"
      fill="#484E4C" stroke="none" />
<rect x="93.42447916666666mm" y="0.0mm"
      width="0.3255208333333333mm" height="25.0mm"
      fill="#454B4B" stroke="none" />
<rect x="93.75mm" y="0.0mm"
      width="0.3255208333333333mm" height="25.0mm"
      fill="#3F4749" stroke="none" />
<rect x="94.07552083333333mm" y="0.0mm"
      width="0.3255208333333333mm" height="25.0mm"
      fill="#3F4749" stroke="none" />
<rect x="94.40104166666666mm" y="0.0mm"
      width="0.3255208333333333mm" height="25.0mm"
      fill="#3F4747" stroke="none" />
<rect x="94.7265625mm" y="0.0mm"
      width="0.3255208333333333mm" height="25.0mm"
      fill="#3E4646" stroke="none" />
<rect x="95.05208333333333mm" y="0.0mm"
      width="0.3255208333333333mm" height="25.0mm"
      fill="#3B4343" stroke="none" />
<rect x="95.37760416666666mm" y="0.0mm"
      width="0.3255208333333333mm" height="25.0mm"
      fill="#3E4442" stroke="none" />
<rect x="95.703125mm" y="0.0mm"
      width="0.3255208333333333mm" height="25.0mm"
      fill="#444A45" stroke="none" />
<rect x="96.02864583333333mm" y="0.0mm"
      width="0.3255208333333333mm" height="25.0mm"
      fill="#484E4C" stroke="none" />
<rect x="96.35416666666666mm" y="0.0mm"
      width="0.3255208333333333mm" height="25.0mm"
      fill="#4D5552" stroke="none" />
<rect x="96.6796875mm" y="0.0mm"
      width="0.3255208333333333mm" height="25.0mm"
      fill="#4C5453" stroke="none" />
<rect x="97.00520833333333mm" y="0.0mm"
      width="0.3255208333333333mm" height="25.0mm"
      fill="#4A5252" stroke="none" />
<rect x="97.33072916666666mm" y="0.0mm"
      width="0.3255208333333333mm" height="25.0mm"
      fill="#454A4D" stroke="none" />
<rect x="97.65625mm" y="0.0mm"
      width="0.3255208333333333mm" height="25.0mm"
      fill="#363B3E" stroke="none" />
<rect x="97.98177083333333mm" y="0.0mm"
      width="0.3255208333333333mm" height="25.0mm"
      fill="#323738" stroke="none" />
<rect x="98.30729166666666mm" y="0.0mm"
      width="0.3255208333333333mm" height="25.0mm"
      fill="#353B39" stroke="none" />
<rect x="98.6328125mm" y="0.0mm"
      width="0.3255208333333333mm" height="25.0mm"
      fill="#3E4442" stroke="none" />
<rect x="98.95833333333333mm" y="0.0mm"
      width="0.3255208333333333mm" height="25.0mm"
      fill="#353B39" stroke="none" />
<rect x="99.28385416666666mm" y="0.0mm"
      width="0.3255208333333333mm" height="25.0mm"
      fill="#2D3230" stroke="none" />
<rect x="99.609375mm" y="0.0mm"
      width="0.3255208333333333mm" height="25.0mm"
      fill="#2E3430" stroke="none" />
<rect x="99.93489583333333mm" y="0.0mm"
      width="0.3255208333333333mm" height="25.0mm"
      fill="#313732" stroke="none" />
<rect x="100.26041666666666mm" y="0.0mm"
      width="0.3255208333333333mm" height="25.0mm"
      fill="#313730" stroke="none" />
<rect x="100.5859375mm" y="0.0mm"
      width="0.3255208333333333mm" height="25.0mm"
      fill="#2F3631" stroke="none" />
<rect x="100.91145833333333mm" y="0.0mm"
      width="0.3255208333333333mm" height="25.0mm"
      fill="#383E39" stroke="none" />
<rect x="101.23697916666666mm" y="0.0mm"
      width="0.3255208333333333mm" height="25.0mm"
      fill="#363D38" stroke="none" />
<rect x="101.5625mm" y="0.0mm"
      width="0.3255208333333333mm" height="25.0mm"
      fill="#2D332C" stroke="none" />
<rect x="101.88802083333333mm" y="0.0mm"
      width="0.3255208333333333mm" height="25.0mm"
      fill="#2D332E" stroke="none" />
<rect x="102.21354166666666mm" y="0.0mm"
      width="0.3255208333333333mm" height="25.0mm"
      fill="#2F3832" stroke="none" />
<rect x="102.5390625mm" y="0.0mm"
      width="0.3255208333333333mm" height="25.0mm"
      fill="#323B35" stroke="none" />
<rect x="102.86458333333333mm" y="0.0mm"
      width="0.3255208333333333mm" height="25.0mm"
      fill="#2F3832" stroke="none" />
<rect x="103.19010416666666mm" y="0.0mm"
      width="0.3255208333333333mm" height="25.0mm"
      fill="#363D38" stroke="none" />
<rect x="103.515625mm" y="0.0mm"
      width="0.3255208333333333mm" height="25.0mm"
      fill="#3E413B" stroke="none" />
<rect x="103.84114583333333mm" y="0.0mm"
      width="0.3255208333333333mm" height="25.0mm"
      fill="#3F433C" stroke="none" />
<rect x="104.16666666666666mm" y="0.0mm"
      width="0.3255208333333333mm" height="25.0mm"
      fill="#464943" stroke="none" />
<rect x="104.4921875mm" y="0.0mm"
      width="0.3255208333333333mm" height="25.0mm"
      fill="#4A4D4C" stroke="none" />
<rect x="104.81770833333333mm" y="0.0mm"
      width="0.3255208333333333mm" height="25.0mm"
      fill="#47494B" stroke="none" />
<rect x="105.14322916666666mm" y="0.0mm"
      width="0.3255208333333333mm" height="25.0mm"
      fill="#4C4C4C" stroke="none" />
<rect x="105.46875mm" y="0.0mm"
      width="0.3255208333333333mm" height="25.0mm"
      fill="#525350" stroke="none" />
<rect x="105.79427083333333mm" y="0.0mm"
      width="0.3255208333333333mm" height="25.0mm"
      fill="#4E4F4A" stroke="none" />
<rect x="106.11979166666666mm" y="0.0mm"
      width="0.3255208333333333mm" height="25.0mm"
      fill="#5C5D55" stroke="none" />
<rect x="106.4453125mm" y="0.0mm"
      width="0.3255208333333333mm" height="25.0mm"
      fill="#605F58" stroke="none" />
<rect x="106.77083333333333mm" y="0.0mm"
      width="0.3255208333333333mm" height="25.0mm"
      fill="#4F4E46" stroke="none" />
<rect x="107.09635416666666mm" y="0.0mm"
      width="0.3255208333333333mm" height="25.0mm"
      fill="#5E5D55" stroke="none" />
<rect x="107.421875mm" y="0.0mm"
      width="0.3255208333333333mm" height="25.0mm"
      fill="#74766B" stroke="none" />
<rect x="107.74739583333333mm" y="0.0mm"
      width="0.3255208333333333mm" height="25.0mm"
      fill="#737568" stroke="none" />
<rect x="108.07291666666666mm" y="0.0mm"
      width="0.3255208333333333mm" height="25.0mm"
      fill="#656A59" stroke="none" />
<rect x="108.3984375mm" y="0.0mm"
      width="0.3255208333333333mm" height="25.0mm"
      fill="#6B6D60" stroke="none" />
<rect x="108.72395833333333mm" y="0.0mm"
      width="0.3255208333333333mm" height="25.0mm"
      fill="#67695C" stroke="none" />
<rect x="109.04947916666666mm" y="0.0mm"
      width="0.3255208333333333mm" height="25.0mm"
      fill="#707365" stroke="none" />
<rect x="109.375mm" y="0.0mm"
      width="0.3255208333333333mm" height="25.0mm"
      fill="#777C6D" stroke="none" />
<rect x="109.70052083333333mm" y="0.0mm"
      width="0.3255208333333333mm" height="25.0mm"
      fill="#565A53" stroke="none" />
<rect x="110.02604166666666mm" y="0.0mm"
      width="0.3255208333333333mm" height="25.0mm"
      fill="#4B4E4D" stroke="none" />
<rect x="110.3515625mm" y="0.0mm"
      width="0.3255208333333333mm" height="25.0mm"
      fill="#4B4E4D" stroke="none" />
<rect x="110.67708333333333mm" y="0.0mm"
      width="0.3255208333333333mm" height="25.0mm"
      fill="#4F534F" stroke="none" />
<rect x="111.00260416666666mm" y="0.0mm"
      width="0.3255208333333333mm" height="25.0mm"
      fill="#4E524B" stroke="none" />
<rect x="111.328125mm" y="0.0mm"
      width="0.3255208333333333mm" height="25.0mm"
      fill="#52564D" stroke="none" />
<rect x="111.65364583333333mm" y="0.0mm"
      width="0.3255208333333333mm" height="25.0mm"
      fill="#67685E" stroke="none" />
<rect x="111.97916666666666mm" y="0.0mm"
      width="0.3255208333333333mm" height="25.0mm"
      fill="#686A5D" stroke="none" />
<rect x="112.3046875mm" y="0.0mm"
      width="0.3255208333333333mm" height="25.0mm"
      fill="#5D6156" stroke="none" />
<rect x="112.63020833333333mm" y="0.0mm"
      width="0.3255208333333333mm" height="25.0mm"
      fill="#6F766C" stroke="none" />
<rect x="112.95572916666666mm" y="0.0mm"
      width="0.3255208333333333mm" height="25.0mm"
      fill="#5E6259" stroke="none" />
<rect x="113.28125mm" y="0.0mm"
      width="0.3255208333333333mm" height="25.0mm"
      fill="#585951" stroke="none" />
<rect x="113.60677083333333mm" y="0.0mm"
      width="0.3255208333333333mm" height="25.0mm"
      fill="#67665F" stroke="none" />
<rect x="113.93229166666666mm" y="0.0mm"
      width="0.3255208333333333mm" height="25.0mm"
      fill="#636358" stroke="none" />
<rect x="114.2578125mm" y="0.0mm"
      width="0.3255208333333333mm" height="25.0mm"
      fill="#6D6D60" stroke="none" />
<rect x="114.58333333333333mm" y="0.0mm"
      width="0.3255208333333333mm" height="25.0mm"
      fill="#6E715E" stroke="none" />
<rect x="114.90885416666666mm" y="0.0mm"
      width="0.3255208333333333mm" height="25.0mm"
      fill="#787B6B" stroke="none" />
<rect x="115.234375mm" y="0.0mm"
      width="0.3255208333333333mm" height="25.0mm"
      fill="#747767" stroke="none" />
<rect x="115.55989583333333mm" y="0.0mm"
      width="0.3255208333333333mm" height="25.0mm"
      fill="#6E6E61" stroke="none" />
<rect x="115.88541666666666mm" y="0.0mm"
      width="0.3255208333333333mm" height="25.0mm"
      fill="#7C796D" stroke="none" />
<rect x="116.2109375mm" y="0.0mm"
      width="0.3255208333333333mm" height="25.0mm"
      fill="#63645C" stroke="none" />
<rect x="116.53645833333333mm" y="0.0mm"
      width="0.3255208333333333mm" height="25.0mm"
      fill="#505652" stroke="none" />
<rect x="116.86197916666666mm" y="0.0mm"
      width="0.3255208333333333mm" height="25.0mm"
      fill="#555854" stroke="none" />
<rect x="117.1875mm" y="0.0mm"
      width="0.3255208333333333mm" height="25.0mm"
      fill="#5F635D" stroke="none" />
<rect x="117.51302083333333mm" y="0.0mm"
      width="0.3255208333333333mm" height="25.0mm"
      fill="#6D736E" stroke="none" />
<rect x="117.83854166666666mm" y="0.0mm"
      width="0.3255208333333333mm" height="25.0mm"
      fill="#5F6862" stroke="none" />
<rect x="118.1640625mm" y="0.0mm"
      width="0.3255208333333333mm" height="25.0mm"
      fill="#4C5453" stroke="none" />
<rect x="118.48958333333333mm" y="0.0mm"
      width="0.3255208333333333mm" height="25.0mm"
      fill="#464E50" stroke="none" />
<rect x="118.81510416666666mm" y="0.0mm"
      width="0.3255208333333333mm" height="25.0mm"
      fill="#474F51" stroke="none" />
<rect x="119.140625mm" y="0.0mm"
      width="0.3255208333333333mm" height="25.0mm"
      fill="#424C4D" stroke="none" />
<rect x="119.46614583333333mm" y="0.0mm"
      width="0.3255208333333333mm" height="25.0mm"
      fill="#42494E" stroke="none" />
<rect x="119.79166666666666mm" y="0.0mm"
      width="0.3255208333333333mm" height="25.0mm"
      fill="#41484D" stroke="none" />
<rect x="120.1171875mm" y="0.0mm"
      width="0.3255208333333333mm" height="25.0mm"
      fill="#343C3E" stroke="none" />
<rect x="120.44270833333333mm" y="0.0mm"
      width="0.3255208333333333mm" height="25.0mm"
      fill="#3E4646" stroke="none" />
<rect x="120.76822916666666mm" y="0.0mm"
      width="0.3255208333333333mm" height="25.0mm"
      fill="#4D5557" stroke="none" />
<rect x="121.09375mm" y="0.0mm"
      width="0.3255208333333333mm" height="25.0mm"
      fill="#474F54" stroke="none" />
<rect x="121.41927083333333mm" y="0.0mm"
      width="0.3255208333333333mm" height="25.0mm"
      fill="#4D5351" stroke="none" />
<rect x="121.74479166666666mm" y="0.0mm"
      width="0.3255208333333333mm" height="25.0mm"
      fill="#5A5E55" stroke="none" />
<rect x="122.0703125mm" y="0.0mm"
      width="0.3255208333333333mm" height="25.0mm"
      fill="#6A6F63" stroke="none" />
<rect x="122.39583333333333mm" y="0.0mm"
      width="0.3255208333333333mm" height="25.0mm"
      fill="#777C6B" stroke="none" />
<rect x="122.72135416666666mm" y="0.0mm"
      width="0.3255208333333333mm" height="25.0mm"
      fill="#787B6B" stroke="none" />
<rect x="123.046875mm" y="0.0mm"
      width="0.3255208333333333mm" height="25.0mm"
      fill="#6F725F" stroke="none" />
<rect x="123.37239583333333mm" y="0.0mm"
      width="0.3255208333333333mm" height="25.0mm"
      fill="#656858" stroke="none" />
<rect x="123.69791666666666mm" y="0.0mm"
      width="0.3255208333333333mm" height="25.0mm"
      fill="#5F6153" stroke="none" />
<rect x="124.0234375mm" y="0.0mm"
      width="0.3255208333333333mm" height="25.0mm"
      fill="#5A5A4D" stroke="none" />
<rect x="124.34895833333333mm" y="0.0mm"
      width="0.3255208333333333mm" height="25.0mm"
      fill="#5B5B4E" stroke="none" />
<rect x="124.67447916666666mm" y="0.0mm"
      width="0.3255208333333333mm" height="25.0mm"
      fill="#575549" stroke="none" />
<rect x="125.0mm" y="0.0mm"
      width="0.3255208333333333mm" height="25.0mm"
      fill="#575546" stroke="none" />
<rect x="125.32552083333333mm" y="0.0mm"
      width="0.3255208333333333mm" height="25.0mm"
      fill="#5F5E54" stroke="none" />
<rect x="125.65104166666666mm" y="0.0mm"
      width="0.3255208333333333mm" height="25.0mm"
      fill="#585951" stroke="none" />
<rect x="125.97656249999999mm" y="0.0mm"
      width="0.3255208333333333mm" height="25.0mm"
      fill="#50514B" stroke="none" />
<rect x="126.30208333333333mm" y="0.0mm"
      width="0.3255208333333333mm" height="25.0mm"
      fill="#515450" stroke="none" />
<rect x="126.62760416666666mm" y="0.0mm"
      width="0.3255208333333333mm" height="25.0mm"
      fill="#5F635F" stroke="none" />
<rect x="126.95312499999999mm" y="0.0mm"
      width="0.3255208333333333mm" height="25.0mm"
      fill="#484E49" stroke="none" />
<rect x="127.27864583333333mm" y="0.0mm"
      width="0.3255208333333333mm" height="25.0mm"
      fill="#393F3D" stroke="none" />
<rect x="127.60416666666666mm" y="0.0mm"
      width="0.3255208333333333mm" height="25.0mm"
      fill="#404546" stroke="none" />
<rect x="127.92968749999999mm" y="0.0mm"
      width="0.3255208333333333mm" height="25.0mm"
      fill="#4C5453" stroke="none" />
<rect x="128.25520833333331mm" y="0.0mm"
      width="0.3255208333333333mm" height="25.0mm"
      fill="#46514F" stroke="none" />
<rect x="128.58072916666666mm" y="0.0mm"
      width="0.3255208333333333mm" height="25.0mm"
      fill="#434E4F" stroke="none" />
<rect x="128.90625mm" y="0.0mm"
      width="0.3255208333333333mm" height="25.0mm"
      fill="#424C4D" stroke="none" />
<rect x="129.23177083333331mm" y="0.0mm"
      width="0.3255208333333333mm" height="25.0mm"
      fill="#3F494D" stroke="none" />
<rect x="129.55729166666666mm" y="0.0mm"
      width="0.3255208333333333mm" height="25.0mm"
      fill="#3C464A" stroke="none" />
<rect x="129.8828125mm" y="0.0mm"
      width="0.3255208333333333mm" height="25.0mm"
      fill="#384344" stroke="none" />
<rect x="130.20833333333331mm" y="0.0mm"
      width="0.3255208333333333mm" height="25.0mm"
      fill="#485352" stroke="none" />
<rect x="130.53385416666666mm" y="0.0mm"
      width="0.3255208333333333mm" height="25.0mm"
      fill="#596161" stroke="none" />
<rect x="130.859375mm" y="0.0mm"
      width="0.3255208333333333mm" height="25.0mm"
      fill="#495151" stroke="none" />
<rect x="131.18489583333331mm" y="0.0mm"
      width="0.3255208333333333mm" height="25.0mm"
      fill="#454C4F" stroke="none" />
<rect x="131.51041666666666mm" y="0.0mm"
      width="0.3255208333333333mm" height="25.0mm"
      fill="#41484B" stroke="none" />
<rect x="131.8359375mm" y="0.0mm"
      width="0.3255208333333333mm" height="25.0mm"
      fill="#3E454A" stroke="none" />
<rect x="132.16145833333331mm" y="0.0mm"
      width="0.3255208333333333mm" height="25.0mm"
      fill="#3B454B" stroke="none" />
<rect x="132.48697916666666mm" y="0.0mm"
      width="0.3255208333333333mm" height="25.0mm"
      fill="#404A50" stroke="none" />
<rect x="132.8125mm" y="0.0mm"
      width="0.3255208333333333mm" height="25.0mm"
      fill="#445056" stroke="none" />
<rect x="133.13802083333331mm" y="0.0mm"
      width="0.3255208333333333mm" height="25.0mm"
      fill="#445056" stroke="none" />
<rect x="133.46354166666666mm" y="0.0mm"
      width="0.3255208333333333mm" height="25.0mm"
      fill="#38444A" stroke="none" />
<rect x="133.7890625mm" y="0.0mm"
      width="0.3255208333333333mm" height="25.0mm"
      fill="#3F4845" stroke="none" />
<rect x="134.11458333333331mm" y="0.0mm"
      width="0.3255208333333333mm" height="25.0mm"
      fill="#6A7165" stroke="none" />
<rect x="134.44010416666666mm" y="0.0mm"
      width="0.3255208333333333mm" height="25.0mm"
      fill="#84897B" stroke="none" />
<rect x="134.765625mm" y="0.0mm"
      width="0.3255208333333333mm" height="25.0mm"
      fill="#656858" stroke="none" />
<rect x="135.09114583333331mm" y="0.0mm"
      width="0.3255208333333333mm" height="25.0mm"
      fill="#56584E" stroke="none" />
<rect x="135.41666666666666mm" y="0.0mm"
      width="0.3255208333333333mm" height="25.0mm"
      fill="#555651" stroke="none" />
<rect x="135.7421875mm" y="0.0mm"
      width="0.3255208333333333mm" height="25.0mm"
      fill="#434643" stroke="none" />
<rect x="136.06770833333331mm" y="0.0mm"
      width="0.3255208333333333mm" height="25.0mm"
      fill="#393F3D" stroke="none" />
<rect x="136.39322916666666mm" y="0.0mm"
      width="0.3255208333333333mm" height="25.0mm"
      fill="#383D3D" stroke="none" />
<rect x="136.71875mm" y="0.0mm"
      width="0.3255208333333333mm" height="25.0mm"
      fill="#393E41" stroke="none" />
<rect x="137.04427083333331mm" y="0.0mm"
      width="0.3255208333333333mm" height="25.0mm"
      fill="#434B50" stroke="none" />
<rect x="137.36979166666666mm" y="0.0mm"
      width="0.3255208333333333mm" height="25.0mm"
      fill="#414E53" stroke="none" />
<rect x="137.6953125mm" y="0.0mm"
      width="0.3255208333333333mm" height="25.0mm"
      fill="#364348" stroke="none" />
<rect x="138.02083333333331mm" y="0.0mm"
      width="0.3255208333333333mm" height="25.0mm"
      fill="#394649" stroke="none" />
<rect x="138.34635416666666mm" y="0.0mm"
      width="0.3255208333333333mm" height="25.0mm"
      fill="#475253" stroke="none" />
<rect x="138.671875mm" y="0.0mm"
      width="0.3255208333333333mm" height="25.0mm"
      fill="#3C4746" stroke="none" />
<rect x="138.99739583333331mm" y="0.0mm"
      width="0.3255208333333333mm" height="25.0mm"
      fill="#394445" stroke="none" />
<rect x="139.32291666666666mm" y="0.0mm"
      width="0.3255208333333333mm" height="25.0mm"
      fill="#354041" stroke="none" />
<rect x="139.6484375mm" y="0.0mm"
      width="0.3255208333333333mm" height="25.0mm"
      fill="#42494E" stroke="none" />
<rect x="139.97395833333331mm" y="0.0mm"
      width="0.3255208333333333mm" height="25.0mm"
      fill="#434B50" stroke="none" />
<rect x="140.29947916666666mm" y="0.0mm"
      width="0.3255208333333333mm" height="25.0mm"
      fill="#454C4F" stroke="none" />
<rect x="140.625mm" y="0.0mm"
      width="0.3255208333333333mm" height="25.0mm"
      fill="#4C5453" stroke="none" />
<rect x="140.95052083333331mm" y="0.0mm"
      width="0.3255208333333333mm" height="25.0mm"
      fill="#495153" stroke="none" />
<rect x="141.27604166666666mm" y="0.0mm"
      width="0.3255208333333333mm" height="25.0mm"
      fill="#3E4648" stroke="none" />
<rect x="141.6015625mm" y="0.0mm"
      width="0.3255208333333333mm" height="25.0mm"
      fill="#404548" stroke="none" />
<rect x="141.92708333333331mm" y="0.0mm"
      width="0.3255208333333333mm" height="25.0mm"
      fill="#393E3F" stroke="none" />
<rect x="142.25260416666666mm" y="0.0mm"
      width="0.3255208333333333mm" height="25.0mm"
      fill="#343939" stroke="none" />
<rect x="142.578125mm" y="0.0mm"
      width="0.3255208333333333mm" height="25.0mm"
      fill="#2F3533" stroke="none" />
<rect x="142.90364583333331mm" y="0.0mm"
      width="0.3255208333333333mm" height="25.0mm"
      fill="#343937" stroke="none" />
<rect x="143.22916666666666mm" y="0.0mm"
      width="0.3255208333333333mm" height="25.0mm"
      fill="#353B36" stroke="none" />
<rect x="143.5546875mm" y="0.0mm"
      width="0.3255208333333333mm" height="25.0mm"
      fill="#343A35" stroke="none" />
<rect x="143.88020833333331mm" y="0.0mm"
      width="0.3255208333333333mm" height="25.0mm"
      fill="#343A33" stroke="none" />
<rect x="144.20572916666666mm" y="0.0mm"
      width="0.3255208333333333mm" height="25.0mm"
      fill="#313730" stroke="none" />
<rect x="144.53125mm" y="0.0mm"
      width="0.3255208333333333mm" height="25.0mm"
      fill="#2F362F" stroke="none" />
<rect x="144.85677083333331mm" y="0.0mm"
      width="0.3255208333333333mm" height="25.0mm"
      fill="#4B514C" stroke="none" />
<rect x="145.18229166666666mm" y="0.0mm"
      width="0.3255208333333333mm" height="25.0mm"
      fill="#58615B" stroke="none" />
<rect x="145.5078125mm" y="0.0mm"
      width="0.3255208333333333mm" height="25.0mm"
      fill="#424B47" stroke="none" />
<rect x="145.83333333333331mm" y="0.0mm"
      width="0.3255208333333333mm" height="25.0mm"
      fill="#343D3C" stroke="none" />
<rect x="146.15885416666666mm" y="0.0mm"
      width="0.3255208333333333mm" height="25.0mm"
      fill="#363E40" stroke="none" />
<rect x="146.484375mm" y="0.0mm"
      width="0.3255208333333333mm" height="25.0mm"
      fill="#465054" stroke="none" />
<rect x="146.80989583333331mm" y="0.0mm"
      width="0.3255208333333333mm" height="25.0mm"
      fill="#4A5252" stroke="none" />
<rect x="147.13541666666666mm" y="0.0mm"
      width="0.3255208333333333mm" height="25.0mm"
      fill="#5C655D" stroke="none" />
<rect x="147.4609375mm" y="0.0mm"
      width="0.3255208333333333mm" height="25.0mm"
      fill="#959F91" stroke="none" />
<rect x="147.78645833333331mm" y="0.0mm"
      width="0.3255208333333333mm" height="25.0mm"
      fill="#BBC6B3" stroke="none" />
<rect x="148.11197916666666mm" y="0.0mm"
      width="0.3255208333333333mm" height="25.0mm"
      fill="#BBC3B6" stroke="none" />
<rect x="148.4375mm" y="0.0mm"
      width="0.3255208333333333mm" height="25.0mm"
      fill="#A2A99F" stroke="none" />
<rect x="148.76302083333331mm" y="0.0mm"
      width="0.3255208333333333mm" height="25.0mm"
      fill="#949B93" stroke="none" />
<rect x="149.08854166666666mm" y="0.0mm"
      width="0.3255208333333333mm" height="25.0mm"
      fill="#9FA69E" stroke="none" />
<rect x="149.4140625mm" y="0.0mm"
      width="0.3255208333333333mm" height="25.0mm"
      fill="#9EA89F" stroke="none" />
<rect x="149.73958333333331mm" y="0.0mm"
      width="0.3255208333333333mm" height="25.0mm"
      fill="#9BA89E" stroke="none" />
<rect x="150.06510416666666mm" y="0.0mm"
      width="0.3255208333333333mm" height="25.0mm"
      fill="#A0A9A1" stroke="none" />
<rect x="150.390625mm" y="0.0mm"
      width="0.3255208333333333mm" height="25.0mm"
      fill="#9EA89D" stroke="none" />
<rect x="150.71614583333331mm" y="0.0mm"
      width="0.3255208333333333mm" height="25.0mm"
      fill="#9CA29E" stroke="none" />
<rect x="151.04166666666666mm" y="0.0mm"
      width="0.3255208333333333mm" height="25.0mm"
      fill="#818785" stroke="none" />
<rect x="151.3671875mm" y="0.0mm"
      width="0.3255208333333333mm" height="25.0mm"
      fill="#5F6467" stroke="none" />
<rect x="151.69270833333331mm" y="0.0mm"
      width="0.3255208333333333mm" height="25.0mm"
      fill="#42494E" stroke="none" />
<rect x="152.01822916666666mm" y="0.0mm"
      width="0.3255208333333333mm" height="25.0mm"
      fill="#3E454C" stroke="none" />
<rect x="152.34375mm" y="0.0mm"
      width="0.3255208333333333mm" height="25.0mm"
      fill="#39434A" stroke="none" />
<rect x="152.66927083333331mm" y="0.0mm"
      width="0.3255208333333333mm" height="25.0mm"
      fill="#39434A" stroke="none" />
<rect x="152.99479166666666mm" y="0.0mm"
      width="0.3255208333333333mm" height="25.0mm"
      fill="#374147" stroke="none" />
<rect x="153.3203125mm" y="0.0mm"
      width="0.3255208333333333mm" height="25.0mm"
      fill="#3A4146" stroke="none" />
<rect x="153.64583333333331mm" y="0.0mm"
      width="0.3255208333333333mm" height="25.0mm"
      fill="#3E4648" stroke="none" />
<rect x="153.97135416666666mm" y="0.0mm"
      width="0.3255208333333333mm" height="25.0mm"
      fill="#3C464A" stroke="none" />
<rect x="154.296875mm" y="0.0mm"
      width="0.3255208333333333mm" height="25.0mm"
      fill="#425154" stroke="none" />
<rect x="154.62239583333331mm" y="0.0mm"
      width="0.3255208333333333mm" height="25.0mm"
      fill="#49565B" stroke="none" />
<rect x="154.94791666666666mm" y="0.0mm"
      width="0.3255208333333333mm" height="25.0mm"
      fill="#404C52" stroke="none" />
<rect x="155.2734375mm" y="0.0mm"
      width="0.3255208333333333mm" height="25.0mm"
      fill="#39464B" stroke="none" />
<rect x="155.59895833333331mm" y="0.0mm"
      width="0.3255208333333333mm" height="25.0mm"
      fill="#38444A" stroke="none" />
<rect x="155.92447916666666mm" y="0.0mm"
      width="0.3255208333333333mm" height="25.0mm"
      fill="#3E4A53" stroke="none" />
<rect x="156.25mm" y="0.0mm"
      width="0.3255208333333333mm" height="25.0mm"
      fill="#45535B" stroke="none" />
<rect x="156.57552083333331mm" y="0.0mm"
      width="0.3255208333333333mm" height="25.0mm"
      fill="#49555D" stroke="none" />
<rect x="156.90104166666666mm" y="0.0mm"
      width="0.3255208333333333mm" height="25.0mm"
      fill="#4B555B" stroke="none" />
<rect x="157.2265625mm" y="0.0mm"
      width="0.3255208333333333mm" height="25.0mm"
      fill="#3E454A" stroke="none" />
<rect x="157.55208333333331mm" y="0.0mm"
      width="0.3255208333333333mm" height="25.0mm"
      fill="#545C5B" stroke="none" />
<rect x="157.87760416666666mm" y="0.0mm"
      width="0.3255208333333333mm" height="25.0mm"
      fill="#51595B" stroke="none" />
<rect x="158.203125mm" y="0.0mm"
      width="0.3255208333333333mm" height="25.0mm"
      fill="#3D4449" stroke="none" />
<rect x="158.52864583333331mm" y="0.0mm"
      width="0.3255208333333333mm" height="25.0mm"
      fill="#465054" stroke="none" />
<rect x="158.85416666666666mm" y="0.0mm"
      width="0.3255208333333333mm" height="25.0mm"
      fill="#414F4F" stroke="none" />
<rect x="159.1796875mm" y="0.0mm"
      width="0.3255208333333333mm" height="25.0mm"
      fill="#485352" stroke="none" />
<rect x="159.50520833333331mm" y="0.0mm"
      width="0.3255208333333333mm" height="25.0mm"
      fill="#404C47" stroke="none" />
<rect x="159.83072916666666mm" y="0.0mm"
      width="0.3255208333333333mm" height="25.0mm"
      fill="#434E4C" stroke="none" />
<rect x="160.15625mm" y="0.0mm"
      width="0.3255208333333333mm" height="25.0mm"
      fill="#4A5553" stroke="none" />
<rect x="160.48177083333331mm" y="0.0mm"
      width="0.3255208333333333mm" height="25.0mm"
      fill="#3D4544" stroke="none" />
<rect x="160.80729166666666mm" y="0.0mm"
      width="0.3255208333333333mm" height="25.0mm"
      fill="#333B3B" stroke="none" />
<rect x="161.1328125mm" y="0.0mm"
      width="0.3255208333333333mm" height="25.0mm"
      fill="#373F3F" stroke="none" />
<rect x="161.45833333333331mm" y="0.0mm"
      width="0.3255208333333333mm" height="25.0mm"
      fill="#3F4A48" stroke="none" />
<rect x="161.78385416666666mm" y="0.0mm"
      width="0.3255208333333333mm" height="25.0mm"
      fill="#485356" stroke="none" />
<rect x="162.109375mm" y="0.0mm"
      width="0.3255208333333333mm" height="25.0mm"
      fill="#3C484E" stroke="none" />
<rect x="162.43489583333331mm" y="0.0mm"
      width="0.3255208333333333mm" height="25.0mm"
      fill="#424F57" stroke="none" />
<rect x="162.76041666666666mm" y="0.0mm"
      width="0.3255208333333333mm" height="25.0mm"
      fill="#414F57" stroke="none" />
<rect x="163.0859375mm" y="0.0mm"
      width="0.3255208333333333mm" height="25.0mm"
      fill="#3C484E" stroke="none" />
<rect x="163.41145833333331mm" y="0.0mm"
      width="0.3255208333333333mm" height="25.0mm"
      fill="#354043" stroke="none" />
<rect x="163.73697916666666mm" y="0.0mm"
      width="0.3255208333333333mm" height="25.0mm"
      fill="#2F383F" stroke="none" />
<rect x="164.0625mm" y="0.0mm"
      width="0.3255208333333333mm" height="25.0mm"
      fill="#343E44" stroke="none" />
<rect x="164.38802083333331mm" y="0.0mm"
      width="0.3255208333333333mm" height="25.0mm"
      fill="#353F45" stroke="none" />
<rect x="164.71354166666666mm" y="0.0mm"
      width="0.3255208333333333mm" height="25.0mm"
      fill="#344143" stroke="none" />
<rect x="165.0390625mm" y="0.0mm"
      width="0.3255208333333333mm" height="25.0mm"
      fill="#343E42" stroke="none" />
<rect x="165.36458333333331mm" y="0.0mm"
      width="0.3255208333333333mm" height="25.0mm"
      fill="#354041" stroke="none" />
<rect x="165.69010416666666mm" y="0.0mm"
      width="0.3255208333333333mm" height="25.0mm"
      fill="#354043" stroke="none" />
<rect x="166.015625mm" y="0.0mm"
      width="0.3255208333333333mm" height="25.0mm"
      fill="#394649" stroke="none" />
<rect x="166.34114583333331mm" y="0.0mm"
      width="0.3255208333333333mm" height="25.0mm"
      fill="#3C484E" stroke="none" />
<rect x="166.66666666666666mm" y="0.0mm"
      width="0.3255208333333333mm" height="25.0mm"
      fill="#344045" stroke="none" />
<rect x="166.9921875mm" y="0.0mm"
      width="0.3255208333333333mm" height="25.0mm"
      fill="#303A3E" stroke="none" />
<rect x="167.31770833333331mm" y="0.0mm"
      width="0.3255208333333333mm" height="25.0mm"
      fill="#313C3D" stroke="none" />
<rect x="167.64322916666666mm" y="0.0mm"
      width="0.3255208333333333mm" height="25.0mm"
      fill="#313E41" stroke="none" />
<rect x="167.96875mm" y="0.0mm"
      width="0.3255208333333333mm" height="25.0mm"
      fill="#334247" stroke="none" />
<rect x="168.29427083333331mm" y="0.0mm"
      width="0.3255208333333333mm" height="25.0mm"
      fill="#3A494E" stroke="none" />
<rect x="168.61979166666666mm" y="0.0mm"
      width="0.3255208333333333mm" height="25.0mm"
      fill="#3B4A4F" stroke="none" />
<rect x="168.9453125mm" y="0.0mm"
      width="0.3255208333333333mm" height="25.0mm"
      fill="#404D50" stroke="none" />
<rect x="169.27083333333331mm" y="0.0mm"
      width="0.3255208333333333mm" height="25.0mm"
      fill="#3C4949" stroke="none" />
<rect x="169.59635416666666mm" y="0.0mm"
      width="0.3255208333333333mm" height="25.0mm"
      fill="#384547" stroke="none" />
<rect x="169.921875mm" y="0.0mm"
      width="0.3255208333333333mm" height="25.0mm"
      fill="#344143" stroke="none" />
<rect x="170.24739583333331mm" y="0.0mm"
      width="0.3255208333333333mm" height="25.0mm"
      fill="#394447" stroke="none" />
<rect x="170.57291666666666mm" y="0.0mm"
      width="0.3255208333333333mm" height="25.0mm"
      fill="#394445" stroke="none" />
<rect x="170.8984375mm" y="0.0mm"
      width="0.3255208333333333mm" height="25.0mm"
      fill="#394445" stroke="none" />
<rect x="171.22395833333331mm" y="0.0mm"
      width="0.3255208333333333mm" height="25.0mm"
      fill="#394445" stroke="none" />
<rect x="171.54947916666666mm" y="0.0mm"
      width="0.3255208333333333mm" height="25.0mm"
      fill="#32393C" stroke="none" />
<rect x="171.875mm" y="0.0mm"
      width="0.3255208333333333mm" height="25.0mm"
      fill="#30383A" stroke="none" />
<rect x="172.20052083333331mm" y="0.0mm"
      width="0.3255208333333333mm" height="25.0mm"
      fill="#323A39" stroke="none" />
<rect x="172.52604166666666mm" y="0.0mm"
      width="0.3255208333333333mm" height="25.0mm"
      fill="#2E3633" stroke="none" />
<rect x="172.8515625mm" y="0.0mm"
      width="0.3255208333333333mm" height="25.0mm"
      fill="#2A322F" stroke="none" />
<rect x="173.17708333333331mm" y="0.0mm"
      width="0.3255208333333333mm" height="25.0mm"
      fill="#2A322F" stroke="none" />
<rect x="173.50260416666666mm" y="0.0mm"
      width="0.3255208333333333mm" height="25.0mm"
      fill="#30383A" stroke="none" />
<rect x="173.828125mm" y="0.0mm"
      width="0.3255208333333333mm" height="25.0mm"
      fill="#2D373B" stroke="none" />
<rect x="174.15364583333331mm" y="0.0mm"
      width="0.3255208333333333mm" height="25.0mm"
      fill="#2A3136" stroke="none" />
<rect x="174.47916666666666mm" y="0.0mm"
      width="0.3255208333333333mm" height="25.0mm"
      fill="#2B3335" stroke="none" />
<rect x="174.8046875mm" y="0.0mm"
      width="0.3255208333333333mm" height="25.0mm"
      fill="#303A3E" stroke="none" />
<rect x="175.13020833333331mm" y="0.0mm"
      width="0.3255208333333333mm" height="25.0mm"
      fill="#39464B" stroke="none" />
<rect x="175.45572916666666mm" y="0.0mm"
      width="0.3255208333333333mm" height="25.0mm"
      fill="#36424A" stroke="none" />
<rect x="175.78125mm" y="0.0mm"
      width="0.3255208333333333mm" height="25.0mm"
      fill="#334149" stroke="none" />
<rect x="176.10677083333331mm" y="0.0mm"
      width="0.3255208333333333mm" height="25.0mm"
      fill="#3A464F" stroke="none" />
<rect x="176.43229166666666mm" y="0.0mm"
      width="0.3255208333333333mm" height="25.0mm"
      fill="#36424A" stroke="none" />
<rect x="176.7578125mm" y="0.0mm"
      width="0.3255208333333333mm" height="25.0mm"
      fill="#2C363A" stroke="none" />
<rect x="177.08333333333331mm" y="0.0mm"
      width="0.3255208333333333mm" height="25.0mm"
      fill="#2E3635" stroke="none" />
<rect x="177.40885416666666mm" y="0.0mm"
      width="0.3255208333333333mm" height="25.0mm"
      fill="#2E3538" stroke="none" />
<rect x="177.734375mm" y="0.0mm"
      width="0.3255208333333333mm" height="25.0mm"
      fill="#2D3839" stroke="none" />
<rect x="178.05989583333331mm" y="0.0mm"
      width="0.3255208333333333mm" height="25.0mm"
      fill="#303A3C" stroke="none" />
<rect x="178.38541666666666mm" y="0.0mm"
      width="0.3255208333333333mm" height="25.0mm"
      fill="#384545" stroke="none" />
<rect x="178.7109375mm" y="0.0mm"
      width="0.3255208333333333mm" height="25.0mm"
      fill="#354242" stroke="none" />
<rect x="179.03645833333331mm" y="0.0mm"
      width="0.3255208333333333mm" height="25.0mm"
      fill="#2F3D3D" stroke="none" />
<rect x="179.36197916666666mm" y="0.0mm"
      width="0.3255208333333333mm" height="25.0mm"
      fill="#2D3839" stroke="none" />
<rect x="179.6875mm" y="0.0mm"
      width="0.3255208333333333mm" height="25.0mm"
      fill="#2F3737" stroke="none" />
<rect x="180.01302083333331mm" y="0.0mm"
      width="0.3255208333333333mm" height="25.0mm"
      fill="#323A39" stroke="none" />
<rect x="180.33854166666666mm" y="0.0mm"
      width="0.3255208333333333mm" height="25.0mm"
      fill="#323A39" stroke="none" />
<rect x="180.6640625mm" y="0.0mm"
      width="0.3255208333333333mm" height="25.0mm"
      fill="#354041" stroke="none" />
<rect x="180.98958333333331mm" y="0.0mm"
      width="0.3255208333333333mm" height="25.0mm"
      fill="#364346" stroke="none" />
<rect x="181.31510416666666mm" y="0.0mm"
      width="0.3255208333333333mm" height="25.0mm"
      fill="#343E42" stroke="none" />
<rect x="181.640625mm" y="0.0mm"
      width="0.3255208333333333mm" height="25.0mm"
      fill="#313C3D" stroke="none" />
<rect x="181.96614583333331mm" y="0.0mm"
      width="0.3255208333333333mm" height="25.0mm"
      fill="#32393C" stroke="none" />
<rect x="182.29166666666666mm" y="0.0mm"
      width="0.3255208333333333mm" height="25.0mm"
      fill="#2E3538" stroke="none" />
<rect x="182.6171875mm" y="0.0mm"
      width="0.3255208333333333mm" height="25.0mm"
      fill="#2F3739" stroke="none" />
<rect x="182.94270833333331mm" y="0.0mm"
      width="0.3255208333333333mm" height="25.0mm"
      fill="#2D3839" stroke="none" />
<rect x="183.26822916666666mm" y="0.0mm"
      width="0.3255208333333333mm" height="25.0mm"
      fill="#2F393C" stroke="none" />
<rect x="183.59375mm" y="0.0mm"
      width="0.3255208333333333mm" height="25.0mm"
      fill="#2F393C" stroke="none" />
<rect x="183.91927083333331mm" y="0.0mm"
      width="0.3255208333333333mm" height="25.0mm"
      fill="#2E353A" stroke="none" />
<rect x="184.24479166666666mm" y="0.0mm"
      width="0.3255208333333333mm" height="25.0mm"
      fill="#2C3438" stroke="none" />
<rect x="184.5703125mm" y="0.0mm"
      width="0.3255208333333333mm" height="25.0mm"
      fill="#2D3137" stroke="none" />
<rect x="184.89583333333331mm" y="0.0mm"
      width="0.3255208333333333mm" height="25.0mm"
      fill="#2F3438" stroke="none" />
<rect x="185.22135416666666mm" y="0.0mm"
      width="0.3255208333333333mm" height="25.0mm"
      fill="#2B3036" stroke="none" />
<rect x="185.546875mm" y="0.0mm"
      width="0.3255208333333333mm" height="25.0mm"
      fill="#30383C" stroke="none" />
<rect x="185.87239583333331mm" y="0.0mm"
      width="0.3255208333333333mm" height="25.0mm"
      fill="#39434A" stroke="none" />
<rect x="186.19791666666666mm" y="0.0mm"
      width="0.3255208333333333mm" height="25.0mm"
      fill="#424F54" stroke="none" />
<rect x="186.5234375mm" y="0.0mm"
      width="0.3255208333333333mm" height="25.0mm"
      fill="#48545C" stroke="none" />
<rect x="186.84895833333331mm" y="0.0mm"
      width="0.3255208333333333mm" height="25.0mm"
      fill="#38474F" stroke="none" />
<rect x="187.17447916666666mm" y="0.0mm"
      width="0.3255208333333333mm" height="25.0mm"
      fill="#354149" stroke="none" />
<rect x="187.5mm" y="0.0mm"
      width="0.3255208333333333mm" height="25.0mm"
      fill="#38444C" stroke="none" />
<rect x="187.82552083333331mm" y="0.0mm"
      width="0.3255208333333333mm" height="25.0mm"
      fill="#3A464F" stroke="none" />
<rect x="188.15104166666666mm" y="0.0mm"
      width="0.3255208333333333mm" height="25.0mm"
      fill="#364348" stroke="none" />
<rect x="188.4765625mm" y="0.0mm"
      width="0.3255208333333333mm" height="25.0mm"
      fill="#354247" stroke="none" />
<rect x="188.80208333333331mm" y="0.0mm"
      width="0.3255208333333333mm" height="25.0mm"
      fill="#3A474C" stroke="none" />
<rect x="189.12760416666666mm" y="0.0mm"
      width="0.3255208333333333mm" height="25.0mm"
      fill="#3A474C" stroke="none" />
<rect x="189.453125mm" y="0.0mm"
      width="0.3255208333333333mm" height="25.0mm"
      fill="#3A494E" stroke="none" />
<rect x="189.77864583333331mm" y="0.0mm"
      width="0.3255208333333333mm" height="25.0mm"
      fill="#3C484E" stroke="none" />
<rect x="190.10416666666666mm" y="0.0mm"
      width="0.3255208333333333mm" height="25.0mm"
      fill="#4C595E" stroke="none" />
<rect x="190.4296875mm" y="0.0mm"
      width="0.3255208333333333mm" height="25.0mm"
      fill="#4F595F" stroke="none" />
<rect x="190.75520833333331mm" y="0.0mm"
      width="0.3255208333333333mm" height="25.0mm"
      fill="#4A545A" stroke="none" />
<rect x="191.08072916666666mm" y="0.0mm"
      width="0.3255208333333333mm" height="25.0mm"
      fill="#464F56" stroke="none" />
<rect x="191.40625mm" y="0.0mm"
      width="0.3255208333333333mm" height="25.0mm"
      fill="#495659" stroke="none" />
<rect x="191.73177083333331mm" y="0.0mm"
      width="0.3255208333333333mm" height="25.0mm"
      fill="#4F5B61" stroke="none" />
<rect x="192.05729166666666mm" y="0.0mm"
      width="0.3255208333333333mm" height="25.0mm"
      fill="#4F5B61" stroke="none" />
<rect x="192.3828125mm" y="0.0mm"
      width="0.3255208333333333mm" height="25.0mm"
      fill="#48545C" stroke="none" />
<rect x="192.70833333333331mm" y="0.0mm"
      width="0.3255208333333333mm" height="25.0mm"
      fill="#45535B" stroke="none" />
<rect x="193.03385416666666mm" y="0.0mm"
      width="0.3255208333333333mm" height="25.0mm"
      fill="#48545C" stroke="none" />
<rect x="193.359375mm" y="0.0mm"
      width="0.3255208333333333mm" height="25.0mm"
      fill="#47535B" stroke="none" />
<rect x="193.68489583333331mm" y="0.0mm"
      width="0.3255208333333333mm" height="25.0mm"
      fill="#43515C" stroke="none" />
<rect x="194.01041666666666mm" y="0.0mm"
      width="0.3255208333333333mm" height="25.0mm"
      fill="#44555E" stroke="none" />
<rect x="194.3359375mm" y="0.0mm"
      width="0.3255208333333333mm" height="25.0mm"
      fill="#495761" stroke="none" />
<rect x="194.66145833333331mm" y="0.0mm"
      width="0.3255208333333333mm" height="25.0mm"
      fill="#45535B" stroke="none" />
<rect x="194.98697916666666mm" y="0.0mm"
      width="0.3255208333333333mm" height="25.0mm"
      fill="#404C54" stroke="none" />
<rect x="195.3125mm" y="0.0mm"
      width="0.3255208333333333mm" height="25.0mm"
      fill="#3E4B50" stroke="none" />
<rect x="195.63802083333331mm" y="0.0mm"
      width="0.3255208333333333mm" height="25.0mm"
      fill="#39454D" stroke="none" />
<rect x="195.96354166666666mm" y="0.0mm"
      width="0.3255208333333333mm" height="25.0mm"
      fill="#334149" stroke="none" />
<rect x="196.2890625mm" y="0.0mm"
      width="0.3255208333333333mm" height="25.0mm"
      fill="#374552" stroke="none" />
<rect x="196.61458333333331mm" y="0.0mm"
      width="0.3255208333333333mm" height="25.0mm"
      fill="#3D4A59" stroke="none" />
<rect x="196.94010416666666mm" y="0.0mm"
      width="0.3255208333333333mm" height="25.0mm"
      fill="#465363" stroke="none" />
<rect x="197.265625mm" y="0.0mm"
      width="0.3255208333333333mm" height="25.0mm"
      fill="#4A5865" stroke="none" />
<rect x="197.59114583333331mm" y="0.0mm"
      width="0.3255208333333333mm" height="25.0mm"
      fill="#404B56" stroke="none" />
<rect x="197.91666666666666mm" y="0.0mm"
      width="0.3255208333333333mm" height="25.0mm"
      fill="#39454D" stroke="none" />
<rect x="198.2421875mm" y="0.0mm"
      width="0.3255208333333333mm" height="25.0mm"
      fill="#38434E" stroke="none" />
<rect x="198.56770833333331mm" y="0.0mm"
      width="0.3255208333333333mm" height="25.0mm"
      fill="#36444E" stroke="none" />
<rect x="198.89322916666666mm" y="0.0mm"
      width="0.3255208333333333mm" height="25.0mm"
      fill="#3E4C56" stroke="none" />
<rect x="199.21875mm" y="0.0mm"
      width="0.3255208333333333mm" height="25.0mm"
      fill="#3D4B55" stroke="none" />
<rect x="199.54427083333331mm" y="0.0mm"
      width="0.3255208333333333mm" height="25.0mm"
      fill="#424E59" stroke="none" />
<rect x="199.86979166666666mm" y="0.0mm"
      width="0.3255208333333333mm" height="25.0mm"
      fill="#424F57" stroke="none" />
<rect x="200.1953125mm" y="0.0mm"
      width="0.3255208333333333mm" height="25.0mm"
      fill="#38444C" stroke="none" />
<rect x="200.52083333333331mm" y="0.0mm"
      width="0.3255208333333333mm" height="25.0mm"
      fill="#354149" stroke="none" />
<rect x="200.84635416666666mm" y="0.0mm"
      width="0.3255208333333333mm" height="25.0mm"
      fill="#353F45" stroke="none" />
<rect x="201.171875mm" y="0.0mm"
      width="0.3255208333333333mm" height="25.0mm"
      fill="#313B3F" stroke="none" />
<rect x="201.49739583333331mm" y="0.0mm"
      width="0.3255208333333333mm" height="25.0mm"
      fill="#2D373B" stroke="none" />
<rect x="201.82291666666666mm" y="0.0mm"
      width="0.3255208333333333mm" height="25.0mm"
      fill="#293435" stroke="none" />
<rect x="202.1484375mm" y="0.0mm"
      width="0.3255208333333333mm" height="25.0mm"
      fill="#2C363A" stroke="none" />
<rect x="202.47395833333331mm" y="0.0mm"
      width="0.3255208333333333mm" height="25.0mm"
      fill="#313B41" stroke="none" />
<rect x="202.79947916666666mm" y="0.0mm"
      width="0.3255208333333333mm" height="25.0mm"
      fill="#374049" stroke="none" />
<rect x="203.125mm" y="0.0mm"
      width="0.3255208333333333mm" height="25.0mm"
      fill="#38434E" stroke="none" />
<rect x="203.45052083333331mm" y="0.0mm"
      width="0.3255208333333333mm" height="25.0mm"
      fill="#3B444F" stroke="none" />
<rect x="203.77604166666666mm" y="0.0mm"
      width="0.3255208333333333mm" height="25.0mm"
      fill="#3B444D" stroke="none" />
<rect x="204.1015625mm" y="0.0mm"
      width="0.3255208333333333mm" height="25.0mm"
      fill="#38414A" stroke="none" />
<rect x="204.42708333333331mm" y="0.0mm"
      width="0.3255208333333333mm" height="25.0mm"
      fill="#39434A" stroke="none" />
<rect x="204.75260416666666mm" y="0.0mm"
      width="0.3255208333333333mm" height="25.0mm"
      fill="#3B454B" stroke="none" />
<rect x="205.078125mm" y="0.0mm"
      width="0.3255208333333333mm" height="25.0mm"
      fill="#3A474C" stroke="none" />
<rect x="205.40364583333331mm" y="0.0mm"
      width="0.3255208333333333mm" height="25.0mm"
      fill="#3A464F" stroke="none" />
<rect x="205.72916666666666mm" y="0.0mm"
      width="0.3255208333333333mm" height="25.0mm"
      fill="#3E4A53" stroke="none" />
<rect x="206.0546875mm" y="0.0mm"
      width="0.3255208333333333mm" height="25.0mm"
      fill="#444E57" stroke="none" />
<rect x="206.38020833333331mm" y="0.0mm"
      width="0.3255208333333333mm" height="25.0mm"
      fill="#475157" stroke="none" />
<rect x="206.70572916666666mm" y="0.0mm"
      width="0.3255208333333333mm" height="25.0mm"
      fill="#434C55" stroke="none" />
<rect x="207.03125mm" y="0.0mm"
      width="0.3255208333333333mm" height="25.0mm"
      fill="#3C4850" stroke="none" />
<rect x="207.35677083333331mm" y="0.0mm"
      width="0.3255208333333333mm" height="25.0mm"
      fill="#3D4953" stroke="none" />
<rect x="207.68229166666666mm" y="0.0mm"
      width="0.3255208333333333mm" height="25.0mm"
      fill="#3D4953" stroke="none" />
<rect x="208.0078125mm" y="0.0mm"
      width="0.3255208333333333mm" height="25.0mm"
      fill="#404B56" stroke="none" />
<rect x="208.33333333333331mm" y="0.0mm"
      width="0.3255208333333333mm" height="25.0mm"
      fill="#414D58" stroke="none" />
<rect x="208.65885416666666mm" y="0.0mm"
      width="0.3255208333333333mm" height="25.0mm"
      fill="#45515C" stroke="none" />
<rect x="208.984375mm" y="0.0mm"
      width="0.3255208333333333mm" height="25.0mm"
      fill="#46545E" stroke="none" />
<rect x="209.30989583333331mm" y="0.0mm"
      width="0.3255208333333333mm" height="25.0mm"
      fill="#48545C" stroke="none" />
<rect x="209.63541666666666mm" y="0.0mm"
      width="0.3255208333333333mm" height="25.0mm"
      fill="#4B555B" stroke="none" />
<rect x="209.9609375mm" y="0.0mm"
      width="0.3255208333333333mm" height="25.0mm"
      fill="#4B555B" stroke="none" />
<rect x="210.28645833333331mm" y="0.0mm"
      width="0.3255208333333333mm" height="25.0mm"
      fill="#475157" stroke="none" />
<rect x="210.61197916666666mm" y="0.0mm"
      width="0.3255208333333333mm" height="25.0mm"
      fill="#4A5159" stroke="none" />
<rect x="210.9375mm" y="0.0mm"
      width="0.3255208333333333mm" height="25.0mm"
      fill="#474E56" stroke="none" />
<rect x="211.26302083333331mm" y="0.0mm"
      width="0.3255208333333333mm" height="25.0mm"
      fill="#4C535A" stroke="none" />
<rect x="211.58854166666666mm" y="0.0mm"
      width="0.3255208333333333mm" height="25.0mm"
      fill="#4C565D" stroke="none" />
<rect x="211.9140625mm" y="0.0mm"
      width="0.3255208333333333mm" height="25.0mm"
      fill="#48545C" stroke="none" />
<rect x="212.23958333333331mm" y="0.0mm"
      width="0.3255208333333333mm" height="25.0mm"
      fill="#46545E" stroke="none" />
<rect x="212.56510416666666mm" y="0.0mm"
      width="0.3255208333333333mm" height="25.0mm"
      fill="#47525D" stroke="none" />
<rect x="212.890625mm" y="0.0mm"
      width="0.3255208333333333mm" height="25.0mm"
      fill="#455159" stroke="none" />
<rect x="213.21614583333331mm" y="0.0mm"
      width="0.3255208333333333mm" height="25.0mm"
      fill="#3E4A55" stroke="none" />
<rect x="213.54166666666666mm" y="0.0mm"
      width="0.3255208333333333mm" height="25.0mm"
      fill="#3D4953" stroke="none" />
<rect x="213.8671875mm" y="0.0mm"
      width="0.3255208333333333mm" height="25.0mm"
      fill="#3D4953" stroke="none" />
<rect x="214.19270833333331mm" y="0.0mm"
      width="0.3255208333333333mm" height="25.0mm"
      fill="#424F57" stroke="none" />
<rect x="214.51822916666666mm" y="0.0mm"
      width="0.3255208333333333mm" height="25.0mm"
      fill="#495560" stroke="none" />
<rect x="214.84375mm" y="0.0mm"
      width="0.3255208333333333mm" height="25.0mm"
      fill="#46545E" stroke="none" />
<rect x="215.16927083333331mm" y="0.0mm"
      width="0.3255208333333333mm" height="25.0mm"
      fill="#3D4A57" stroke="none" />
<rect x="215.49479166666666mm" y="0.0mm"
      width="0.3255208333333333mm" height="25.0mm"
      fill="#414E5B" stroke="none" />
<rect x="215.8203125mm" y="0.0mm"
      width="0.3255208333333333mm" height="25.0mm"
      fill="#424E5B" stroke="none" />
<rect x="216.14583333333331mm" y="0.0mm"
      width="0.3255208333333333mm" height="25.0mm"
      fill="#424E59" stroke="none" />
<rect x="216.47135416666666mm" y="0.0mm"
      width="0.3255208333333333mm" height="25.0mm"
      fill="#495562" stroke="none" />
<rect x="216.796875mm" y="0.0mm"
      width="0.3255208333333333mm" height="25.0mm"
      fill="#465461" stroke="none" />
<rect x="217.12239583333331mm" y="0.0mm"
      width="0.3255208333333333mm" height="25.0mm"
      fill="#4C5A64" stroke="none" />
<rect x="217.44791666666666mm" y="0.0mm"
      width="0.3255208333333333mm" height="25.0mm"
      fill="#4C5A62" stroke="none" />
<rect x="217.7734375mm" y="0.0mm"
      width="0.3255208333333333mm" height="25.0mm"
      fill="#45515C" stroke="none" />
<rect x="218.09895833333331mm" y="0.0mm"
      width="0.3255208333333333mm" height="25.0mm"
      fill="#414D58" stroke="none" />
<rect x="218.42447916666666mm" y="0.0mm"
      width="0.3255208333333333mm" height="25.0mm"
      fill="#3E4A55" stroke="none" />
<rect x="218.75mm" y="0.0mm"
      width="0.3255208333333333mm" height="25.0mm"
      fill="#39454D" stroke="none" />
<rect x="219.07552083333331mm" y="0.0mm"
      width="0.3255208333333333mm" height="25.0mm"
      fill="#3D4951" stroke="none" />
<rect x="219.40104166666666mm" y="0.0mm"
      width="0.3255208333333333mm" height="25.0mm"
      fill="#455159" stroke="none" />
<rect x="219.7265625mm" y="0.0mm"
      width="0.3255208333333333mm" height="25.0mm"
      fill="#48545E" stroke="none" />
<rect x="220.05208333333331mm" y="0.0mm"
      width="0.3255208333333333mm" height="25.0mm"
      fill="#424E59" stroke="none" />
<rect x="220.37760416666666mm" y="0.0mm"
      width="0.3255208333333333mm" height="25.0mm"
      fill="#3D4953" stroke="none" />
<rect x="220.703125mm" y="0.0mm"
      width="0.3255208333333333mm" height="25.0mm"
      fill="#344048" stroke="none" />
<rect x="221.02864583333331mm" y="0.0mm"
      width="0.3255208333333333mm" height="25.0mm"
      fill="#303A40" stroke="none" />
<rect x="221.35416666666666mm" y="0.0mm"
      width="0.3255208333333333mm" height="25.0mm"
      fill="#2C3438" stroke="none" />
<rect x="221.6796875mm" y="0.0mm"
      width="0.3255208333333333mm" height="25.0mm"
      fill="#2A3136" stroke="none" />
<rect x="222.00520833333331mm" y="0.0mm"
      width="0.3255208333333333mm" height="25.0mm"
      fill="#2C3438" stroke="none" />
<rect x="222.33072916666666mm" y="0.0mm"
      width="0.3255208333333333mm" height="25.0mm"
      fill="#333A41" stroke="none" />
<rect x="222.65625mm" y="0.0mm"
      width="0.3255208333333333mm" height="25.0mm"
      fill="#343E44" stroke="none" />
<rect x="222.98177083333331mm" y="0.0mm"
      width="0.3255208333333333mm" height="25.0mm"
      fill="#2F383F" stroke="none" />
<rect x="223.30729166666666mm" y="0.0mm"
      width="0.3255208333333333mm" height="25.0mm"
      fill="#303A40" stroke="none" />
<rect x="223.6328125mm" y="0.0mm"
      width="0.3255208333333333mm" height="25.0mm"
      fill="#343D46" stroke="none" />
<rect x="223.95833333333331mm" y="0.0mm"
      width="0.3255208333333333mm" height="25.0mm"
      fill="#35414B" stroke="none" />
<rect x="224.28385416666666mm" y="0.0mm"
      width="0.3255208333333333mm" height="25.0mm"
      fill="#3C4752" stroke="none" />
<rect x="224.609375mm" y="0.0mm"
      width="0.3255208333333333mm" height="25.0mm"
      fill="#3B4953" stroke="none" />
<rect x="224.93489583333331mm" y="0.0mm"
      width="0.3255208333333333mm" height="25.0mm"
      fill="#3F4D58" stroke="none" />
<rect x="225.26041666666666mm" y="0.0mm"
      width="0.3255208333333333mm" height="25.0mm"
      fill="#414F57" stroke="none" />
<rect x="225.5859375mm" y="0.0mm"
      width="0.3255208333333333mm" height="25.0mm"
      fill="#3F4E55" stroke="none" />
<rect x="225.91145833333331mm" y="0.0mm"
      width="0.3255208333333333mm" height="25.0mm"
      fill="#394B51" stroke="none" />
<rect x="226.23697916666666mm" y="0.0mm"
      width="0.3255208333333333mm" height="25.0mm"
      fill="#3D4E58" stroke="none" />
<rect x="226.5625mm" y="0.0mm"
      width="0.3255208333333333mm" height="25.0mm"
      fill="#40515A" stroke="none" />
<rect x="226.88802083333331mm" y="0.0mm"
      width="0.3255208333333333mm" height="25.0mm"
      fill="#3D4B55" stroke="none" />
<rect x="227.21354166666666mm" y="0.0mm"
      width="0.3255208333333333mm" height="25.0mm"
      fill="#36424D" stroke="none" />
<rect x="227.5390625mm" y="0.0mm"
      width="0.3255208333333333mm" height="25.0mm"
      fill="#303A40" stroke="none" />
<rect x="227.86458333333331mm" y="0.0mm"
      width="0.3255208333333333mm" height="25.0mm"
      fill="#2A3133" stroke="none" />
<rect x="228.19010416666666mm" y="0.0mm"
      width="0.3255208333333333mm" height="25.0mm"
      fill="#272D2D" stroke="none" />
<rect x="228.515625mm" y="0.0mm"
      width="0.3255208333333333mm" height="25.0mm"
      fill="#262C2A" stroke="none" />
<rect x="228.84114583333331mm" y="0.0mm"
      width="0.3255208333333333mm" height="25.0mm"
      fill="#2A2F30" stroke="none" />
<rect x="229.16666666666666mm" y="0.0mm"
      width="0.3255208333333333mm" height="25.0mm"
      fill="#2F3737" stroke="none" />
<rect x="229.4921875mm" y="0.0mm"
      width="0.3255208333333333mm" height="25.0mm"
      fill="#333A3F" stroke="none" />
<rect x="229.81770833333331mm" y="0.0mm"
      width="0.3255208333333333mm" height="25.0mm"
      fill="#333C43" stroke="none" />
<rect x="230.14322916666666mm" y="0.0mm"
      width="0.3255208333333333mm" height="25.0mm"
      fill="#3B444D" stroke="none" />
<rect x="230.46875mm" y="0.0mm"
      width="0.3255208333333333mm" height="25.0mm"
      fill="#4A535C" stroke="none" />
<rect x="230.79427083333331mm" y="0.0mm"
      width="0.3255208333333333mm" height="25.0mm"
      fill="#565F68" stroke="none" />
<rect x="231.11979166666666mm" y="0.0mm"
      width="0.3255208333333333mm" height="25.0mm"
      fill="#525B64" stroke="none" />
<rect x="231.4453125mm" y="0.0mm"
      width="0.3255208333333333mm" height="25.0mm"
      fill="#3B444F" stroke="none" />
<rect x="231.77083333333331mm" y="0.0mm"
      width="0.3255208333333333mm" height="25.0mm"
      fill="#3C4551" stroke="none" />
<rect x="232.09635416666666mm" y="0.0mm"
      width="0.3255208333333333mm" height="25.0mm"
      fill="#3C4551" stroke="none" />
<rect x="232.421875mm" y="0.0mm"
      width="0.3255208333333333mm" height="25.0mm"
      fill="#3A4651" stroke="none" />
<rect x="232.74739583333331mm" y="0.0mm"
      width="0.3255208333333333mm" height="25.0mm"
      fill="#3C4850" stroke="none" />
<rect x="233.07291666666666mm" y="0.0mm"
      width="0.3255208333333333mm" height="25.0mm"
      fill="#4B585A" stroke="none" />
<rect x="233.3984375mm" y="0.0mm"
      width="0.3255208333333333mm" height="25.0mm"
      fill="#5B686D" stroke="none" />
<rect x="233.72395833333331mm" y="0.0mm"
      width="0.3255208333333333mm" height="25.0mm"
      fill="#505D62" stroke="none" />
<rect x="234.04947916666666mm" y="0.0mm"
      width="0.3255208333333333mm" height="25.0mm"
      fill="#414D55" stroke="none" />
<rect x="234.375mm" y="0.0mm"
      width="0.3255208333333333mm" height="25.0mm"
      fill="#3E4C56" stroke="none" />
<rect x="234.70052083333331mm" y="0.0mm"
      width="0.3255208333333333mm" height="25.0mm"
      fill="#38434E" stroke="none" />
<rect x="235.02604166666666mm" y="0.0mm"
      width="0.3255208333333333mm" height="25.0mm"
      fill="#3A4651" stroke="none" />
<rect x="235.3515625mm" y="0.0mm"
      width="0.3255208333333333mm" height="25.0mm"
      fill="#354149" stroke="none" />
<rect x="235.67708333333331mm" y="0.0mm"
      width="0.3255208333333333mm" height="25.0mm"
      fill="#2F3C41" stroke="none" />
<rect x="236.00260416666666mm" y="0.0mm"
      width="0.3255208333333333mm" height="25.0mm"
      fill="#354149" stroke="none" />
<rect x="236.328125mm" y="0.0mm"
      width="0.3255208333333333mm" height="25.0mm"
      fill="#38474F" stroke="none" />
<rect x="236.65364583333331mm" y="0.0mm"
      width="0.3255208333333333mm" height="25.0mm"
      fill="#36424A" stroke="none" />
<rect x="236.97916666666666mm" y="0.0mm"
      width="0.3255208333333333mm" height="25.0mm"
      fill="#313B41" stroke="none" />
<rect x="237.3046875mm" y="0.0mm"
      width="0.3255208333333333mm" height="25.0mm"
      fill="#2F363D" stroke="none" />
<rect x="237.63020833333331mm" y="0.0mm"
      width="0.3255208333333333mm" height="25.0mm"
      fill="#343C41" stroke="none" />
<rect x="237.95572916666666mm" y="0.0mm"
      width="0.3255208333333333mm" height="25.0mm"
      fill="#32373C" stroke="none" />
<rect x="238.28125mm" y="0.0mm"
      width="0.3255208333333333mm" height="25.0mm"
      fill="#34383C" stroke="none" />
<rect x="238.60677083333331mm" y="0.0mm"
      width="0.3255208333333333mm" height="25.0mm"
      fill="#353A3D" stroke="none" />
<rect x="238.93229166666666mm" y="0.0mm"
      width="0.3255208333333333mm" height="25.0mm"
      fill="#363E40" stroke="none" />
<rect x="239.2578125mm" y="0.0mm"
      width="0.3255208333333333mm" height="25.0mm"
      fill="#373F41" stroke="none" />
<rect x="239.58333333333331mm" y="0.0mm"
      width="0.3255208333333333mm" height="25.0mm"
      fill="#354041" stroke="none" />
<rect x="239.90885416666666mm" y="0.0mm"
      width="0.3255208333333333mm" height="25.0mm"
      fill="#2F3739" stroke="none" />
<rect x="240.234375mm" y="0.0mm"
      width="0.3255208333333333mm" height="25.0mm"
      fill="#272F31" stroke="none" />
<rect x="240.55989583333331mm" y="0.0mm"
      width="0.3255208333333333mm" height="25.0mm"
      fill="#283238" stroke="none" />
<rect x="240.88541666666666mm" y="0.0mm"
      width="0.3255208333333333mm" height="25.0mm"
      fill="#354149" stroke="none" />
<rect x="241.2109375mm" y="0.0mm"
      width="0.3255208333333333mm" height="25.0mm"
      fill="#3A4651" stroke="none" />
<rect x="241.53645833333331mm" y="0.0mm"
      width="0.3255208333333333mm" height="25.0mm"
      fill="#33414B" stroke="none" />
<rect x="241.86197916666666mm" y="0.0mm"
      width="0.3255208333333333mm" height="25.0mm"
      fill="#2C3A45" stroke="none" />
<rect x="242.1875mm" y="0.0mm"
      width="0.3255208333333333mm" height="25.0mm"
      fill="#3D4B53" stroke="none" />
<rect x="242.51302083333331mm" y="0.0mm"
      width="0.3255208333333333mm" height="25.0mm"
      fill="#445058" stroke="none" />
<rect x="242.83854166666666mm" y="0.0mm"
      width="0.3255208333333333mm" height="25.0mm"
      fill="#344045" stroke="none" />
<rect x="243.1640625mm" y="0.0mm"
      width="0.3255208333333333mm" height="25.0mm"
      fill="#2C363C" stroke="none" />
<rect x="243.48958333333331mm" y="0.0mm"
      width="0.3255208333333333mm" height="25.0mm"
      fill="#303A3E" stroke="none" />
<rect x="243.81510416666666mm" y="0.0mm"
      width="0.3255208333333333mm" height="25.0mm"
      fill="#2C363A" stroke="none" />
<rect x="244.140625mm" y="0.0mm"
      width="0.3255208333333333mm" height="25.0mm"
      fill="#2F393C" stroke="none" />
<rect x="244.46614583333331mm" y="0.0mm"
      width="0.3255208333333333mm" height="25.0mm"
      fill="#39464B" stroke="none" />
<rect x="244.79166666666666mm" y="0.0mm"
      width="0.3255208333333333mm" height="25.0mm"
      fill="#38474F" stroke="none" />
<rect x="245.1171875mm" y="0.0mm"
      width="0.3255208333333333mm" height="25.0mm"
      fill="#3E4A53" stroke="none" />
<rect x="245.44270833333331mm" y="0.0mm"
      width="0.3255208333333333mm" height="25.0mm"
      fill="#3D4951" stroke="none" />
<rect x="245.76822916666666mm" y="0.0mm"
      width="0.3255208333333333mm" height="25.0mm"
      fill="#343D46" stroke="none" />
<rect x="246.09375mm" y="0.0mm"
      width="0.3255208333333333mm" height="25.0mm"
      fill="#303942" stroke="none" />
<rect x="246.41927083333331mm" y="0.0mm"
      width="0.3255208333333333mm" height="25.0mm"
      fill="#333B47" stroke="none" />
<rect x="246.74479166666666mm" y="0.0mm"
      width="0.3255208333333333mm" height="25.0mm"
      fill="#2E3A45" stroke="none" />
<rect x="247.0703125mm" y="0.0mm"
      width="0.3255208333333333mm" height="25.0mm"
      fill="#2D3640" stroke="none" />
<rect x="247.39583333333331mm" y="0.0mm"
      width="0.3255208333333333mm" height="25.0mm"
      fill="#2E353A" stroke="none" />
<rect x="247.72135416666666mm" y="0.0mm"
      width="0.3255208333333333mm" height="25.0mm"
      fill="#2C3438" stroke="none" />
<rect x="248.046875mm" y="0.0mm"
      width="0.3255208333333333mm" height="25.0mm"
      fill="#2C3436" stroke="none" />
<rect x="248.37239583333331mm" y="0.0mm"
      width="0.3255208333333333mm" height="25.0mm"
      fill="#2C3438" stroke="none" />
<rect x="248.69791666666666mm" y="0.0mm"
      width="0.3255208333333333mm" height="25.0mm"
      fill="#2A3138" stroke="none" />
<rect x="249.0234375mm" y="0.0mm"
      width="0.3255208333333333mm" height="25.0mm"
      fill="#2C3438" stroke="none" />
<rect x="249.34895833333331mm" y="0.0mm"
      width="0.3255208333333333mm" height="25.0mm"
      fill="#2A3133" stroke="none" />
<rect x="249.67447916666666mm" y="0.0mm"
      width="0.3255208333333333mm" height="25.0mm"
      fill="#2E3538" stroke="none" />
</svg>